<?xml version="1.0" encoding="UTF-8" standalone="no"?>
<!DOCTYPE svg PUBLIC "-//W3C//DTD SVG 1.1//EN"
 "http://www.w3.org/Graphics/SVG/1.1/DTD/svg11.dtd">
<!-- Generated by graphviz version 15.0.0 (20260523.1842)
 -->
<!-- Title: UseCase Pages: 1 -->
<svg width="1307pt" height="465pt"
 viewBox="0.00 0.00 1307.00 465.00" xmlns="http://www.w3.org/2000/svg" xmlns:xlink="http://www.w3.org/1999/xlink">
<g id="graph0" class="graph" transform="scale(1 1) rotate(0) translate(4 460.5)">
<title>UseCase</title>
<polygon fill="white" stroke="none" points="-4,4 -4,-460.5 1302.75,-460.5 1302.75,4 -4,4"/>
<text xml:space="preserve" text-anchor="middle" x="649.38" y="-439.2" font-family="Microsoft YaHei" font-size="14.00">苍穹外卖系统用例图</text>
<g id="clust1" class="cluster">
<title>cluster_user</title>
<path fill="white" stroke="#aab7c4" d="M20,-142.25C20,-142.25 558,-142.25 558,-142.25 564,-142.25 570,-148.25 570,-154.25 570,-154.25 570,-357.25 570,-357.25 570,-363.25 564,-369.25 558,-369.25 558,-369.25 20,-369.25 20,-369.25 14,-369.25 8,-363.25 8,-357.25 8,-357.25 8,-154.25 8,-154.25 8,-148.25 14,-142.25 20,-142.25"/>
<text xml:space="preserve" text-anchor="middle" x="289" y="-351.95" font-family="Microsoft YaHei" font-size="14.00">用户端用例</text>
</g>
<g id="clust4" class="cluster">
<title>cluster_admin</title>
<path fill="white" stroke="#aab7c4" d="M590,-8C590,-8 1113,-8 1113,-8 1119,-8 1125,-14 1125,-20 1125,-20 1125,-235.75 1125,-235.75 1125,-241.75 1119,-247.75 1113,-247.75 1113,-247.75 590,-247.75 590,-247.75 584,-247.75 578,-241.75 578,-235.75 578,-235.75 578,-20 578,-20 578,-14 584,-8 590,-8"/>
<text xml:space="preserve" text-anchor="middle" x="851.5" y="-230.45" font-family="Microsoft YaHei" font-size="14.00">管理端用例</text>
</g>
<g id="clust7" class="cluster">
<title>cluster_external</title>
<path fill="white" stroke="#aab7c4" d="M139,-8C139,-8 521,-8 521,-8 527,-8 533,-14 533,-20 533,-20 533,-101.5 533,-101.5 533,-107.5 527,-113.5 521,-113.5 521,-113.5 139,-113.5 139,-113.5 133,-113.5 127,-107.5 127,-101.5 127,-101.5 127,-20 127,-20 127,-14 133,-8 139,-8"/>
<text xml:space="preserve" text-anchor="middle" x="330" y="-96.2" font-family="Microsoft YaHei" font-size="14.00">外部系统</text>
</g>
<!-- customer -->
<g id="node1" class="node">
<title>customer</title>
<path fill="#e8f3ff" stroke="#2f3a4a" d="M379.38,-429.75C379.38,-429.75 338.62,-429.75 338.62,-429.75 332.62,-429.75 326.62,-423.75 326.62,-417.75 326.62,-417.75 326.62,-405.25 326.62,-405.25 326.62,-399.25 332.62,-393.25 338.62,-393.25 338.62,-393.25 379.38,-393.25 379.38,-393.25 385.38,-393.25 391.38,-399.25 391.38,-405.25 391.38,-405.25 391.38,-417.75 391.38,-417.75 391.38,-423.75 385.38,-429.75 379.38,-429.75"/>
<text xml:space="preserve" text-anchor="middle" x="359" y="-416.25" font-family="Microsoft YaHei" font-size="10.00">用户</text>
<text xml:space="preserve" text-anchor="middle" x="359" y="-402" font-family="Microsoft YaHei" font-size="10.00">微信小程序</text>
</g>
<!-- u_login -->
<g id="node4" class="node">
<title>u_login</title>
<ellipse fill="none" stroke="#2f3a4a" cx="61" cy="-289.75" rx="34.98" ry="18"/>
<text xml:space="preserve" text-anchor="middle" x="61" y="-287.38" font-family="Microsoft YaHei" font-size="10.00">微信登录</text>
</g>
<!-- customer&#45;&gt;u_login -->
<g id="edge3" class="edge">
<title>customer&#45;&gt;u_login</title>
<path fill="none" stroke="#526173" d="M326.2,-408.57C266.29,-404.49 142.09,-393.33 107,-369.25 88.2,-356.34 75.97,-333.03 68.89,-315.15"/>
<polygon fill="#526173" stroke="#526173" points="71.1,-314.57 66.69,-309.28 66.84,-316.17 71.1,-314.57"/>
</g>
<!-- u_goods -->
<g id="node5" class="node">
<title>u_goods</title>
<ellipse fill="none" stroke="#2f3a4a" cx="169" cy="-289.75" rx="50.25" ry="18"/>
<text xml:space="preserve" text-anchor="middle" x="169" y="-287.38" font-family="Microsoft YaHei" font-size="10.00">浏览菜品/套餐</text>
</g>
<!-- customer&#45;&gt;u_goods -->
<g id="edge4" class="edge">
<title>customer&#45;&gt;u_goods</title>
<path fill="none" stroke="#526173" d="M326.39,-405.64C298.76,-400.28 259.1,-389.58 230,-369.25 209.64,-355.03 192.9,-331.99 182.13,-314.54"/>
<polygon fill="#526173" stroke="#526173" points="184.24,-313.63 178.95,-309.22 180.34,-315.97 184.24,-313.63"/>
</g>
<!-- u_cart -->
<g id="node6" class="node">
<title>u_cart</title>
<ellipse fill="none" stroke="#2f3a4a" cx="283" cy="-289.75" rx="41.18" ry="18"/>
<text xml:space="preserve" text-anchor="middle" x="283" y="-287.38" font-family="Microsoft YaHei" font-size="10.00">维护购物车</text>
</g>
<!-- customer&#45;&gt;u_cart -->
<g id="edge5" class="edge">
<title>customer&#45;&gt;u_cart</title>
<path fill="none" stroke="#526173" d="M347.79,-392.83C334.54,-371.96 312.46,-337.16 297.81,-314.09"/>
<polygon fill="#526173" stroke="#526173" points="299.74,-312.88 294.34,-308.61 295.9,-315.32 299.74,-312.88"/>
</g>
<!-- u_address -->
<g id="node7" class="node">
<title>u_address</title>
<ellipse fill="none" stroke="#2f3a4a" cx="63" cy="-168.25" rx="47.38" ry="18"/>
<text xml:space="preserve" text-anchor="middle" x="63" y="-165.88" font-family="Microsoft YaHei" font-size="10.00">管理收货地址</text>
</g>
<!-- customer&#45;&gt;u_address -->
<g id="edge6" class="edge">
<title>customer&#45;&gt;u_address</title>
<path fill="none" stroke="#526173" d="M362.04,-393.02C366.1,-363.36 369.3,-303.34 336,-271.75 301.28,-238.81 163.55,-271.49 122,-247.75 100.31,-235.36 84.11,-211.43 74.24,-193.23"/>
<polygon fill="#526173" stroke="#526173" points="76.36,-192.38 71.34,-187.67 72.32,-194.49 76.36,-192.38"/>
</g>
<!-- u_order -->
<g id="node8" class="node">
<title>u_order</title>
<ellipse fill="none" stroke="#2f3a4a" cx="184" cy="-168.25" rx="50.25" ry="18"/>
<text xml:space="preserve" text-anchor="middle" x="184" y="-165.88" font-family="Microsoft YaHei" font-size="10.00">提交/支付订单</text>
</g>
<!-- customer&#45;&gt;u_order -->
<g id="edge7" class="edge">
<title>customer&#45;&gt;u_order</title>
<path fill="none" stroke="#526173" d="M370.16,-393.04C372.56,-388.41 374.75,-383.29 376,-378.25 389.08,-325.4 413.3,-295.41 376,-255.75 366.09,-245.21 258.82,-254.46 246,-247.75 223.31,-235.88 206.19,-211.65 195.75,-193.23"/>
<polygon fill="#526173" stroke="#526173" points="197.78,-192.19 192.68,-187.57 193.78,-194.37 197.78,-192.19"/>
</g>
<!-- u_history -->
<g id="node9" class="node">
<title>u_history</title>
<ellipse fill="none" stroke="#2f3a4a" cx="335" cy="-168.25" rx="77.91" ry="18"/>
<text xml:space="preserve" text-anchor="middle" x="335" y="-165.88" font-family="Microsoft YaHei" font-size="10.00">历史订单/催单/再来一单</text>
</g>
<!-- customer&#45;&gt;u_history -->
<g id="edge8" class="edge">
<title>customer&#45;&gt;u_history</title>
<path fill="none" stroke="#526173" d="M391.71,-401.96C403.69,-397.08 416.02,-389.59 423,-378.25 451.55,-331.89 444.05,-305.96 423,-255.75 411.64,-228.65 387.19,-205.76 366.94,-190.35"/>
<polygon fill="#526173" stroke="#526173" points="368.33,-188.55 361.75,-186.51 365.63,-192.2 368.33,-188.55"/>
</g>
<!-- u_shop -->
<g id="node10" class="node">
<title>u_shop</title>
<ellipse fill="none" stroke="#2f3a4a" cx="499" cy="-168.25" rx="62.65" ry="18"/>
<text xml:space="preserve" text-anchor="middle" x="499" y="-165.88" font-family="Microsoft YaHei" font-size="10.00">查看店铺状态/信息</text>
</g>
<!-- customer&#45;&gt;u_shop -->
<g id="edge9" class="edge">
<title>customer&#45;&gt;u_shop</title>
<path fill="none" stroke="#526173" d="M391.56,-405.29C412.68,-400.04 438.66,-389.65 452,-369.25 487.99,-314.2 496.52,-234.7 498.47,-194.52"/>
<polygon fill="#526173" stroke="#526173" points="500.74,-194.67 498.74,-188.08 496.2,-194.49 500.74,-194.67"/>
</g>
<!-- admin -->
<g id="node2" class="node">
<title>admin</title>
<path fill="#fff2cc" stroke="#2f3a4a" d="M948.5,-429.75C948.5,-429.75 917.5,-429.75 917.5,-429.75 911.5,-429.75 905.5,-423.75 905.5,-417.75 905.5,-417.75 905.5,-405.25 905.5,-405.25 905.5,-399.25 911.5,-393.25 917.5,-393.25 917.5,-393.25 948.5,-393.25 948.5,-393.25 954.5,-393.25 960.5,-399.25 960.5,-405.25 960.5,-405.25 960.5,-417.75 960.5,-417.75 960.5,-423.75 954.5,-429.75 948.5,-429.75"/>
<text xml:space="preserve" text-anchor="middle" x="933" y="-416.25" font-family="Microsoft YaHei" font-size="10.00">商家员工</text>
<text xml:space="preserve" text-anchor="middle" x="933" y="-402" font-family="Microsoft YaHei" font-size="10.00">管理端</text>
</g>
<!-- a_login -->
<g id="node11" class="node">
<title>a_login</title>
<ellipse fill="none" stroke="#2f3a4a" cx="636" cy="-168.25" rx="50.25" ry="18"/>
<text xml:space="preserve" text-anchor="middle" x="636" y="-165.88" font-family="Microsoft YaHei" font-size="10.00">员工登录/退出</text>
</g>
<!-- admin&#45;&gt;a_login -->
<g id="edge10" class="edge">
<title>admin&#45;&gt;a_login</title>
<path fill="none" stroke="#526173" d="M905.16,-403.33C882.24,-396.66 849.5,-385.33 824,-369.25 747.44,-320.98 681,-234.25 651.81,-192.7"/>
<polygon fill="#526173" stroke="#526173" points="653.72,-191.47 648.15,-187.43 649.99,-194.07 653.72,-191.47"/>
</g>
<!-- a_basic -->
<g id="node12" class="node">
<title>a_basic</title>
<ellipse fill="none" stroke="#2f3a4a" cx="759" cy="-168.25" rx="50.25" ry="18"/>
<text xml:space="preserve" text-anchor="middle" x="759" y="-165.88" font-family="Microsoft YaHei" font-size="10.00">员工/分类管理</text>
</g>
<!-- admin&#45;&gt;a_basic -->
<g id="edge11" class="edge">
<title>admin&#45;&gt;a_basic</title>
<path fill="none" stroke="#526173" d="M918.13,-393.08C912.07,-385.82 905.07,-377.23 899,-369.25 851.67,-306.99 799.84,-230.58 774.58,-192.76"/>
<polygon fill="#526173" stroke="#526173" points="776.52,-191.57 771.02,-187.42 772.73,-194.09 776.52,-191.57"/>
</g>
<!-- a_goods -->
<g id="node13" class="node">
<title>a_goods</title>
<ellipse fill="none" stroke="#2f3a4a" cx="882" cy="-168.25" rx="50.25" ry="18"/>
<text xml:space="preserve" text-anchor="middle" x="882" y="-165.88" font-family="Microsoft YaHei" font-size="10.00">菜品/套餐管理</text>
</g>
<!-- admin&#45;&gt;a_goods -->
<g id="edge12" class="edge">
<title>admin&#45;&gt;a_goods</title>
<path fill="none" stroke="#526173" d="M929.25,-392.76C920.29,-350.4 897.64,-243.22 887.3,-194.3"/>
<polygon fill="#526173" stroke="#526173" points="889.57,-194.06 886,-188.17 885.12,-195 889.57,-194.06"/>
</g>
<!-- a_order -->
<g id="node14" class="node">
<title>a_order</title>
<ellipse fill="none" stroke="#2f3a4a" cx="1036" cy="-168.25" rx="80.77" ry="18"/>
<text xml:space="preserve" text-anchor="middle" x="1036" y="-165.88" font-family="Microsoft YaHei" font-size="10.00">订单接单/拒单/派送/完成</text>
</g>
<!-- admin&#45;&gt;a_order -->
<g id="edge13" class="edge">
<title>admin&#45;&gt;a_order</title>
<path fill="none" stroke="#526173" d="M940.57,-392.76C958.74,-350.2 1004.83,-242.26 1025.59,-193.64"/>
<polygon fill="#526173" stroke="#526173" points="1027.64,-194.63 1028.1,-187.76 1023.45,-192.84 1027.64,-194.63"/>
</g>
<!-- a_shop -->
<g id="node15" class="node">
<title>a_shop</title>
<ellipse fill="none" stroke="#2f3a4a" cx="636" cy="-34" rx="47.38" ry="18"/>
<text xml:space="preserve" text-anchor="middle" x="636" y="-31.62" font-family="Microsoft YaHei" font-size="10.00">营业状态管理</text>
</g>
<!-- admin&#45;&gt;a_shop -->
<g id="edge14" class="edge">
<title>admin&#45;&gt;a_shop</title>
<path fill="none" stroke="#526173" d="M960.91,-394.19C1032.11,-350.66 1209.34,-229.17 1128,-142.25 1062.11,-71.84 779.8,-159.42 695,-113.5 672.9,-101.53 656.68,-77.31 646.91,-58.92"/>
<polygon fill="#526173" stroke="#526173" points="649.02,-58.06 644.04,-53.3 644.97,-60.12 649.02,-58.06"/>
</g>
<!-- a_notice -->
<g id="node17" class="node">
<title>a_notice</title>
<ellipse fill="none" stroke="#2f3a4a" cx="763" cy="-34" rx="56.45" ry="18"/>
<text xml:space="preserve" text-anchor="middle" x="763" y="-31.62" font-family="Microsoft YaHei" font-size="10.00">新订单/催单提醒</text>
</g>
<!-- admin&#45;&gt;a_notice -->
<g id="edge15" class="edge">
<title>admin&#45;&gt;a_notice</title>
<path fill="none" stroke="#526173" d="M960.99,-411.04C1017.54,-411.48 1142.29,-408.86 1169,-378.25 1244.03,-292.27 1248.12,-203.73 1169,-121.5 1161.02,-113.21 973.26,-115.87 962,-113.5 902.46,-100.99 837.64,-72.35 798.68,-53.34"/>
<polygon fill="#526173" stroke="#526173" points="799.9,-51.41 793.06,-50.58 797.89,-55.49 799.9,-51.41"/>
</g>
<!-- operator -->
<g id="node3" class="node">
<title>operator</title>
<path fill="#eaf7ea" stroke="#2f3a4a" d="M1286.75,-429.5C1286.75,-429.5 1251.25,-429.5 1251.25,-429.5 1245.25,-429.5 1239.25,-423.5 1239.25,-417.5 1239.25,-417.5 1239.25,-405.5 1239.25,-405.5 1239.25,-399.5 1245.25,-393.5 1251.25,-393.5 1251.25,-393.5 1286.75,-393.5 1286.75,-393.5 1292.75,-393.5 1298.75,-399.5 1298.75,-405.5 1298.75,-405.5 1298.75,-417.5 1298.75,-417.5 1298.75,-423.5 1292.75,-429.5 1286.75,-429.5"/>
<text xml:space="preserve" text-anchor="middle" x="1269" y="-409.12" font-family="Microsoft YaHei" font-size="10.00">店长/运营</text>
</g>
<!-- operator&#45;&gt;a_shop -->
<g id="edge17" class="edge">
<title>operator&#45;&gt;a_shop</title>
<path fill="none" stroke="#526173" d="M1268.13,-393.28C1264.54,-343.1 1246.34,-197.06 1155,-142.25 1070.79,-91.72 1033.01,-127.75 935,-121.5 921.69,-120.65 706.83,-119.66 695,-113.5 672.7,-101.9 656.52,-77.62 646.8,-59.12"/>
<polygon fill="#526173" stroke="#526173" points="648.91,-58.24 643.96,-53.45 644.84,-60.28 648.91,-58.24"/>
</g>
<!-- a_report -->
<g id="node16" class="node">
<title>a_report</title>
<ellipse fill="none" stroke="#2f3a4a" cx="1045" cy="-34" rx="71.71" ry="18"/>
<text xml:space="preserve" text-anchor="middle" x="1045" y="-31.62" font-family="Microsoft YaHei" font-size="10.00">工作台/数据统计/导出</text>
</g>
<!-- operator&#45;&gt;a_report -->
<g id="edge16" class="edge">
<title>operator&#45;&gt;a_report</title>
<path fill="none" stroke="#526173" d="M1274.62,-393.22C1289.13,-345.1 1322.68,-207.45 1263,-121.5 1230.38,-74.51 1167.91,-53.05 1118.18,-43.24"/>
<polygon fill="#526173" stroke="#526173" points="1118.61,-41.01 1111.8,-42.04 1117.77,-45.48 1118.61,-41.01"/>
</g>
<!-- u_login&#45;&gt;u_address -->
<!-- pay -->
<g id="node18" class="node">
<title>pay</title>
<path fill="#f6eafe" stroke="#2f3a4a" d="M221.25,-52C221.25,-52 146.75,-52 146.75,-52 140.75,-52 134.75,-46 134.75,-40 134.75,-40 134.75,-28 134.75,-28 134.75,-22 140.75,-16 146.75,-16 146.75,-16 221.25,-16 221.25,-16 227.25,-16 233.25,-22 233.25,-28 233.25,-28 233.25,-40 233.25,-40 233.25,-46 227.25,-52 221.25,-52"/>
<text xml:space="preserve" text-anchor="middle" x="184" y="-31.62" font-family="Microsoft YaHei" font-size="10.00">微信支付/模拟支付</text>
</g>
<!-- u_order&#45;&gt;pay -->
<g id="edge18" class="edge">
<title>u_order&#45;&gt;pay</title>
<path fill="none" stroke="#526173" d="M184,-149.96C184,-127.09 184,-86.61 184,-60.3"/>
<polygon fill="#526173" stroke="#526173" points="186.28,-60.31 184,-53.81 181.73,-60.31 186.28,-60.31"/>
<text xml:space="preserve" text-anchor="middle" x="193" y="-125.7" font-family="Microsoft YaHei" font-size="9.00">支付</text>
</g>
<!-- map -->
<g id="node20" class="node">
<title>map</title>
<path fill="#f5f5f5" stroke="#2f3a4a" d="M319.25,-52C319.25,-52 268.75,-52 268.75,-52 262.75,-52 256.75,-46 256.75,-40 256.75,-40 256.75,-28 256.75,-28 256.75,-22 262.75,-16 268.75,-16 268.75,-16 319.25,-16 319.25,-16 325.25,-16 331.25,-22 331.25,-28 331.25,-28 331.25,-40 331.25,-40 331.25,-46 325.25,-52 319.25,-52"/>
<text xml:space="preserve" text-anchor="middle" x="294" y="-31.62" font-family="Microsoft YaHei" font-size="10.00">百度地图服务</text>
</g>
<!-- u_order&#45;&gt;map -->
<g id="edge19" class="edge">
<title>u_order&#45;&gt;map</title>
<path fill="none" stroke="#526173" d="M204.87,-151.41C217.35,-141.35 233.04,-127.6 245,-113.5 259.36,-96.56 272.5,-75.02 281.55,-58.79"/>
<polygon fill="#526173" stroke="#526173" points="283.31,-60.31 284.44,-53.52 279.33,-58.12 283.31,-60.31"/>
<text xml:space="preserve" text-anchor="middle" x="255.61" y="-125.7" font-family="Microsoft YaHei" font-size="9.00">配送校验</text>
</g>
<!-- ws -->
<g id="node21" class="node">
<title>ws</title>
<path fill="#f5f5f5" stroke="#2f3a4a" d="M411.62,-52C411.62,-52 366.38,-52 366.38,-52 360.38,-52 354.38,-46 354.38,-40 354.38,-40 354.38,-28 354.38,-28 354.38,-22 360.38,-16 366.38,-16 366.38,-16 411.62,-16 411.62,-16 417.62,-16 423.62,-22 423.62,-28 423.62,-28 423.62,-40 423.62,-40 423.62,-46 417.62,-52 411.62,-52"/>
<text xml:space="preserve" text-anchor="middle" x="389" y="-31.62" font-family="Microsoft YaHei" font-size="10.00">WebSocket</text>
</g>
<!-- u_order&#45;&gt;ws -->
<g id="edge21" class="edge">
<title>u_order&#45;&gt;ws</title>
<path fill="none" stroke="#526173" d="M214.9,-153.76C224.73,-149.75 235.72,-145.55 246,-142.25 260.37,-137.64 264.58,-138.69 279,-134.25 294.43,-129.51 297.63,-126.42 313,-121.5 326.14,-117.29 332.02,-121.86 343,-113.5 360.93,-99.85 373.16,-77.05 380.47,-59.52"/>
<polygon fill="#526173" stroke="#526173" points="382.47,-60.67 382.75,-53.78 378.24,-58.99 382.47,-60.67"/>
<text xml:space="preserve" text-anchor="middle" x="331" y="-125.7" font-family="Microsoft YaHei" font-size="9.00">新单事件</text>
</g>
<!-- u_history&#45;&gt;ws -->
<g id="edge22" class="edge">
<title>u_history&#45;&gt;ws</title>
<path fill="none" stroke="#526173" d="M345.67,-150.1C348.57,-145.09 351.57,-139.54 354,-134.25 365.31,-109.63 375.27,-80.22 381.64,-59.84"/>
<polygon fill="#526173" stroke="#526173" points="383.8,-60.56 383.53,-53.68 379.45,-59.22 383.8,-60.56"/>
<text xml:space="preserve" text-anchor="middle" x="376.6" y="-125.7" font-family="Microsoft YaHei" font-size="9.00">催单事件</text>
</g>
<!-- a_login&#45;&gt;a_shop -->
<!-- oss -->
<g id="node19" class="node">
<title>oss</title>
<path fill="#f5f5f5" stroke="#2f3a4a" d="M513.12,-52C513.12,-52 458.88,-52 458.88,-52 452.88,-52 446.88,-46 446.88,-40 446.88,-40 446.88,-28 446.88,-28 446.88,-22 452.88,-16 458.88,-16 458.88,-16 513.12,-16 513.12,-16 519.12,-16 525.12,-22 525.12,-28 525.12,-28 525.12,-40 525.12,-40 525.12,-46 519.12,-52 513.12,-52"/>
<text xml:space="preserve" text-anchor="middle" x="486" y="-31.62" font-family="Microsoft YaHei" font-size="10.00">对象存储 OSS</text>
</g>
<!-- a_goods&#45;&gt;oss -->
<g id="edge20" class="edge">
<title>a_goods&#45;&gt;oss</title>
<path fill="none" stroke="#526173" d="M853.51,-153.1C843.48,-148.79 831.97,-144.58 821,-142.25 791.42,-135.97 575.28,-149.2 549,-134.25 520.67,-118.13 503.17,-83.49 494.01,-59.72"/>
<polygon fill="#526173" stroke="#526173" points="496.23,-59.15 491.85,-53.84 491.96,-60.72 496.23,-59.15"/>
<text xml:space="preserve" text-anchor="middle" x="567" y="-125.7" font-family="Microsoft YaHei" font-size="9.00">图片上传</text>
</g>
<!-- ws&#45;&gt;a_notice -->
<g id="edge23" class="edge">
<title>ws&#45;&gt;a_notice</title>
<path fill="none" stroke="#526173" d="M394.27,-52.18C400.63,-70.41 413.29,-97.48 435,-109.69 485.36,-138.01 642.23,-133.22 695,-109.69 718.42,-99.24 737.15,-76.31 748.97,-58.4"/>
<polygon fill="#526173" stroke="#526173" points="750.62,-60.05 752.2,-53.34 746.78,-57.6 750.62,-60.05"/>
<text xml:space="preserve" text-anchor="middle" x="599" y="-125.7" font-family="Microsoft YaHei" font-size="9.00">推送</text>
</g>
</g>
</svg>
