<?xml version="1.0" encoding="UTF-8" standalone="no"?>
<!DOCTYPE svg PUBLIC "-//W3C//DTD SVG 1.1//EN"
 "http://www.w3.org/Graphics/SVG/1.1/DTD/svg11.dtd">
<!-- Generated by graphviz version 15.0.0 (20260523.1842)
 -->
<!-- Title: BusinessFlowOrder Pages: 1 -->
<svg width="1138pt" height="281pt"
 viewBox="0.00 0.00 1138.00 281.00" xmlns="http://www.w3.org/2000/svg" xmlns:xlink="http://www.w3.org/1999/xlink">
<g id="graph0" class="graph" transform="scale(1 1) rotate(0) translate(4 276.5)">
<title>BusinessFlowOrder</title>
<polygon fill="white" stroke="none" points="-4,4 -4,-276.5 1134.04,-276.5 1134.04,4 -4,4"/>
<text xml:space="preserve" text-anchor="middle" x="565.02" y="-255.2" font-family="Microsoft YaHei" font-size="14.00">用户下单与商家履约业务流程图</text>
<!-- start -->
<g id="node1" class="node">
<title>start</title>
<ellipse fill="#2f80ed" stroke="#2f80ed" cx="10.08" cy="-209.25" rx="10.08" ry="10.08"/>
</g>
<!-- browse -->
<g id="node2" class="node">
<title>browse</title>
<path fill="#f8fafc" stroke="#506070" d="M102.58,-227.25C102.58,-227.25 71.58,-227.25 71.58,-227.25 65.58,-227.25 59.58,-221.25 59.58,-215.25 59.58,-215.25 59.58,-203.25 59.58,-203.25 59.58,-197.25 65.58,-191.25 71.58,-191.25 71.58,-191.25 102.58,-191.25 102.58,-191.25 108.58,-191.25 114.58,-197.25 114.58,-203.25 114.58,-203.25 114.58,-215.25 114.58,-215.25 114.58,-221.25 108.58,-227.25 102.58,-227.25"/>
<text xml:space="preserve" text-anchor="middle" x="87.08" y="-206.88" font-family="Microsoft YaHei" font-size="10.00">浏览商品</text>
</g>
<!-- start&#45;&gt;browse -->
<g id="edge1" class="edge">
<title>start&#45;&gt;browse</title>
<path fill="none" stroke="#526173" d="M20.61,-209.25C30.68,-209.25 40.76,-209.25 50.83,-209.25"/>
<polygon fill="#526173" stroke="#526173" points="50.78,-211.7 57.78,-209.25 50.78,-206.8 50.78,-211.7"/>
</g>
<!-- cart -->
<g id="node3" class="node">
<title>cart</title>
<path fill="#f8fafc" stroke="#506070" d="M206.46,-227.25C206.46,-227.25 165.71,-227.25 165.71,-227.25 159.71,-227.25 153.71,-221.25 153.71,-215.25 153.71,-215.25 153.71,-203.25 153.71,-203.25 153.71,-197.25 159.71,-191.25 165.71,-191.25 165.71,-191.25 206.46,-191.25 206.46,-191.25 212.46,-191.25 218.46,-197.25 218.46,-203.25 218.46,-203.25 218.46,-215.25 218.46,-215.25 218.46,-221.25 212.46,-227.25 206.46,-227.25"/>
<text xml:space="preserve" text-anchor="middle" x="186.08" y="-206.88" font-family="Microsoft YaHei" font-size="10.00">加入购物车</text>
</g>
<!-- browse&#45;&gt;cart -->
<g id="edge2" class="edge">
<title>browse&#45;&gt;cart</title>
<path fill="none" stroke="#526173" d="M114.92,-209.25C124.91,-209.25 134.9,-209.25 144.89,-209.25"/>
<polygon fill="#526173" stroke="#526173" points="144.77,-211.7 151.77,-209.25 144.77,-206.8 144.77,-211.7"/>
</g>
<!-- address -->
<g id="node4" class="node">
<title>address</title>
<path fill="#f8fafc" stroke="#506070" d="M300.58,-227.25C300.58,-227.25 269.58,-227.25 269.58,-227.25 263.58,-227.25 257.58,-221.25 257.58,-215.25 257.58,-215.25 257.58,-203.25 257.58,-203.25 257.58,-197.25 263.58,-191.25 269.58,-191.25 269.58,-191.25 300.58,-191.25 300.58,-191.25 306.58,-191.25 312.58,-197.25 312.58,-203.25 312.58,-203.25 312.58,-215.25 312.58,-215.25 312.58,-221.25 306.58,-227.25 300.58,-227.25"/>
<text xml:space="preserve" text-anchor="middle" x="285.08" y="-206.88" font-family="Microsoft YaHei" font-size="10.00">选择地址</text>
</g>
<!-- cart&#45;&gt;address -->
<g id="edge3" class="edge">
<title>cart&#45;&gt;address</title>
<path fill="none" stroke="#526173" d="M218.95,-209.25C228.91,-209.25 238.86,-209.25 248.82,-209.25"/>
<polygon fill="#526173" stroke="#526173" points="248.67,-211.7 255.67,-209.25 248.67,-206.8 248.67,-211.7"/>
</g>
<!-- submit -->
<g id="node5" class="node">
<title>submit</title>
<path fill="#f8fafc" stroke="#506070" d="M395.58,-227.25C395.58,-227.25 364.58,-227.25 364.58,-227.25 358.58,-227.25 352.58,-221.25 352.58,-215.25 352.58,-215.25 352.58,-203.25 352.58,-203.25 352.58,-197.25 358.58,-191.25 364.58,-191.25 364.58,-191.25 395.58,-191.25 395.58,-191.25 401.58,-191.25 407.58,-197.25 407.58,-203.25 407.58,-203.25 407.58,-215.25 407.58,-215.25 407.58,-221.25 401.58,-227.25 395.58,-227.25"/>
<text xml:space="preserve" text-anchor="middle" x="380.08" y="-206.88" font-family="Microsoft YaHei" font-size="10.00">提交订单</text>
</g>
<!-- address&#45;&gt;submit -->
<g id="edge4" class="edge">
<title>address&#45;&gt;submit</title>
<path fill="none" stroke="#526173" d="M312.91,-209.25C323.26,-209.25 333.62,-209.25 343.97,-209.25"/>
<polygon fill="#526173" stroke="#526173" points="343.75,-211.7 350.75,-209.25 343.75,-206.8 343.75,-211.7"/>
</g>
<!-- validate -->
<g id="node6" class="node">
<title>validate</title>
<path fill="#fff7e6" stroke="#506070" d="M528.91,-241.38C528.91,-241.38 458,-213.62 458,-213.62 452.42,-211.44 452.42,-207.06 458,-204.88 458,-204.88 528.91,-177.12 528.91,-177.12 534.49,-174.94 545.67,-174.94 551.25,-177.12 551.25,-177.12 622.16,-204.88 622.16,-204.88 627.74,-207.06 627.74,-211.44 622.16,-213.62 622.16,-213.62 551.25,-241.38 551.25,-241.38 545.67,-243.56 534.49,-243.56 528.91,-241.38"/>
<text xml:space="preserve" text-anchor="middle" x="540.08" y="-214" font-family="Microsoft YaHei" font-size="10.00">营业/地址/购物车</text>
<text xml:space="preserve" text-anchor="middle" x="540.08" y="-199.75" font-family="Microsoft YaHei" font-size="10.00">校验通过？</text>
</g>
<!-- submit&#45;&gt;validate -->
<g id="edge5" class="edge">
<title>submit&#45;&gt;validate</title>
<path fill="none" stroke="#526173" d="M407.89,-209.25C417.71,-209.25 427.52,-209.25 437.34,-209.25"/>
<polygon fill="#526173" stroke="#526173" points="437.07,-211.7 444.07,-209.25 437.07,-206.8 437.07,-211.7"/>
</g>
<!-- create -->
<g id="node7" class="node">
<title>create</title>
<path fill="#f8fafc" stroke="#506070" d="M427.46,-130C427.46,-130 386.71,-130 386.71,-130 380.71,-130 374.71,-124 374.71,-118 374.71,-118 374.71,-91.25 374.71,-91.25 374.71,-85.25 380.71,-79.25 386.71,-79.25 386.71,-79.25 427.46,-79.25 427.46,-79.25 433.46,-79.25 439.46,-85.25 439.46,-91.25 439.46,-91.25 439.46,-118 439.46,-118 439.46,-124 433.46,-130 427.46,-130"/>
<text xml:space="preserve" text-anchor="middle" x="407.08" y="-116.5" font-family="Microsoft YaHei" font-size="10.00">创建订单</text>
<text xml:space="preserve" text-anchor="middle" x="407.08" y="-102.25" font-family="Microsoft YaHei" font-size="10.00">生成明细</text>
<text xml:space="preserve" text-anchor="middle" x="407.08" y="-88" font-family="Microsoft YaHei" font-size="10.00">清空购物车</text>
</g>
<!-- validate&#45;&gt;create -->
<g id="edge6" class="edge">
<title>validate&#45;&gt;create</title>
<path fill="none" stroke="#526173" d="M509.23,-184.45C490.34,-169.87 466,-151.09 445.82,-135.52"/>
<polygon fill="#526173" stroke="#526173" points="447.39,-133.63 440.35,-131.29 444.39,-137.51 447.39,-133.63"/>
<text xml:space="preserve" text-anchor="middle" x="478.08" y="-149.2" font-family="Microsoft YaHei" font-size="9.00">是</text>
</g>
<!-- fail -->
<g id="node15" class="node">
<title>fail</title>
<path fill="#fdecea" stroke="#d93025" d="M1001.33,-227.5C1001.33,-227.5 950.83,-227.5 950.83,-227.5 944.83,-227.5 938.83,-221.5 938.83,-215.5 938.83,-215.5 938.83,-203 938.83,-203 938.83,-197 944.83,-191 950.83,-191 950.83,-191 1001.33,-191 1001.33,-191 1007.33,-191 1013.33,-197 1013.33,-203 1013.33,-203 1013.33,-215.5 1013.33,-215.5 1013.33,-221.5 1007.33,-227.5 1001.33,-227.5"/>
<text xml:space="preserve" text-anchor="middle" x="976.08" y="-214" font-family="Microsoft YaHei" font-size="10.00">提示失败原因</text>
<text xml:space="preserve" text-anchor="middle" x="976.08" y="-199.75" font-family="Microsoft YaHei" font-size="10.00">不创建订单</text>
</g>
<!-- validate&#45;&gt;fail -->
<g id="edge7" class="edge">
<title>validate&#45;&gt;fail</title>
<path fill="none" stroke="#526173" d="M634.69,-209.25C726.02,-209.25 860.44,-209.25 930.23,-209.25"/>
<polygon fill="#526173" stroke="#526173" points="929.91,-211.7 936.91,-209.25 929.91,-206.8 929.91,-211.7"/>
<text xml:space="preserve" text-anchor="middle" x="786.08" y="-216.45" font-family="Microsoft YaHei" font-size="9.00">否</text>
</g>
<!-- pay -->
<g id="node8" class="node">
<title>pay</title>
<path fill="#f8fafc" stroke="#506070" d="M521.58,-122.62C521.58,-122.62 490.58,-122.62 490.58,-122.62 484.58,-122.62 478.58,-116.62 478.58,-110.62 478.58,-110.62 478.58,-98.62 478.58,-98.62 478.58,-92.62 484.58,-86.62 490.58,-86.62 490.58,-86.62 521.58,-86.62 521.58,-86.62 527.58,-86.62 533.58,-92.62 533.58,-98.62 533.58,-98.62 533.58,-110.62 533.58,-110.62 533.58,-116.62 527.58,-122.62 521.58,-122.62"/>
<text xml:space="preserve" text-anchor="middle" x="506.08" y="-102.25" font-family="Microsoft YaHei" font-size="10.00">支付订单</text>
</g>
<!-- create&#45;&gt;pay -->
<g id="edge8" class="edge">
<title>create&#45;&gt;pay</title>
<path fill="none" stroke="#526173" d="M439.95,-104.62C449.91,-104.62 459.86,-104.62 469.82,-104.62"/>
<polygon fill="#526173" stroke="#526173" points="469.67,-107.08 476.67,-104.63 469.67,-102.18 469.67,-107.08"/>
</g>
<!-- paid -->
<g id="node9" class="node">
<title>paid</title>
<path fill="#fff7e6" stroke="#506070" d="M619.62,-119.08C619.62,-119.08 584.3,-108.17 584.3,-108.17 578.57,-106.4 578.57,-102.85 584.3,-101.08 584.3,-101.08 619.62,-90.17 619.62,-90.17 625.35,-88.4 636.81,-88.4 642.54,-90.17 642.54,-90.17 677.86,-101.08 677.86,-101.08 683.59,-102.85 683.59,-106.4 677.86,-108.17 677.86,-108.17 642.54,-119.08 642.54,-119.08 636.81,-120.85 625.35,-120.85 619.62,-119.08"/>
<text xml:space="preserve" text-anchor="middle" x="631.08" y="-102.25" font-family="Microsoft YaHei" font-size="10.00">支付成功？</text>
</g>
<!-- pay&#45;&gt;paid -->
<g id="edge9" class="edge">
<title>pay&#45;&gt;paid</title>
<path fill="none" stroke="#526173" d="M533.91,-104.62C543.6,-104.62 553.29,-104.62 562.98,-104.62"/>
<polygon fill="#526173" stroke="#526173" points="562.98,-107.08 569.98,-104.63 562.98,-102.18 562.98,-107.08"/>
</g>
<!-- notify -->
<g id="node10" class="node">
<title>notify</title>
<path fill="#f8fafc" stroke="#506070" d="M785.71,-122.88C785.71,-122.88 740.46,-122.88 740.46,-122.88 734.46,-122.88 728.46,-116.88 728.46,-110.88 728.46,-110.88 728.46,-98.38 728.46,-98.38 728.46,-92.38 734.46,-86.38 740.46,-86.38 740.46,-86.38 785.71,-86.38 785.71,-86.38 791.71,-86.38 797.71,-92.38 797.71,-98.38 797.71,-98.38 797.71,-110.88 797.71,-110.88 797.71,-116.88 791.71,-122.88 785.71,-122.88"/>
<text xml:space="preserve" text-anchor="middle" x="763.08" y="-109.38" font-family="Microsoft YaHei" font-size="10.00">WebSocket</text>
<text xml:space="preserve" text-anchor="middle" x="763.08" y="-95.12" font-family="Microsoft YaHei" font-size="10.00">通知商家</text>
</g>
<!-- paid&#45;&gt;notify -->
<g id="edge10" class="edge">
<title>paid&#45;&gt;notify</title>
<path fill="none" stroke="#526173" d="M690.9,-104.62C700.61,-104.62 710.51,-104.62 719.73,-104.62"/>
<polygon fill="#526173" stroke="#526173" points="719.47,-107.08 726.47,-104.63 719.47,-102.18 719.47,-107.08"/>
<text xml:space="preserve" text-anchor="middle" x="708.89" y="-111.83" font-family="Microsoft YaHei" font-size="9.00">是</text>
</g>
<!-- unpaid -->
<g id="node16" class="node">
<title>unpaid</title>
<path fill="#fdecea" stroke="#d93025" d="M730.71,-36.5C730.71,-36.5 685.46,-36.5 685.46,-36.5 679.46,-36.5 673.46,-30.5 673.46,-24.5 673.46,-24.5 673.46,-12 673.46,-12 673.46,-6 679.46,0 685.46,0 685.46,0 730.71,0 730.71,0 736.71,0 742.71,-6 742.71,-12 742.71,-12 742.71,-24.5 742.71,-24.5 742.71,-30.5 736.71,-36.5 730.71,-36.5"/>
<text xml:space="preserve" text-anchor="middle" x="708.08" y="-23" font-family="Microsoft YaHei" font-size="10.00">保留待付款</text>
<text xml:space="preserve" text-anchor="middle" x="708.08" y="-8.75" font-family="Microsoft YaHei" font-size="10.00">可取消/重试</text>
</g>
<!-- paid&#45;&gt;unpaid -->
<g id="edge11" class="edge">
<title>paid&#45;&gt;unpaid</title>
<path fill="none" stroke="#526173" d="M643.45,-90.07C654.98,-77.43 672.44,-58.31 686.3,-43.12"/>
<polygon fill="#526173" stroke="#526173" points="688.06,-44.82 690.97,-38 684.44,-41.52 688.06,-44.82"/>
<text xml:space="preserve" text-anchor="middle" x="691.85" y="-55.7" font-family="Microsoft YaHei" font-size="9.00">否/超时</text>
</g>
<!-- confirm -->
<g id="node11" class="node">
<title>confirm</title>
<path fill="#fff7e6" stroke="#506070" d="M883.62,-119.08C883.62,-119.08 848.3,-108.17 848.3,-108.17 842.57,-106.4 842.57,-102.85 848.3,-101.08 848.3,-101.08 883.62,-90.17 883.62,-90.17 889.35,-88.4 900.81,-88.4 906.54,-90.17 906.54,-90.17 941.86,-101.08 941.86,-101.08 947.59,-102.85 947.59,-106.4 941.86,-108.17 941.86,-108.17 906.54,-119.08 906.54,-119.08 900.81,-120.85 889.35,-120.85 883.62,-119.08"/>
<text xml:space="preserve" text-anchor="middle" x="895.08" y="-102.25" font-family="Microsoft YaHei" font-size="10.00">商家接单？</text>
</g>
<!-- notify&#45;&gt;confirm -->
<g id="edge12" class="edge">
<title>notify&#45;&gt;confirm</title>
<path fill="none" stroke="#526173" d="M798.14,-104.62C807.71,-104.62 817.28,-104.62 826.84,-104.62"/>
<polygon fill="#526173" stroke="#526173" points="826.74,-107.08 833.74,-104.63 826.74,-102.18 826.74,-107.08"/>
</g>
<!-- delivery -->
<g id="node12" class="node">
<title>delivery</title>
<path fill="#f8fafc" stroke="#506070" d="M831.08,-36.25C831.08,-36.25 801.08,-36.25 801.08,-36.25 795.08,-36.25 789.08,-30.25 789.08,-24.25 789.08,-24.25 789.08,-12.25 789.08,-12.25 789.08,-6.25 795.08,-0.25 801.08,-0.25 801.08,-0.25 831.08,-0.25 831.08,-0.25 837.08,-0.25 843.08,-6.25 843.08,-12.25 843.08,-12.25 843.08,-24.25 843.08,-24.25 843.08,-30.25 837.08,-36.25 831.08,-36.25"/>
<text xml:space="preserve" text-anchor="middle" x="816.08" y="-15.88" font-family="Microsoft YaHei" font-size="10.00">派送中</text>
</g>
<!-- confirm&#45;&gt;delivery -->
<g id="edge13" class="edge">
<title>confirm&#45;&gt;delivery</title>
<path fill="none" stroke="#526173" d="M882.39,-90.07C870.37,-77.24 852.1,-57.72 837.77,-42.42"/>
<polygon fill="#526173" stroke="#526173" points="839.91,-41.11 833.33,-37.68 836.33,-44.46 839.91,-41.11"/>
<text xml:space="preserve" text-anchor="middle" x="866.95" y="-55.7" font-family="Microsoft YaHei" font-size="9.00">接单</text>
</g>
<!-- reject -->
<g id="node17" class="node">
<title>reject</title>
<path fill="#fdecea" stroke="#d93025" d="M1059.58,-122.88C1059.58,-122.88 1004.58,-122.88 1004.58,-122.88 998.58,-122.88 992.58,-116.88 992.58,-110.88 992.58,-110.88 992.58,-98.38 992.58,-98.38 992.58,-92.38 998.58,-86.38 1004.58,-86.38 1004.58,-86.38 1059.58,-86.38 1059.58,-86.38 1065.58,-86.38 1071.58,-92.38 1071.58,-98.38 1071.58,-98.38 1071.58,-110.88 1071.58,-110.88 1071.58,-116.88 1065.58,-122.88 1059.58,-122.88"/>
<text xml:space="preserve" text-anchor="middle" x="1032.08" y="-109.38" font-family="Microsoft YaHei" font-size="10.00">拒单/取消</text>
<text xml:space="preserve" text-anchor="middle" x="1032.08" y="-95.12" font-family="Microsoft YaHei" font-size="10.00">记录原因/退款</text>
</g>
<!-- confirm&#45;&gt;reject -->
<g id="edge14" class="edge">
<title>confirm&#45;&gt;reject</title>
<path fill="none" stroke="#526173" d="M954.77,-104.62C964.49,-104.62 974.44,-104.62 983.84,-104.62"/>
<polygon fill="#526173" stroke="#526173" points="983.78,-107.08 990.78,-104.63 983.78,-102.18 983.78,-107.08"/>
<text xml:space="preserve" text-anchor="middle" x="972.95" y="-111.83" font-family="Microsoft YaHei" font-size="9.00">拒单</text>
</g>
<!-- complete -->
<g id="node13" class="node">
<title>complete</title>
<path fill="#f8fafc" stroke="#506070" d="M925.58,-36.25C925.58,-36.25 894.58,-36.25 894.58,-36.25 888.58,-36.25 882.58,-30.25 882.58,-24.25 882.58,-24.25 882.58,-12.25 882.58,-12.25 882.58,-6.25 888.58,-0.25 894.58,-0.25 894.58,-0.25 925.58,-0.25 925.58,-0.25 931.58,-0.25 937.58,-6.25 937.58,-12.25 937.58,-12.25 937.58,-24.25 937.58,-24.25 937.58,-30.25 931.58,-36.25 925.58,-36.25"/>
<text xml:space="preserve" text-anchor="middle" x="910.08" y="-15.88" font-family="Microsoft YaHei" font-size="10.00">订单完成</text>
</g>
<!-- delivery&#45;&gt;complete -->
<g id="edge15" class="edge">
<title>delivery&#45;&gt;complete</title>
<path fill="none" stroke="#526173" d="M843.25,-18.25C853.38,-18.25 863.51,-18.25 873.64,-18.25"/>
<polygon fill="#526173" stroke="#526173" points="873.63,-20.7 880.63,-18.25 873.63,-15.8 873.63,-20.7"/>
</g>
<!-- history -->
<g id="node14" class="node">
<title>history</title>
<path fill="#f8fafc" stroke="#506070" d="M1044.58,-36.5C1044.58,-36.5 989.58,-36.5 989.58,-36.5 983.58,-36.5 977.58,-30.5 977.58,-24.5 977.58,-24.5 977.58,-12 977.58,-12 977.58,-6 983.58,0 989.58,0 989.58,0 1044.58,0 1044.58,0 1050.58,0 1056.58,-6 1056.58,-12 1056.58,-12 1056.58,-24.5 1056.58,-24.5 1056.58,-30.5 1050.58,-36.5 1044.58,-36.5"/>
<text xml:space="preserve" text-anchor="middle" x="1017.08" y="-23" font-family="Microsoft YaHei" font-size="10.00">历史订单</text>
<text xml:space="preserve" text-anchor="middle" x="1017.08" y="-8.75" font-family="Microsoft YaHei" font-size="10.00">催单/再来一单</text>
</g>
<!-- complete&#45;&gt;history -->
<g id="edge16" class="edge">
<title>complete&#45;&gt;history</title>
<path fill="none" stroke="#526173" d="M937.67,-18.25C948.11,-18.25 958.55,-18.25 969,-18.25"/>
<polygon fill="#526173" stroke="#526173" points="968.86,-20.7 975.86,-18.25 968.86,-15.8 968.86,-20.7"/>
</g>
<!-- end -->
<g id="node18" class="node">
<title>end</title>
<ellipse fill="#27ae60" stroke="#27ae60" cx="1113.08" cy="-18.25" rx="12.96" ry="12.96"/>
<ellipse fill="none" stroke="#27ae60" cx="1113.08" cy="-18.25" rx="16.96" ry="16.96"/>
</g>
<!-- history&#45;&gt;end -->
<g id="edge17" class="edge">
<title>history&#45;&gt;end</title>
<path fill="none" stroke="#526173" d="M1056.83,-18.25C1067.12,-18.25 1077.4,-18.25 1087.69,-18.25"/>
<polygon fill="#526173" stroke="#526173" points="1087.43,-20.7 1094.43,-18.25 1087.43,-15.8 1087.43,-20.7"/>
</g>
<!-- fail&#45;&gt;end -->
<g id="edge18" class="edge">
<title>fail&#45;&gt;end</title>
<path fill="none" stroke="#526173" d="M1010.95,-190.56C1034.33,-176.99 1064.02,-156.17 1082.08,-130 1100.16,-103.8 1107.74,-67.28 1110.89,-43.46"/>
<polygon fill="#526173" stroke="#526173" points="1113.29,-44.04 1111.68,-36.8 1108.42,-43.46 1113.29,-44.04"/>
</g>
<!-- unpaid&#45;&gt;history -->
<g id="edge19" class="edge">
<title>unpaid&#45;&gt;history</title>
<path fill="none" stroke="#526173" d="M738.01,-36.96C752.78,-45.11 771.24,-53.74 789.08,-57.88 853.16,-72.71 873.03,-72.87 937.08,-57.88 951.84,-54.42 967,-47.82 980.1,-40.99"/>
<polygon fill="#526173" stroke="#526173" points="981.23,-43.16 986.22,-37.67 978.9,-38.85 981.23,-43.16"/>
</g>
<!-- reject&#45;&gt;history -->
<g id="edge20" class="edge">
<title>reject&#45;&gt;history</title>
<path fill="none" stroke="#526173" d="M1028.97,-86.14C1026.86,-74.26 1024.03,-58.35 1021.66,-45.02"/>
<polygon fill="#526173" stroke="#526173" points="1024.09,-44.66 1020.45,-38.2 1019.26,-45.52 1024.09,-44.66"/>
</g>
</g>
</svg>
