<?xml version="1.0" encoding="UTF-8" standalone="no"?>
<!DOCTYPE svg PUBLIC "-//W3C//DTD SVG 1.1//EN"
 "http://www.w3.org/Graphics/SVG/1.1/DTD/svg11.dtd">
<!-- Generated by graphviz version 15.0.0 (20260523.1842)
 -->
<!-- Title: SequenceSubmitOrder Pages: 1 -->
<svg width="1435pt" height="897pt"
 viewBox="0.00 0.00 1435.00 897.00" xmlns="http://www.w3.org/2000/svg" xmlns:xlink="http://www.w3.org/1999/xlink">
<g id="graph0" class="graph" transform="scale(1 1) rotate(0) translate(4 892.51)">
<title>SequenceSubmitOrder</title>
<polygon fill="white" stroke="none" points="-4,4 -4,-892.51 1431,-892.51 1431,4 -4,4"/>
<text xml:space="preserve" text-anchor="middle" x="713.5" y="-871.21" font-family="Microsoft YaHei" font-size="14.00">用户提交订单时序图</text>
<!-- user -->
<g id="node1" class="node">
<title>user</title>
<path fill="#f8fafc" stroke="#506070" d="M42,-614.94C42,-614.94 12,-614.94 12,-614.94 6,-614.94 0,-608.94 0,-602.94 0,-602.94 0,-590.94 0,-590.94 0,-584.94 6,-578.94 12,-578.94 12,-578.94 42,-578.94 42,-578.94 48,-578.94 54,-584.94 54,-590.94 54,-590.94 54,-602.94 54,-602.94 54,-608.94 48,-614.94 42,-614.94"/>
<text xml:space="preserve" text-anchor="middle" x="27" y="-594.57" font-family="Microsoft YaHei" font-size="10.00">用户</text>
</g>
<!-- mp -->
<g id="node2" class="node">
<title>mp</title>
<path fill="#f8fafc" stroke="#506070" d="M217.75,-614.94C217.75,-614.94 177,-614.94 177,-614.94 171,-614.94 165,-608.94 165,-602.94 165,-602.94 165,-590.94 165,-590.94 165,-584.94 171,-578.94 177,-578.94 177,-578.94 217.75,-578.94 217.75,-578.94 223.75,-578.94 229.75,-584.94 229.75,-590.94 229.75,-590.94 229.75,-602.94 229.75,-602.94 229.75,-608.94 223.75,-614.94 217.75,-614.94"/>
<text xml:space="preserve" text-anchor="middle" x="197.38" y="-594.57" font-family="Microsoft YaHei" font-size="10.00">微信小程序</text>
</g>
<!-- user&#45;&gt;mp -->
<g id="edge1" class="edge">
<title>user&#45;&gt;mp</title>
<path fill="none" stroke="#526173" d="M54.31,-596.94C81.42,-596.94 124.04,-596.94 155.53,-596.94"/>
<polygon fill="#526173" stroke="#526173" points="155.49,-599.57 162.99,-596.94 155.49,-594.32 155.49,-599.57"/>
<text xml:space="preserve" text-anchor="middle" x="109.5" y="-601.14" font-family="Microsoft YaHei" font-size="9.00">确认订单并提交</text>
</g>
<!-- mp&#45;&gt;user -->
<g id="edge23" class="edge">
<title>mp&#45;&gt;user</title>
<path fill="none" stroke="#526173" d="M164.53,-581.4C156.99,-578.42 148.85,-575.74 141,-574.19 113.53,-568.77 105.36,-568.26 78,-574.19 72.74,-575.33 67.37,-577.08 62.19,-579.1"/>
<polygon fill="#526173" stroke="#526173" points="61.53,-576.53 55.65,-581.88 63.58,-581.36 61.53,-576.53"/>
<text xml:space="preserve" text-anchor="middle" x="109.5" y="-578.39" font-family="Microsoft YaHei" font-size="9.00">进入支付页</text>
</g>
<!-- orderController -->
<g id="node3" class="node">
<title>orderController</title>
<path fill="#f8fafc" stroke="#506070" d="M509.75,-615.19C509.75,-615.19 425.5,-615.19 425.5,-615.19 419.5,-615.19 413.5,-609.19 413.5,-603.19 413.5,-603.19 413.5,-590.69 413.5,-590.69 413.5,-584.69 419.5,-578.69 425.5,-578.69 425.5,-578.69 509.75,-578.69 509.75,-578.69 515.75,-578.69 521.75,-584.69 521.75,-590.69 521.75,-590.69 521.75,-603.19 521.75,-603.19 521.75,-609.19 515.75,-615.19 509.75,-615.19"/>
<text xml:space="preserve" text-anchor="middle" x="467.62" y="-601.69" font-family="Microsoft YaHei" font-size="10.00">OrderController</text>
<text xml:space="preserve" text-anchor="middle" x="467.62" y="-587.44" font-family="Microsoft YaHei" font-size="10.00">/user/order/submit</text>
</g>
<!-- mp&#45;&gt;orderController -->
<g id="edge2" class="edge">
<title>mp&#45;&gt;orderController</title>
<path fill="none" stroke="#526173" d="M230.2,-596.94C272.93,-596.94 349.75,-596.94 404.22,-596.94"/>
<polygon fill="#526173" stroke="#526173" points="404.08,-599.57 411.58,-596.94 404.08,-594.32 404.08,-599.57"/>
<text xml:space="preserve" text-anchor="middle" x="321.62" y="-613.89" font-family="Microsoft YaHei" font-size="9.00">POST /user/order/submit</text>
<text xml:space="preserve" text-anchor="middle" x="321.62" y="-601.14" font-family="Microsoft YaHei" font-size="9.00">订单金额、地址、备注等</text>
</g>
<!-- orderController&#45;&gt;mp -->
<g id="edge22" class="edge">
<title>orderController&#45;&gt;mp</title>
<path fill="none" stroke="#526173" d="M413.12,-579.03C405.28,-577.03 397.24,-575.31 389.5,-574.19 329.79,-565.57 312.94,-562.51 253.75,-574.19 248.72,-575.19 243.57,-576.64 238.54,-578.34"/>
<polygon fill="#526173" stroke="#526173" points="237.77,-575.83 231.64,-580.88 239.58,-580.76 237.77,-575.83"/>
<text xml:space="preserve" text-anchor="middle" x="321.62" y="-578.39" font-family="Microsoft YaHei" font-size="9.00">订单ID、订单号、金额、下单时间</text>
</g>
<!-- orderService -->
<g id="node4" class="node">
<title>orderService</title>
<path fill="#f8fafc" stroke="#506070" d="M712.5,-614.94C712.5,-614.94 657.5,-614.94 657.5,-614.94 651.5,-614.94 645.5,-608.94 645.5,-602.94 645.5,-602.94 645.5,-590.94 645.5,-590.94 645.5,-584.94 651.5,-578.94 657.5,-578.94 657.5,-578.94 712.5,-578.94 712.5,-578.94 718.5,-578.94 724.5,-584.94 724.5,-590.94 724.5,-590.94 724.5,-602.94 724.5,-602.94 724.5,-608.94 718.5,-614.94 712.5,-614.94"/>
<text xml:space="preserve" text-anchor="middle" x="685" y="-594.57" font-family="Microsoft YaHei" font-size="10.00">OrderService</text>
</g>
<!-- orderController&#45;&gt;orderService -->
<g id="edge3" class="edge">
<title>orderController&#45;&gt;orderService</title>
<path fill="none" stroke="#526173" d="M522.14,-596.94C557.25,-596.94 602.75,-596.94 636.56,-596.94"/>
<polygon fill="#526173" stroke="#526173" points="636.32,-599.57 643.82,-596.94 636.32,-594.32 636.32,-599.57"/>
<text xml:space="preserve" text-anchor="middle" x="583.62" y="-601.14" font-family="Microsoft YaHei" font-size="9.00">submitOrder(dto)</text>
</g>
<!-- orderService&#45;&gt;orderController -->
<g id="edge21" class="edge">
<title>orderService&#45;&gt;orderController</title>
<path fill="none" stroke="#526173" d="M645.23,-580.48C637.5,-577.87 629.35,-575.58 621.5,-574.19 588.34,-568.35 579.07,-569.38 545.75,-574.19 540.79,-574.91 535.71,-575.87 530.64,-577"/>
<polygon fill="#526173" stroke="#526173" points="530.28,-574.38 523.6,-578.68 531.5,-579.49 530.28,-574.38"/>
<text xml:space="preserve" text-anchor="middle" x="583.62" y="-578.39" font-family="Microsoft YaHei" font-size="9.00">OrderSubmitVO</text>
</g>
<!-- addressMapper -->
<g id="node5" class="node">
<title>addressMapper</title>
<path fill="#f8fafc" stroke="#506070" d="M1412.38,-182.94C1412.38,-182.94 1320.62,-182.94 1320.62,-182.94 1314.62,-182.94 1308.62,-176.94 1308.62,-170.94 1308.62,-170.94 1308.62,-158.94 1308.62,-158.94 1308.62,-152.94 1314.62,-146.94 1320.62,-146.94 1320.62,-146.94 1412.38,-146.94 1412.38,-146.94 1418.38,-146.94 1424.38,-152.94 1424.38,-158.94 1424.38,-158.94 1424.38,-170.94 1424.38,-170.94 1424.38,-176.94 1418.38,-182.94 1412.38,-182.94"/>
<text xml:space="preserve" text-anchor="middle" x="1366.5" y="-162.57" font-family="Microsoft YaHei" font-size="10.00">AddressBookMapper</text>
</g>
<!-- orderService&#45;&gt;addressMapper -->
<g id="edge4" class="edge">
<title>orderService&#45;&gt;addressMapper</title>
<path fill="none" stroke="#526173" d="M686.99,-578.69C691.78,-493.22 713.82,-135.39 748.5,-100.94 916.73,66.15 1065.95,-3.26 1282,-100.94 1303.7,-110.75 1324.95,-127.17 1340.59,-140.92"/>
<polygon fill="#526173" stroke="#526173" points="1338.47,-142.55 1345.8,-145.61 1341.98,-138.65 1338.47,-142.55"/>
<text xml:space="preserve" text-anchor="middle" x="1068.25" y="-36.46" font-family="Microsoft YaHei" font-size="9.00">getById(addressBookId)</text>
</g>
<!-- mapService -->
<g id="node6" class="node">
<title>mapService</title>
<path fill="#f8fafc" stroke="#506070" d="M961,-775.94C961,-775.94 910.5,-775.94 910.5,-775.94 904.5,-775.94 898.5,-769.94 898.5,-763.94 898.5,-763.94 898.5,-751.94 898.5,-751.94 898.5,-745.94 904.5,-739.94 910.5,-739.94 910.5,-739.94 961,-739.94 961,-739.94 967,-739.94 973,-745.94 973,-751.94 973,-751.94 973,-763.94 973,-763.94 973,-769.94 967,-775.94 961,-775.94"/>
<text xml:space="preserve" text-anchor="middle" x="935.75" y="-755.57" font-family="Microsoft YaHei" font-size="10.00">百度地图服务</text>
</g>
<!-- orderService&#45;&gt;mapService -->
<g id="edge8" class="edge">
<title>orderService&#45;&gt;mapService</title>
<path fill="none" stroke="#526173" d="M695.05,-615.22C705.48,-634.54 724.34,-664.71 748.5,-682.94 789.3,-713.73 809.19,-703.09 856.5,-722.44 867.5,-726.94 879.24,-732.08 890.18,-737.03"/>
<polygon fill="#526173" stroke="#526173" points="889.08,-739.41 897,-740.13 891.26,-734.63 889.08,-739.41"/>
<text xml:space="preserve" text-anchor="middle" x="802.5" y="-739.39" font-family="Microsoft YaHei" font-size="9.00">解析店铺/用户地址</text>
<text xml:space="preserve" text-anchor="middle" x="802.5" y="-726.64" font-family="Microsoft YaHei" font-size="9.00">计算配送距离</text>
</g>
<!-- cartMapper -->
<g id="node7" class="node">
<title>cartMapper</title>
<path fill="#f8fafc" stroke="#506070" d="M1415,-629.94C1415,-629.94 1318,-629.94 1318,-629.94 1312,-629.94 1306,-623.94 1306,-617.94 1306,-617.94 1306,-605.94 1306,-605.94 1306,-599.94 1312,-593.94 1318,-593.94 1318,-593.94 1415,-593.94 1415,-593.94 1421,-593.94 1427,-599.94 1427,-605.94 1427,-605.94 1427,-617.94 1427,-617.94 1427,-623.94 1421,-629.94 1415,-629.94"/>
<text xml:space="preserve" text-anchor="middle" x="1366.5" y="-609.57" font-family="Microsoft YaHei" font-size="10.00">ShoppingCartMapper</text>
</g>
<!-- orderService&#45;&gt;cartMapper -->
<g id="edge10" class="edge">
<title>orderService&#45;&gt;cartMapper</title>
<path fill="none" stroke="#526173" d="M716.82,-615.32C726.62,-620.3 737.72,-625.11 748.5,-627.94 952.95,-681.8 1012.15,-648.16 1223.5,-653.94 1249.49,-654.66 1256.7,-659.95 1282,-653.94 1298.39,-650.06 1315.21,-642.42 1329.42,-634.71"/>
<polygon fill="#526173" stroke="#526173" points="1330.45,-637.14 1335.71,-631.18 1327.88,-632.56 1330.45,-637.14"/>
<text xml:space="preserve" text-anchor="middle" x="1068.25" y="-662.25" font-family="Microsoft YaHei" font-size="9.00">list(currentUserId)</text>
</g>
<!-- orderService&#45;&gt;cartMapper -->
<g id="edge19" class="edge">
<title>orderService&#45;&gt;cartMapper</title>
<path fill="none" stroke="#526173" d="M724.97,-597.8C836.15,-600.26 1155.89,-607.32 1297.08,-610.43"/>
<polygon fill="#526173" stroke="#526173" points="1296.65,-613.05 1304.2,-610.59 1296.76,-607.8 1296.65,-613.05"/>
<text xml:space="preserve" text-anchor="middle" x="1068.25" y="-610.7" font-family="Microsoft YaHei" font-size="9.00">deleteByUserId(userId)</text>
</g>
<!-- orderMapper -->
<g id="node8" class="node">
<title>orderMapper</title>
<path fill="#f8fafc" stroke="#506070" d="M1395.5,-378.94C1395.5,-378.94 1337.5,-378.94 1337.5,-378.94 1331.5,-378.94 1325.5,-372.94 1325.5,-366.94 1325.5,-366.94 1325.5,-354.94 1325.5,-354.94 1325.5,-348.94 1331.5,-342.94 1337.5,-342.94 1337.5,-342.94 1395.5,-342.94 1395.5,-342.94 1401.5,-342.94 1407.5,-348.94 1407.5,-354.94 1407.5,-354.94 1407.5,-366.94 1407.5,-366.94 1407.5,-372.94 1401.5,-378.94 1395.5,-378.94"/>
<text xml:space="preserve" text-anchor="middle" x="1366.5" y="-358.57" font-family="Microsoft YaHei" font-size="10.00">OrderMapper</text>
</g>
<!-- orderService&#45;&gt;orderMapper -->
<g id="edge14" class="edge">
<title>orderService&#45;&gt;orderMapper</title>
<path fill="none" stroke="#526173" d="M692.85,-578.74C702.28,-555.83 721.23,-516.51 748.5,-491.94 796.51,-448.68 819.56,-452.45 880.5,-430.94 1028.7,-378.64 1067.52,-364.2 1223.5,-344.94 1249.3,-341.76 1256.12,-342.49 1282,-344.94 1293.36,-346.02 1305.47,-347.91 1316.84,-350.02"/>
<polygon fill="#526173" stroke="#526173" points="1316.03,-352.53 1323.89,-351.37 1317.02,-347.38 1316.03,-352.53"/>
<text xml:space="preserve" text-anchor="middle" x="1068.25" y="-401.92" font-family="Microsoft YaHei" font-size="9.00">insert(order)</text>
<text xml:space="preserve" text-anchor="middle" x="1068.25" y="-389.17" font-family="Microsoft YaHei" font-size="9.00">待付款/未支付</text>
</g>
<!-- detailMapper -->
<g id="node9" class="node">
<title>detailMapper</title>
<path fill="#f8fafc" stroke="#506070" d="M979,-486.94C979,-486.94 892.5,-486.94 892.5,-486.94 886.5,-486.94 880.5,-480.94 880.5,-474.94 880.5,-474.94 880.5,-462.94 880.5,-462.94 880.5,-456.94 886.5,-450.94 892.5,-450.94 892.5,-450.94 979,-450.94 979,-450.94 985,-450.94 991,-456.94 991,-462.94 991,-462.94 991,-474.94 991,-474.94 991,-480.94 985,-486.94 979,-486.94"/>
<text xml:space="preserve" text-anchor="middle" x="935.75" y="-466.57" font-family="Microsoft YaHei" font-size="10.00">OrderDetailMapper</text>
</g>
<!-- orderService&#45;&gt;detailMapper -->
<g id="edge17" class="edge">
<title>orderService&#45;&gt;detailMapper</title>
<path fill="none" stroke="#526173" d="M709.95,-578.61C721.31,-570.33 735.26,-560.73 748.5,-553.19 791.11,-528.92 841.98,-506.31 879.78,-490.63"/>
<polygon fill="#526173" stroke="#526173" points="880.31,-493.26 886.24,-487.97 878.31,-488.4 880.31,-493.26"/>
<text xml:space="preserve" text-anchor="middle" x="802.5" y="-557.39" font-family="Microsoft YaHei" font-size="9.00">insertBatch(orderDetails)</text>
</g>
<!-- addressMapper&#45;&gt;orderService -->
<g id="edge7" class="edge">
<title>addressMapper&#45;&gt;orderService</title>
<path fill="none" stroke="#526173" d="M1308.35,-153.65C1282.11,-150.51 1250.82,-149.68 1223.5,-156.94 988.4,-219.49 905.86,-243.42 748.5,-428.94 713.15,-470.62 696.89,-534.18 690.16,-569.98"/>
<polygon fill="#526173" stroke="#526173" points="687.65,-569.12 688.92,-576.97 692.82,-570.04 687.65,-569.12"/>
<text xml:space="preserve" text-anchor="middle" x="1068.25" y="-223.3" font-family="Microsoft YaHei" font-size="9.00">返回地址</text>
</g>
<!-- db -->
<g id="node10" class="node">
<title>db</title>
<path fill="#f8fafc" stroke="#506070" d="M1199.5,-445.67C1199.5,-447.48 1187.4,-448.94 1172.5,-448.94 1157.6,-448.94 1145.5,-447.48 1145.5,-445.67 1145.5,-445.67 1145.5,-416.22 1145.5,-416.22 1145.5,-414.41 1157.6,-412.94 1172.5,-412.94 1187.4,-412.94 1199.5,-414.41 1199.5,-416.22 1199.5,-416.22 1199.5,-445.67 1199.5,-445.67"/>
<path fill="none" stroke="#506070" d="M1199.5,-445.67C1199.5,-443.87 1187.4,-442.4 1172.5,-442.4 1157.6,-442.4 1145.5,-443.87 1145.5,-445.67"/>
<text xml:space="preserve" text-anchor="middle" x="1172.5" y="-428.57" font-family="Microsoft YaHei" font-size="10.00">MySQL</text>
</g>
<!-- addressMapper&#45;&gt;db -->
<g id="edge5" class="edge">
<title>addressMapper&#45;&gt;db</title>
<path fill="none" stroke="#526173" d="M1308.44,-163.17C1279.32,-165.36 1245.5,-173.17 1223.5,-195.19 1194.36,-224.36 1180.45,-348.36 1175.59,-403.88"/>
<polygon fill="#526173" stroke="#526173" points="1172.98,-403.59 1174.97,-411.29 1178.22,-404.03 1172.98,-403.59"/>
<text xml:space="preserve" text-anchor="middle" x="1252.75" y="-199.39" font-family="Microsoft YaHei" font-size="9.00">查询收货地址</text>
</g>
<!-- mapService&#45;&gt;orderService -->
<g id="edge9" class="edge">
<title>mapService&#45;&gt;orderService</title>
<path fill="none" stroke="#526173" d="M898.23,-768.16C857.83,-777.15 792.61,-784.56 748.5,-753.94 705.73,-724.26 692.22,-660.29 687.96,-623.83"/>
<polygon fill="#526173" stroke="#526173" points="690.61,-623.88 687.22,-616.69 685.38,-624.42 690.61,-623.88"/>
<text xml:space="preserve" text-anchor="middle" x="802.5" y="-780.21" font-family="Microsoft YaHei" font-size="9.00">距离结果</text>
</g>
<!-- cartMapper&#45;&gt;orderService -->
<g id="edge13" class="edge">
<title>cartMapper&#45;&gt;orderService</title>
<path fill="none" stroke="#526173" d="M1348.77,-630.16C1332.89,-646.57 1307.7,-670.42 1282,-685.94 1074.53,-811.24 943.57,-942.79 748.5,-798.94 693.19,-758.16 685.35,-669.02 685.13,-624.05"/>
<polygon fill="#526173" stroke="#526173" points="687.76,-624.18 685.18,-616.66 682.51,-624.15 687.76,-624.18"/>
<text xml:space="preserve" text-anchor="middle" x="1068.25" y="-844.65" font-family="Microsoft YaHei" font-size="9.00">返回列表</text>
</g>
<!-- cartMapper&#45;&gt;db -->
<g id="edge11" class="edge">
<title>cartMapper&#45;&gt;db</title>
<path fill="none" stroke="#526173" d="M1347.97,-593.72C1331.55,-577 1306,-551.93 1282,-532.19 1257.43,-511.99 1246.88,-512.52 1223.5,-490.94 1212.22,-480.54 1201.14,-467.6 1192.28,-456.41"/>
<polygon fill="#526173" stroke="#526173" points="1194.41,-454.86 1187.74,-450.54 1190.26,-458.08 1194.41,-454.86"/>
<text xml:space="preserve" text-anchor="middle" x="1252.75" y="-536.39" font-family="Microsoft YaHei" font-size="9.00">查询购物车</text>
</g>
<!-- cartMapper&#45;&gt;db -->
<g id="edge20" class="edge">
<title>cartMapper&#45;&gt;db</title>
<path fill="none" stroke="#526173" d="M1358.91,-593.75C1347.51,-564.68 1321.48,-507.63 1282,-474.19 1260.73,-456.18 1231.02,-445.05 1208.07,-438.59"/>
<polygon fill="#526173" stroke="#526173" points="1209.02,-436.13 1201.1,-436.73 1207.67,-441.2 1209.02,-436.13"/>
<text xml:space="preserve" text-anchor="middle" x="1252.75" y="-478.39" font-family="Microsoft YaHei" font-size="9.00">清空购物车</text>
</g>
<!-- orderMapper&#45;&gt;db -->
<g id="edge15" class="edge">
<title>orderMapper&#45;&gt;db</title>
<path fill="none" stroke="#526173" d="M1325.15,-375.65C1290.51,-388.29 1241.09,-406.3 1208.2,-418.29"/>
<polygon fill="#526173" stroke="#526173" points="1207.36,-415.8 1201.22,-420.84 1209.16,-420.74 1207.36,-415.8"/>
<text xml:space="preserve" text-anchor="middle" x="1252.75" y="-416.37" font-family="Microsoft YaHei" font-size="9.00">写入订单主表</text>
</g>
<!-- detailMapper&#45;&gt;db -->
<g id="edge18" class="edge">
<title>detailMapper&#45;&gt;db</title>
<path fill="none" stroke="#526173" d="M991.49,-460.08C1036.27,-452.83 1098.25,-442.8 1136.56,-436.6"/>
<polygon fill="#526173" stroke="#526173" points="1136.82,-439.22 1143.8,-435.43 1135.98,-434.04 1136.82,-439.22"/>
<text xml:space="preserve" text-anchor="middle" x="1068.25" y="-459.77" font-family="Microsoft YaHei" font-size="9.00">写入订单明细</text>
</g>
<!-- db&#45;&gt;addressMapper -->
<g id="edge6" class="edge">
<title>db&#45;&gt;addressMapper</title>
<path fill="none" stroke="#526173" d="M1181.15,-412.76C1190.07,-392.4 1205.85,-358.77 1223.5,-332.19 1259.7,-277.69 1311.26,-221.03 1341.26,-189.64"/>
<polygon fill="#526173" stroke="#526173" points="1342.97,-191.65 1346.27,-184.43 1339.18,-188.02 1342.97,-191.65"/>
<text xml:space="preserve" text-anchor="middle" x="1252.75" y="-336.39" font-family="Microsoft YaHei" font-size="9.00">AddressBook</text>
</g>
<!-- db&#45;&gt;cartMapper -->
<g id="edge12" class="edge">
<title>db&#45;&gt;cartMapper</title>
<path fill="none" stroke="#526173" d="M1176.86,-449.27C1182.41,-474.69 1195.73,-520.71 1223.5,-548.94 1243.63,-569.42 1271.59,-583.76 1297.37,-593.53"/>
<polygon fill="#526173" stroke="#526173" points="1296.28,-595.93 1304.23,-596.02 1298.08,-590.99 1296.28,-595.93"/>
<text xml:space="preserve" text-anchor="middle" x="1252.75" y="-590.22" font-family="Microsoft YaHei" font-size="9.00">购物车列表</text>
</g>
<!-- db&#45;&gt;orderMapper -->
<g id="edge16" class="edge">
<title>db&#45;&gt;orderMapper</title>
<path fill="none" stroke="#526173" d="M1182.82,-412.52C1191.28,-397.96 1205.21,-378.58 1223.5,-369.19 1251.97,-354.58 1288.01,-352.65 1316.65,-354.31"/>
<polygon fill="#526173" stroke="#526173" points="1316.11,-356.9 1323.78,-354.82 1316.48,-351.66 1316.11,-356.9"/>
<text xml:space="preserve" text-anchor="middle" x="1252.75" y="-373.39" font-family="Microsoft YaHei" font-size="9.00">订单ID</text>
</g>
</g>
</svg>
