<?xml version="1.0" encoding="UTF-8" standalone="no"?>
<!DOCTYPE svg PUBLIC "-//W3C//DTD SVG 1.1//EN"
 "http://www.w3.org/Graphics/SVG/1.1/DTD/svg11.dtd">
<!-- Generated by graphviz version 15.0.0 (20260523.1842)
 -->
<!-- Title: Architecture Pages: 1 -->
<svg width="892pt" height="847pt"
 viewBox="0.00 0.00 892.00 847.00" xmlns="http://www.w3.org/2000/svg" xmlns:xlink="http://www.w3.org/1999/xlink">
<g id="graph0" class="graph" transform="scale(1 1) rotate(0) translate(4 842.5)">
<title>Architecture</title>
<polygon fill="white" stroke="none" points="-4,4 -4,-842.5 888,-842.5 888,4 -4,4"/>
<text xml:space="preserve" text-anchor="middle" x="442" y="-821.2" font-family="Microsoft YaHei" font-size="14.00">系统总体架构图</text>
<g id="clust1" class="cluster">
<title>cluster_client</title>
<path fill="white" stroke="#aab7c4" d="M478,-723C478,-723 864,-723 864,-723 870,-723 876,-729 876,-735 876,-735 876,-791.75 876,-791.75 876,-797.75 870,-803.75 864,-803.75 864,-803.75 478,-803.75 478,-803.75 472,-803.75 466,-797.75 466,-791.75 466,-791.75 466,-735 466,-735 466,-729 472,-723 478,-723"/>
<text xml:space="preserve" text-anchor="middle" x="671" y="-786.45" font-family="Microsoft YaHei" font-size="14.00">表现层</text>
</g>
<g id="clust2" class="cluster">
<title>cluster_server</title>
<path fill="white" stroke="#aab7c4" d="M402,-131C402,-131 688,-131 688,-131 694,-131 700,-137 700,-143 700,-143 700,-518.5 700,-518.5 700,-524.5 694,-530.5 688,-530.5 688,-530.5 402,-530.5 402,-530.5 396,-530.5 390,-524.5 390,-518.5 390,-518.5 390,-143 390,-143 390,-137 396,-131 402,-131"/>
<text xml:space="preserve" text-anchor="middle" x="545" y="-513.2" font-family="Microsoft YaHei" font-size="14.00">应用服务层（Spring Boot）</text>
</g>
<g id="clust3" class="cluster">
<title>cluster_data</title>
<path fill="white" stroke="#aab7c4" d="M20,-8C20,-8 595,-8 595,-8 601,-8 607,-14 607,-20 607,-20 607,-91 607,-91 607,-97 601,-103 595,-103 595,-103 20,-103 20,-103 14,-103 8,-97 8,-91 8,-91 8,-20 8,-20 8,-14 14,-8 20,-8"/>
<text xml:space="preserve" text-anchor="middle" x="307.5" y="-85.7" font-family="Microsoft YaHei" font-size="14.00">数据与外部服务</text>
</g>
<!-- adminVue -->
<g id="node1" class="node">
<title>adminVue</title>
<path fill="#f8fafc" stroke="#506070" d="M635.75,-769C635.75,-769 486.25,-769 486.25,-769 480.25,-769 474.25,-763 474.25,-757 474.25,-757 474.25,-743 474.25,-743 474.25,-737 480.25,-731 486.25,-731 486.25,-731 635.75,-731 635.75,-731 641.75,-731 647.75,-737 647.75,-743 647.75,-743 647.75,-757 647.75,-757 647.75,-763 641.75,-769 635.75,-769"/>
<text xml:space="preserve" text-anchor="middle" x="561" y="-754.55" font-family="Microsoft YaHei" font-size="11.00">Vue 管理端</text>
<text xml:space="preserve" text-anchor="middle" x="561" y="-739.55" font-family="Microsoft YaHei" font-size="11.00">员工/分类/菜品/套餐/订单/报表</text>
</g>
<!-- nginx -->
<g id="node3" class="node">
<title>nginx</title>
<path fill="#fff2cc" stroke="#506070" d="M717.12,-662.75C717.12,-662.75 620.88,-662.75 620.88,-662.75 614.88,-662.75 608.88,-656.75 608.88,-650.75 608.88,-650.75 608.88,-591.75 608.88,-591.75 608.88,-585.75 614.88,-579.75 620.88,-579.75 620.88,-579.75 717.12,-579.75 717.12,-579.75 723.12,-579.75 729.12,-585.75 729.12,-591.75 729.12,-591.75 729.12,-650.75 729.12,-650.75 729.12,-656.75 723.12,-662.75 717.12,-662.75"/>
<text xml:space="preserve" text-anchor="middle" x="669" y="-648.3" font-family="Microsoft YaHei" font-size="11.00">Nginx</text>
<text xml:space="preserve" text-anchor="middle" x="669" y="-633.3" font-family="Microsoft YaHei" font-size="11.00">静态资源 + 反向代理</text>
<text xml:space="preserve" text-anchor="middle" x="669" y="-618.3" font-family="Microsoft YaHei" font-size="11.00">/api &#45;&gt; /admin</text>
<text xml:space="preserve" text-anchor="middle" x="669" y="-603.3" font-family="Microsoft YaHei" font-size="11.00">/user &#45;&gt; /user</text>
<text xml:space="preserve" text-anchor="middle" x="669" y="-588.3" font-family="Microsoft YaHei" font-size="11.00">/ws &#45;&gt; WebSocket</text>
</g>
<!-- adminVue&#45;&gt;nginx -->
<g id="edge1" class="edge">
<title>adminVue&#45;&gt;nginx</title>
<path fill="none" stroke="#526173" d="M576.7,-730.57C590.16,-714.78 610.15,-691.32 628.09,-670.26"/>
<polygon fill="#526173" stroke="#526173" points="630.05,-672.28 633.1,-664.38 625.78,-668.65 630.05,-672.28"/>
<text xml:space="preserve" text-anchor="middle" x="653.16" y="-694.5" font-family="Microsoft YaHei" font-size="10.00">HTTP / WebSocket</text>
</g>
<!-- miniProgram -->
<g id="node2" class="node">
<title>miniProgram</title>
<path fill="#f8fafc" stroke="#506070" d="M856.12,-769C856.12,-769 699.88,-769 699.88,-769 693.88,-769 687.88,-763 687.88,-757 687.88,-757 687.88,-743 687.88,-743 687.88,-737 693.88,-731 699.88,-731 699.88,-731 856.12,-731 856.12,-731 862.12,-731 868.12,-737 868.12,-743 868.12,-743 868.12,-757 868.12,-757 868.12,-763 862.12,-769 856.12,-769"/>
<text xml:space="preserve" text-anchor="middle" x="778" y="-754.55" font-family="Microsoft YaHei" font-size="11.00">微信小程序</text>
<text xml:space="preserve" text-anchor="middle" x="778" y="-739.55" font-family="Microsoft YaHei" font-size="11.00">浏览/购物车/下单/支付/历史订单</text>
</g>
<!-- miniProgram&#45;&gt;nginx -->
<g id="edge2" class="edge">
<title>miniProgram&#45;&gt;nginx</title>
<path fill="none" stroke="#526173" d="M762.15,-730.57C748.57,-714.78 728.39,-691.32 710.29,-670.26"/>
<polygon fill="#526173" stroke="#526173" points="712.56,-668.61 705.23,-664.37 708.32,-672.27 712.56,-668.61"/>
<text xml:space="preserve" text-anchor="middle" x="749.22" y="-694.5" font-family="Microsoft YaHei" font-size="10.00">HTTP</text>
</g>
<!-- controller -->
<g id="node4" class="node">
<title>controller</title>
<path fill="#f8fafc" stroke="#506070" d="M609.25,-495.75C609.25,-495.75 522.75,-495.75 522.75,-495.75 516.75,-495.75 510.75,-489.75 510.75,-483.75 510.75,-483.75 510.75,-469.75 510.75,-469.75 510.75,-463.75 516.75,-457.75 522.75,-457.75 522.75,-457.75 609.25,-457.75 609.25,-457.75 615.25,-457.75 621.25,-463.75 621.25,-469.75 621.25,-469.75 621.25,-483.75 621.25,-483.75 621.25,-489.75 615.25,-495.75 609.25,-495.75"/>
<text xml:space="preserve" text-anchor="middle" x="566" y="-481.3" font-family="Microsoft YaHei" font-size="11.00">Controller</text>
<text xml:space="preserve" text-anchor="middle" x="566" y="-466.3" font-family="Microsoft YaHei" font-size="11.00">admin/user/notify</text>
</g>
<!-- nginx&#45;&gt;controller -->
<g id="edge3" class="edge">
<title>nginx&#45;&gt;controller</title>
<path fill="none" stroke="#526173" d="M639.48,-579.42C621.88,-555.06 600.05,-524.86 584.78,-503.73"/>
<polygon fill="#526173" stroke="#526173" points="587.11,-502.18 580.16,-497.34 582.57,-505.46 587.11,-502.18"/>
<text xml:space="preserve" text-anchor="middle" x="637" y="-543.25" font-family="Microsoft YaHei" font-size="10.00">反向代理</text>
</g>
<!-- websocket -->
<g id="node8" class="node">
<title>websocket</title>
<path fill="#f8fafc" stroke="#506070" d="M679.62,-177C679.62,-177 604.38,-177 604.38,-177 598.38,-177 592.38,-171 592.38,-165 592.38,-165 592.38,-151 592.38,-151 592.38,-145 598.38,-139 604.38,-139 604.38,-139 679.62,-139 679.62,-139 685.62,-139 691.62,-145 691.62,-151 691.62,-151 691.62,-165 691.62,-165 691.62,-171 685.62,-177 679.62,-177"/>
<text xml:space="preserve" text-anchor="middle" x="642" y="-162.55" font-family="Microsoft YaHei" font-size="11.00">WebSocket</text>
<text xml:space="preserve" text-anchor="middle" x="642" y="-147.55" font-family="Microsoft YaHei" font-size="11.00">新订单/催单提醒</text>
</g>
<!-- nginx&#45;&gt;websocket -->
<g id="edge4" class="edge">
<title>nginx&#45;&gt;websocket</title>
<path fill="none" stroke="#526173" d="M719.29,-579.51C745.44,-553.56 772,-517.43 772,-477.75 772,-477.75 772,-477.75 772,-263.25 772,-223.61 734.76,-196.54 700.14,-179.94"/>
<polygon fill="#526173" stroke="#526173" points="701.7,-177.57 693.26,-176.78 699.37,-182.66 701.7,-177.57"/>
<text xml:space="preserve" text-anchor="middle" x="780.62" y="-368.12" font-family="Microsoft YaHei" font-size="10.00">/ws</text>
</g>
<!-- interceptor -->
<g id="node5" class="node">
<title>interceptor</title>
<path fill="#f8fafc" stroke="#506070" d="M578.12,-389.5C578.12,-389.5 409.88,-389.5 409.88,-389.5 403.88,-389.5 397.88,-383.5 397.88,-377.5 397.88,-377.5 397.88,-363.5 397.88,-363.5 397.88,-357.5 403.88,-351.5 409.88,-351.5 409.88,-351.5 578.12,-351.5 578.12,-351.5 584.12,-351.5 590.12,-357.5 590.12,-363.5 590.12,-363.5 590.12,-377.5 590.12,-377.5 590.12,-383.5 584.12,-389.5 578.12,-389.5"/>
<text xml:space="preserve" text-anchor="middle" x="494" y="-375.05" font-family="Microsoft YaHei" font-size="11.00">JWT 拦截器</text>
<text xml:space="preserve" text-anchor="middle" x="494" y="-360.05" font-family="Microsoft YaHei" font-size="11.00">管理端 token / 用户 authentication</text>
</g>
<!-- controller&#45;&gt;interceptor -->
<g id="edge5" class="edge">
<title>controller&#45;&gt;interceptor</title>
<path fill="none" stroke="#526173" d="M553.46,-457.59C541.97,-440.95 524.82,-416.13 511.89,-397.41"/>
<polygon fill="#526173" stroke="#526173" points="514.35,-396.04 507.5,-391.05 509.74,-399.22 514.35,-396.04"/>
<text xml:space="preserve" text-anchor="middle" x="544.06" y="-421.25" font-family="Microsoft YaHei" font-size="10.00">鉴权</text>
</g>
<!-- service -->
<g id="node6" class="node">
<title>service</title>
<path fill="#f8fafc" stroke="#506070" d="M562.75,-283.25C562.75,-283.25 413.25,-283.25 413.25,-283.25 407.25,-283.25 401.25,-277.25 401.25,-271.25 401.25,-271.25 401.25,-257.25 401.25,-257.25 401.25,-251.25 407.25,-245.25 413.25,-245.25 413.25,-245.25 562.75,-245.25 562.75,-245.25 568.75,-245.25 574.75,-251.25 574.75,-257.25 574.75,-257.25 574.75,-271.25 574.75,-271.25 574.75,-277.25 568.75,-283.25 562.75,-283.25"/>
<text xml:space="preserve" text-anchor="middle" x="488" y="-268.8" font-family="Microsoft YaHei" font-size="11.00">Service</text>
<text xml:space="preserve" text-anchor="middle" x="488" y="-253.8" font-family="Microsoft YaHei" font-size="11.00">业务规则、状态流转、事务边界</text>
</g>
<!-- interceptor&#45;&gt;service -->
<g id="edge6" class="edge">
<title>interceptor&#45;&gt;service</title>
<path fill="none" stroke="#526173" d="M492.95,-351.34C492.03,-335.22 490.66,-311.42 489.59,-292.93"/>
<polygon fill="#526173" stroke="#526173" points="492.4,-292.89 489.14,-285.06 486.8,-293.21 492.4,-292.89"/>
<text xml:space="preserve" text-anchor="middle" x="510.86" y="-315" font-family="Microsoft YaHei" font-size="10.00">放行请求</text>
</g>
<!-- mapper -->
<g id="node7" class="node">
<title>mapper</title>
<path fill="#f8fafc" stroke="#506070" d="M540.62,-177C540.62,-177 459.38,-177 459.38,-177 453.38,-177 447.38,-171 447.38,-165 447.38,-165 447.38,-151 447.38,-151 447.38,-145 453.38,-139 459.38,-139 459.38,-139 540.62,-139 540.62,-139 546.62,-139 552.62,-145 552.62,-151 552.62,-151 552.62,-165 552.62,-165 552.62,-171 546.62,-177 540.62,-177"/>
<text xml:space="preserve" text-anchor="middle" x="500" y="-162.55" font-family="Microsoft YaHei" font-size="11.00">Mapper + XML</text>
<text xml:space="preserve" text-anchor="middle" x="500" y="-147.55" font-family="Microsoft YaHei" font-size="11.00">MyBatis 数据访问</text>
</g>
<!-- service&#45;&gt;mapper -->
<g id="edge7" class="edge">
<title>service&#45;&gt;mapper</title>
<path fill="none" stroke="#526173" d="M490.09,-245.09C491.95,-228.97 494.69,-205.17 496.81,-186.68"/>
<polygon fill="#526173" stroke="#526173" points="499.59,-187.07 497.72,-178.8 494.02,-186.43 499.59,-187.07"/>
</g>
<!-- service&#45;&gt;websocket -->
<g id="edge13" class="edge">
<title>service&#45;&gt;websocket</title>
<path fill="none" stroke="#526173" d="M515.18,-244.85C540.83,-227.49 579.41,-201.37 607.28,-182.5"/>
<polygon fill="#526173" stroke="#526173" points="608.53,-185.04 613.58,-178.24 605.39,-180.4 608.53,-185.04"/>
<text xml:space="preserve" text-anchor="middle" x="603.47" y="-208.75" font-family="Microsoft YaHei" font-size="10.00">业务事件推送</text>
</g>
<!-- redis -->
<g id="node11" class="node">
<title>redis</title>
<path fill="#f8fafc" stroke="#506070" d="M104,-63.5C104,-66.12 84.28,-68.25 60,-68.25 35.72,-68.25 16,-66.12 16,-63.5 16,-63.5 16,-20.75 16,-20.75 16,-18.13 35.72,-16 60,-16 84.28,-16 104,-18.13 104,-20.75 104,-20.75 104,-63.5 104,-63.5"/>
<path fill="none" stroke="#506070" d="M104,-63.5C104,-60.88 84.28,-58.75 60,-58.75 35.72,-58.75 16,-60.88 16,-63.5"/>
<text xml:space="preserve" text-anchor="middle" x="60" y="-46.67" font-family="Microsoft YaHei" font-size="11.00">Redis</text>
<text xml:space="preserve" text-anchor="middle" x="60" y="-31.68" font-family="Microsoft YaHei" font-size="11.00">缓存/营业状态</text>
</g>
<!-- service&#45;&gt;redis -->
<g id="edge9" class="edge">
<title>service&#45;&gt;redis</title>
<path fill="none" stroke="#526173" d="M423.91,-244.77C347.4,-220.61 218.02,-172.98 124,-103 112.79,-94.66 101.39,-84.6 91.38,-75.13"/>
<polygon fill="#526173" stroke="#526173" points="93.49,-73.27 85.78,-69.74 89.6,-77.3 93.49,-73.27"/>
</g>
<!-- oss -->
<g id="node12" class="node">
<title>oss</title>
<path fill="#f8fafc" stroke="#506070" d="M193.5,-61.12C193.5,-61.12 156.5,-61.12 156.5,-61.12 150.5,-61.12 144.5,-55.12 144.5,-49.12 144.5,-49.12 144.5,-35.12 144.5,-35.12 144.5,-29.12 150.5,-23.12 156.5,-23.12 156.5,-23.12 193.5,-23.12 193.5,-23.12 199.5,-23.12 205.5,-29.12 205.5,-35.12 205.5,-35.12 205.5,-49.12 205.5,-49.12 205.5,-55.12 199.5,-61.12 193.5,-61.12"/>
<text xml:space="preserve" text-anchor="middle" x="175" y="-46.67" font-family="Microsoft YaHei" font-size="11.00">Ali OSS</text>
<text xml:space="preserve" text-anchor="middle" x="175" y="-31.68" font-family="Microsoft YaHei" font-size="11.00">图片文件</text>
</g>
<!-- service&#45;&gt;oss -->
<g id="edge10" class="edge">
<title>service&#45;&gt;oss</title>
<path fill="none" stroke="#526173" d="M449.15,-244.89C395.3,-218.3 296.52,-165.39 225,-103 213.47,-92.95 202.39,-80.11 193.59,-68.9"/>
<polygon fill="#526173" stroke="#526173" points="195.9,-67.31 188.82,-62.66 191.46,-70.72 195.9,-67.31"/>
</g>
<!-- wxpay -->
<g id="node13" class="node">
<title>wxpay</title>
<path fill="#f8fafc" stroke="#506070" d="M350.62,-61.12C350.62,-61.12 257.38,-61.12 257.38,-61.12 251.38,-61.12 245.38,-55.12 245.38,-49.12 245.38,-49.12 245.38,-35.12 245.38,-35.12 245.38,-29.12 251.38,-23.12 257.38,-23.12 257.38,-23.12 350.62,-23.12 350.62,-23.12 356.62,-23.12 362.62,-29.12 362.62,-35.12 362.62,-35.12 362.62,-49.12 362.62,-49.12 362.62,-55.12 356.62,-61.12 350.62,-61.12"/>
<text xml:space="preserve" text-anchor="middle" x="304" y="-46.67" font-family="Microsoft YaHei" font-size="11.00">微信登录/支付</text>
<text xml:space="preserve" text-anchor="middle" x="304" y="-31.68" font-family="Microsoft YaHei" font-size="11.00">当前支付为模拟实现</text>
</g>
<!-- service&#45;&gt;wxpay -->
<g id="edge11" class="edge">
<title>service&#45;&gt;wxpay</title>
<path fill="none" stroke="#526173" d="M460.96,-244.8C450.72,-237.18 439.29,-227.88 430,-218.25 384.14,-170.7 341.67,-105.55 319.68,-69.62"/>
<polygon fill="#526173" stroke="#526173" points="322.12,-68.25 315.58,-62.86 317.34,-71.15 322.12,-68.25"/>
</g>
<!-- baidu -->
<g id="node14" class="node">
<title>baidu</title>
<path fill="#f8fafc" stroke="#506070" d="M473.75,-61.12C473.75,-61.12 414.25,-61.12 414.25,-61.12 408.25,-61.12 402.25,-55.12 402.25,-49.12 402.25,-49.12 402.25,-35.12 402.25,-35.12 402.25,-29.12 408.25,-23.12 414.25,-23.12 414.25,-23.12 473.75,-23.12 473.75,-23.12 479.75,-23.12 485.75,-29.12 485.75,-35.12 485.75,-35.12 485.75,-49.12 485.75,-49.12 485.75,-55.12 479.75,-61.12 473.75,-61.12"/>
<text xml:space="preserve" text-anchor="middle" x="444" y="-46.67" font-family="Microsoft YaHei" font-size="11.00">百度地图</text>
<text xml:space="preserve" text-anchor="middle" x="444" y="-31.68" font-family="Microsoft YaHei" font-size="11.00">配送范围校验</text>
</g>
<!-- service&#45;&gt;baidu -->
<g id="edge12" class="edge">
<title>service&#45;&gt;baidu</title>
<path fill="none" stroke="#526173" d="M469.87,-244.94C455.11,-228.66 435.39,-203.39 427,-177 415.63,-141.25 425.14,-97.85 433.85,-70.35"/>
<polygon fill="#526173" stroke="#526173" points="436.51,-71.24 436.38,-62.76 431.19,-69.46 436.51,-71.24"/>
</g>
<!-- mysql -->
<g id="node10" class="node">
<title>mysql</title>
<path fill="#f8fafc" stroke="#506070" d="M598.5,-63.5C598.5,-66.12 582.14,-68.25 562,-68.25 541.86,-68.25 525.5,-66.12 525.5,-63.5 525.5,-63.5 525.5,-20.75 525.5,-20.75 525.5,-18.13 541.86,-16 562,-16 582.14,-16 598.5,-18.13 598.5,-20.75 598.5,-20.75 598.5,-63.5 598.5,-63.5"/>
<path fill="none" stroke="#506070" d="M598.5,-63.5C598.5,-60.88 582.14,-58.75 562,-58.75 541.86,-58.75 525.5,-60.88 525.5,-63.5"/>
<text xml:space="preserve" text-anchor="middle" x="562" y="-46.67" font-family="Microsoft YaHei" font-size="11.00">MySQL 8.0</text>
<text xml:space="preserve" text-anchor="middle" x="562" y="-31.68" font-family="Microsoft YaHei" font-size="11.00">业务数据</text>
</g>
<!-- mapper&#45;&gt;mysql -->
<g id="edge8" class="edge">
<title>mapper&#45;&gt;mysql</title>
<path fill="none" stroke="#526173" d="M509.96,-138.7C519.01,-122.09 532.58,-97.17 543.59,-76.94"/>
<polygon fill="#526173" stroke="#526173" points="546.05,-78.28 547.41,-69.92 541.13,-75.61 546.05,-78.28"/>
</g>
<!-- task -->
<g id="node9" class="node">
<title>task</title>
<path fill="#f8fafc" stroke="#506070" d="M679.5,-389.5C679.5,-389.5 642.5,-389.5 642.5,-389.5 636.5,-389.5 630.5,-383.5 630.5,-377.5 630.5,-377.5 630.5,-363.5 630.5,-363.5 630.5,-357.5 636.5,-351.5 642.5,-351.5 642.5,-351.5 679.5,-351.5 679.5,-351.5 685.5,-351.5 691.5,-357.5 691.5,-363.5 691.5,-363.5 691.5,-377.5 691.5,-377.5 691.5,-383.5 685.5,-389.5 679.5,-389.5"/>
<text xml:space="preserve" text-anchor="middle" x="661" y="-375.05" font-family="Microsoft YaHei" font-size="11.00">Task</text>
<text xml:space="preserve" text-anchor="middle" x="661" y="-360.05" font-family="Microsoft YaHei" font-size="11.00">定时任务</text>
</g>
<!-- task&#45;&gt;service -->
<g id="edge14" class="edge">
<title>task&#45;&gt;service</title>
<path fill="none" stroke="#526173" d="M630.47,-351.1C601.53,-333.66 557.94,-307.4 526.6,-288.51"/>
<polygon fill="#526173" stroke="#526173" points="528.11,-286.15 519.81,-284.42 525.22,-290.95 528.11,-286.15"/>
</g>
</g>
</svg>
