<?xml version="1.0" encoding="UTF-8" standalone="no"?>
<!DOCTYPE svg PUBLIC "-//W3C//DTD SVG 1.1//EN"
 "http://www.w3.org/Graphics/SVG/1.1/DTD/svg11.dtd">
<!-- Generated by graphviz version 15.0.0 (20260523.1842)
 -->
<!-- Title: DatabaseClass Pages: 1 -->
<svg width="848pt" height="928pt"
 viewBox="0.00 0.00 848.00 928.00" xmlns="http://www.w3.org/2000/svg" xmlns:xlink="http://www.w3.org/1999/xlink">
<g id="graph0" class="graph" transform="scale(1 1) rotate(0) translate(4 923.5)">
<title>DatabaseClass</title>
<polygon fill="white" stroke="none" points="-4,4 -4,-923.5 843.75,-923.5 843.75,4 -4,4"/>
<text xml:space="preserve" text-anchor="middle" x="419.88" y="-902.2" font-family="Microsoft YaHei" font-size="14.00">数据库类图 / 核心实体关系图</text>
<!-- Employee -->
<g id="node1" class="node">
<title>Employee</title>
<polygon fill="#e8f3ff" stroke="none" points="1,-422.5 1,-448.75 134.5,-448.75 134.5,-422.5 1,-422.5"/>
<text xml:space="preserve" text-anchor="start" x="31.38" y="-434.25" font-family="Microsoft YaHei" font-weight="bold" font-size="10.00">employee 员工</text>
<text xml:space="preserve" text-anchor="start" x="7" y="-405.25" font-family="Microsoft YaHei" font-size="10.00">id: bigint PK</text>
<text xml:space="preserve" text-anchor="start" x="7" y="-379" font-family="Microsoft YaHei" font-size="10.00">username: varchar</text>
<text xml:space="preserve" text-anchor="start" x="7" y="-352.75" font-family="Microsoft YaHei" font-size="10.00">name: varchar</text>
<text xml:space="preserve" text-anchor="start" x="7" y="-326.5" font-family="Microsoft YaHei" font-size="10.00">password: varchar</text>
<text xml:space="preserve" text-anchor="start" x="7" y="-300.25" font-family="Microsoft YaHei" font-size="10.00">phone, sex, id_number</text>
<text xml:space="preserve" text-anchor="start" x="7" y="-274" font-family="Microsoft YaHei" font-size="10.00">status: int</text>
<text xml:space="preserve" text-anchor="start" x="7" y="-247.75" font-family="Microsoft YaHei" font-size="10.00">create_time, update_time</text>
<text xml:space="preserve" text-anchor="start" x="7" y="-221.5" font-family="Microsoft YaHei" font-size="10.00">create_user, update_user</text>
<polygon fill="none" stroke="black" points="0,-211.5 0,-449.75 135.5,-449.75 135.5,-211.5 0,-211.5"/>
</g>
<!-- Category -->
<g id="node2" class="node">
<title>Category</title>
<polygon fill="#e8f3ff" stroke="none" points="234.25,-383.12 234.25,-409.38 367.75,-409.38 367.75,-383.12 234.25,-383.12"/>
<text xml:space="preserve" text-anchor="start" x="267.25" y="-394.88" font-family="Microsoft YaHei" font-weight="bold" font-size="10.00">category 分类</text>
<text xml:space="preserve" text-anchor="start" x="240.25" y="-365.88" font-family="Microsoft YaHei" font-size="10.00">id: bigint PK</text>
<text xml:space="preserve" text-anchor="start" x="240.25" y="-339.62" font-family="Microsoft YaHei" font-size="10.00">type: 1菜品/2套餐</text>
<text xml:space="preserve" text-anchor="start" x="240.25" y="-313.38" font-family="Microsoft YaHei" font-size="10.00">name, sort, status</text>
<text xml:space="preserve" text-anchor="start" x="240.25" y="-287.12" font-family="Microsoft YaHei" font-size="10.00">create_time, update_time</text>
<text xml:space="preserve" text-anchor="start" x="240.25" y="-260.88" font-family="Microsoft YaHei" font-size="10.00">create_user, update_user</text>
<polygon fill="none" stroke="black" points="233.25,-250.88 233.25,-410.38 368.75,-410.38 368.75,-250.88 233.25,-250.88"/>
</g>
<!-- Employee&#45;&gt;Category -->
<g id="edge15" class="edge">
<title>Employee&#45;&gt;Category</title>
<path fill="none" stroke="#526173" stroke-dasharray="5,2" d="M135.33,-330.62C163.14,-330.62 195.6,-330.62 224.31,-330.62"/>
<polygon fill="#526173" stroke="#526173" points="223.98,-333.43 231.98,-330.63 223.98,-327.83 223.98,-333.43"/>
<text xml:space="preserve" text-anchor="middle" x="184.38" y="-334.82" font-family="Microsoft YaHei" font-size="9.00">创建/更新</text>
</g>
<!-- Dish -->
<g id="node3" class="node">
<title>Dish</title>
<polygon fill="#fff2cc" stroke="none" points="468.62,-305.25 468.62,-331.5 602.12,-331.5 602.12,-305.25 468.62,-305.25"/>
<text xml:space="preserve" text-anchor="start" x="513.25" y="-317" font-family="Microsoft YaHei" font-weight="bold" font-size="10.00">dish 菜品</text>
<text xml:space="preserve" text-anchor="start" x="474.62" y="-288" font-family="Microsoft YaHei" font-size="10.00">id: bigint PK</text>
<text xml:space="preserve" text-anchor="start" x="474.62" y="-261.75" font-family="Microsoft YaHei" font-size="10.00">category_id: bigint FK</text>
<text xml:space="preserve" text-anchor="start" x="474.62" y="-235.5" font-family="Microsoft YaHei" font-size="10.00">name, price, image</text>
<text xml:space="preserve" text-anchor="start" x="474.62" y="-209.25" font-family="Microsoft YaHei" font-size="10.00">description, status</text>
<text xml:space="preserve" text-anchor="start" x="474.62" y="-183" font-family="Microsoft YaHei" font-size="10.00">create_time, update_time</text>
<text xml:space="preserve" text-anchor="start" x="474.62" y="-156.75" font-family="Microsoft YaHei" font-size="10.00">create_user, update_user</text>
<polygon fill="none" stroke="black" points="467.62,-146.75 467.62,-332.5 603.12,-332.5 603.12,-146.75 467.62,-146.75"/>
</g>
<!-- Employee&#45;&gt;Dish -->
<g id="edge16" class="edge">
<title>Employee&#45;&gt;Dish</title>
<path fill="none" stroke="#526173" stroke-dasharray="5,2" d="M135.49,-271.34C163.64,-250.13 198.03,-228.79 233.25,-217.88 307.57,-194.85 396.96,-205.84 458.94,-219.14"/>
<polygon fill="#526173" stroke="#526173" points="457.99,-221.8 466.4,-220.79 459.2,-216.33 457.99,-221.8"/>
<text xml:space="preserve" text-anchor="middle" x="301" y="-222.07" font-family="Microsoft YaHei" font-size="9.00">创建/更新</text>
</g>
<!-- Setmeal -->
<g id="node5" class="node">
<title>Setmeal</title>
<polygon fill="#fff2cc" stroke="none" points="468.62,-505.12 468.62,-531.38 602.12,-531.38 602.12,-505.12 468.62,-505.12"/>
<text xml:space="preserve" text-anchor="start" x="503.88" y="-516.88" font-family="Microsoft YaHei" font-weight="bold" font-size="10.00">setmeal 套餐</text>
<text xml:space="preserve" text-anchor="start" x="474.62" y="-487.88" font-family="Microsoft YaHei" font-size="10.00">id: bigint PK</text>
<text xml:space="preserve" text-anchor="start" x="474.62" y="-461.62" font-family="Microsoft YaHei" font-size="10.00">category_id: bigint FK</text>
<text xml:space="preserve" text-anchor="start" x="474.62" y="-435.38" font-family="Microsoft YaHei" font-size="10.00">name, price, status</text>
<text xml:space="preserve" text-anchor="start" x="474.62" y="-409.12" font-family="Microsoft YaHei" font-size="10.00">description, image</text>
<text xml:space="preserve" text-anchor="start" x="474.62" y="-382.88" font-family="Microsoft YaHei" font-size="10.00">create_time, update_time</text>
<polygon fill="none" stroke="black" points="467.62,-372.88 467.62,-532.38 603.12,-532.38 603.12,-372.88 467.62,-372.88"/>
</g>
<!-- Employee&#45;&gt;Setmeal -->
<g id="edge17" class="edge">
<title>Employee&#45;&gt;Setmeal</title>
<path fill="none" stroke="#526173" stroke-dasharray="5,2" d="M135.25,-380.96C163.9,-399.93 198.71,-419.58 233.25,-430.62 307.21,-454.28 396.41,-457.93 458.45,-456.8"/>
<polygon fill="#526173" stroke="#526173" points="458.33,-459.6 466.27,-456.62 458.21,-454 458.33,-459.6"/>
<text xml:space="preserve" text-anchor="middle" x="301" y="-458.7" font-family="Microsoft YaHei" font-size="9.00">创建/更新</text>
</g>
<!-- Category&#45;&gt;Dish -->
<g id="edge1" class="edge">
<title>Category&#45;&gt;Dish</title>
<path fill="none" stroke="#526173" d="M368.59,-304.55C396.91,-293.46 430.07,-280.47 459.26,-269.04"/>
<polygon fill="#526173" stroke="#526173" points="459.94,-271.78 466.37,-266.26 457.9,-266.57 459.94,-271.78"/>
<text xml:space="preserve" text-anchor="middle" x="410.88" y="-294.77" font-family="Microsoft YaHei" font-size="9.00">1 对多</text>
</g>
<!-- Category&#45;&gt;Setmeal -->
<g id="edge2" class="edge">
<title>Category&#45;&gt;Setmeal</title>
<path fill="none" stroke="#526173" d="M368.59,-365.59C397.03,-380.52 430.35,-398.01 459.63,-413.38"/>
<polygon fill="#526173" stroke="#526173" points="458.05,-415.72 466.44,-416.96 460.65,-410.76 458.05,-415.72"/>
<text xml:space="preserve" text-anchor="middle" x="410.88" y="-395.82" font-family="Microsoft YaHei" font-size="9.00">1 对多</text>
</g>
<!-- DishFlavor -->
<g id="node4" class="node">
<title>DishFlavor</title>
<polygon fill="#fff2cc" stroke="none" points="720.62,-106 720.62,-132.25 830.88,-132.25 830.88,-106 720.62,-106"/>
<text xml:space="preserve" text-anchor="start" x="726.62" y="-117.75" font-family="Microsoft YaHei" font-weight="bold" font-size="10.00">dish_flavor 菜品口味</text>
<text xml:space="preserve" text-anchor="start" x="726.62" y="-88.75" font-family="Microsoft YaHei" font-size="10.00">id: bigint PK</text>
<text xml:space="preserve" text-anchor="start" x="726.62" y="-62.5" font-family="Microsoft YaHei" font-size="10.00">dish_id: bigint FK</text>
<text xml:space="preserve" text-anchor="start" x="726.62" y="-36.25" font-family="Microsoft YaHei" font-size="10.00">name: varchar</text>
<text xml:space="preserve" text-anchor="start" x="726.62" y="-10" font-family="Microsoft YaHei" font-size="10.00">value: varchar/json</text>
<polygon fill="none" stroke="black" points="719.62,0 719.62,-133.25 831.88,-133.25 831.88,0 719.62,0"/>
</g>
<!-- Dish&#45;&gt;DishFlavor -->
<g id="edge3" class="edge">
<title>Dish&#45;&gt;DishFlavor</title>
<path fill="none" stroke="#526173" d="M603.09,-191.2C637.28,-166.39 678.67,-136.36 712.24,-111.99"/>
<polygon fill="#526173" stroke="#526173" points="713.66,-114.42 718.49,-107.46 710.37,-109.89 713.66,-114.42"/>
<text xml:space="preserve" text-anchor="middle" x="664.75" y="-162.51" font-family="Microsoft YaHei" font-size="9.00">1 对多</text>
</g>
<!-- SetmealDish -->
<g id="node6" class="node">
<title>SetmealDish</title>
<polygon fill="#fff2cc" stroke="none" points="715.38,-279 715.38,-305.25 836.12,-305.25 836.12,-279 715.38,-279"/>
<text xml:space="preserve" text-anchor="start" x="721.38" y="-290.75" font-family="Microsoft YaHei" font-weight="bold" font-size="10.00">setmeal_dish 套餐菜品</text>
<text xml:space="preserve" text-anchor="start" x="721.38" y="-261.75" font-family="Microsoft YaHei" font-size="10.00">id: bigint PK</text>
<text xml:space="preserve" text-anchor="start" x="721.38" y="-235.5" font-family="Microsoft YaHei" font-size="10.00">setmeal_id: bigint FK</text>
<text xml:space="preserve" text-anchor="start" x="721.38" y="-209.25" font-family="Microsoft YaHei" font-size="10.00">dish_id: bigint FK</text>
<text xml:space="preserve" text-anchor="start" x="721.38" y="-183" font-family="Microsoft YaHei" font-size="10.00">name, price, copies</text>
<polygon fill="none" stroke="black" points="714.38,-173 714.38,-306.25 837.12,-306.25 837.12,-173 714.38,-173"/>
</g>
<!-- Dish&#45;&gt;SetmealDish -->
<g id="edge5" class="edge">
<title>Dish&#45;&gt;SetmealDish</title>
<path fill="none" stroke="#526173" d="M603.09,-239.62C634.93,-239.62 673.02,-239.62 705.21,-239.62"/>
<polygon fill="#526173" stroke="#526173" points="705.05,-242.43 713.05,-239.63 705.05,-236.83 705.05,-242.43"/>
<text xml:space="preserve" text-anchor="middle" x="664.75" y="-243.82" font-family="Microsoft YaHei" font-size="9.00">1 对多</text>
</g>
<!-- ShoppingCart -->
<g id="node9" class="node">
<title>ShoppingCart</title>
<polygon fill="#eaf7ea" stroke="none" points="712.75,-505.25 712.75,-531.5 838.75,-531.5 838.75,-505.25 712.75,-505.25"/>
<text xml:space="preserve" text-anchor="start" x="722.88" y="-517" font-family="Microsoft YaHei" font-weight="bold" font-size="10.00">shopping_cart 购物车</text>
<text xml:space="preserve" text-anchor="start" x="718.75" y="-488" font-family="Microsoft YaHei" font-size="10.00">id: bigint PK</text>
<text xml:space="preserve" text-anchor="start" x="718.75" y="-461.75" font-family="Microsoft YaHei" font-size="10.00">user_id: bigint FK</text>
<text xml:space="preserve" text-anchor="start" x="718.75" y="-435.5" font-family="Microsoft YaHei" font-size="10.00">dish_id / setmeal_id</text>
<text xml:space="preserve" text-anchor="start" x="718.75" y="-409.25" font-family="Microsoft YaHei" font-size="10.00">name, dish_flavor</text>
<text xml:space="preserve" text-anchor="start" x="718.75" y="-383" font-family="Microsoft YaHei" font-size="10.00">number, amount, image</text>
<text xml:space="preserve" text-anchor="start" x="718.75" y="-356.75" font-family="Microsoft YaHei" font-size="10.00">create_time</text>
<polygon fill="none" stroke="black" points="711.75,-346.75 711.75,-532.5 839.75,-532.5 839.75,-346.75 711.75,-346.75"/>
</g>
<!-- Dish&#45;&gt;ShoppingCart -->
<g id="edge11" class="edge">
<title>Dish&#45;&gt;ShoppingCart</title>
<path fill="none" stroke="#526173" stroke-dasharray="5,2" d="M602.79,-264.15C629.42,-276 659.28,-292.01 682.75,-311.88 692.58,-320.2 701.91,-329.79 710.59,-339.89"/>
<polygon fill="#526173" stroke="#526173" points="708.24,-341.45 715.52,-345.8 712.54,-337.86 708.24,-341.45"/>
<text xml:space="preserve" text-anchor="middle" x="664.75" y="-316.07" font-family="Microsoft YaHei" font-size="9.00">可选引用</text>
</g>
<!-- OrderDetail -->
<g id="node11" class="node">
<title>OrderDetail</title>
<polygon fill="#f6eafe" stroke="none" points="712.75,-705.12 712.75,-731.38 838.75,-731.38 838.75,-705.12 712.75,-705.12"/>
<text xml:space="preserve" text-anchor="start" x="723.62" y="-716.88" font-family="Microsoft YaHei" font-weight="bold" font-size="10.00">order_detail 订单明细</text>
<text xml:space="preserve" text-anchor="start" x="718.75" y="-687.88" font-family="Microsoft YaHei" font-size="10.00">id: bigint PK</text>
<text xml:space="preserve" text-anchor="start" x="718.75" y="-661.62" font-family="Microsoft YaHei" font-size="10.00">order_id: bigint FK</text>
<text xml:space="preserve" text-anchor="start" x="718.75" y="-635.38" font-family="Microsoft YaHei" font-size="10.00">dish_id / setmeal_id</text>
<text xml:space="preserve" text-anchor="start" x="718.75" y="-609.12" font-family="Microsoft YaHei" font-size="10.00">name, dish_flavor</text>
<text xml:space="preserve" text-anchor="start" x="718.75" y="-582.88" font-family="Microsoft YaHei" font-size="10.00">number, amount, image</text>
<polygon fill="none" stroke="black" points="711.75,-572.88 711.75,-732.38 839.75,-732.38 839.75,-572.88 711.75,-572.88"/>
</g>
<!-- Dish&#45;&gt;OrderDetail -->
<g id="edge13" class="edge">
<title>Dish&#45;&gt;OrderDetail</title>
<path fill="none" stroke="#526173" stroke-dasharray="5,2" d="M602.97,-326C608.37,-334.76 613.41,-343.71 617.75,-352.62 638.01,-394.23 627.64,-410.48 646.75,-452.62 664.32,-491.37 688.53,-531.38 711.16,-565.33"/>
<polygon fill="#526173" stroke="#526173" points="708.64,-566.59 715.42,-571.67 713.28,-563.47 708.64,-566.59"/>
<text xml:space="preserve" text-anchor="middle" x="664.75" y="-520.2" font-family="Microsoft YaHei" font-size="9.00">可选引用</text>
</g>
<!-- Setmeal&#45;&gt;SetmealDish -->
<g id="edge4" class="edge">
<title>Setmeal&#45;&gt;SetmealDish</title>
<path fill="none" stroke="#526173" d="M602.97,-399.13C628.35,-378.23 657.28,-353.76 682.75,-330.62 691.1,-323.04 699.71,-314.93 708.16,-306.8"/>
<polygon fill="#526173" stroke="#526173" points="709.7,-309.21 713.5,-301.63 705.8,-305.18 709.7,-309.21"/>
<text xml:space="preserve" text-anchor="middle" x="664.75" y="-365.94" font-family="Microsoft YaHei" font-size="9.00">1 对多</text>
</g>
<!-- Setmeal&#45;&gt;ShoppingCart -->
<g id="edge12" class="edge">
<title>Setmeal&#45;&gt;ShoppingCart</title>
<path fill="none" stroke="#526173" stroke-dasharray="5,2" d="M603.02,-440.86C617.4,-438.78 632.54,-436.95 646.75,-435.88 662.7,-434.67 666.75,-435.55 682.75,-435.88 689.23,-436.01 695.97,-436.19 702.72,-436.41"/>
<polygon fill="#526173" stroke="#526173" points="702.31,-439.2 710.4,-436.67 702.5,-433.6 702.31,-439.2"/>
<text xml:space="preserve" text-anchor="middle" x="664.75" y="-440.07" font-family="Microsoft YaHei" font-size="9.00">可选引用</text>
</g>
<!-- Setmeal&#45;&gt;OrderDetail -->
<g id="edge14" class="edge">
<title>Setmeal&#45;&gt;OrderDetail</title>
<path fill="none" stroke="#526173" stroke-dasharray="5,2" d="M603.09,-508.6C634.85,-535.25 672.81,-567.1 704.96,-594.07"/>
<polygon fill="#526173" stroke="#526173" points="703.06,-596.13 710.98,-599.12 706.66,-591.84 703.06,-596.13"/>
<text xml:space="preserve" text-anchor="middle" x="664.75" y="-574.74" font-family="Microsoft YaHei" font-size="9.00">可选引用</text>
</g>
<!-- User -->
<g id="node7" class="node">
<title>User</title>
<polygon fill="#eaf7ea" stroke="none" points="19,-787.12 19,-813.38 116.5,-813.38 116.5,-787.12 19,-787.12"/>
<text xml:space="preserve" text-anchor="start" x="45.25" y="-798.88" font-family="Microsoft YaHei" font-weight="bold" font-size="10.00">user 用户</text>
<text xml:space="preserve" text-anchor="start" x="25" y="-769.88" font-family="Microsoft YaHei" font-size="10.00">id: bigint PK</text>
<text xml:space="preserve" text-anchor="start" x="25" y="-743.62" font-family="Microsoft YaHei" font-size="10.00">openid: varchar</text>
<text xml:space="preserve" text-anchor="start" x="25" y="-717.38" font-family="Microsoft YaHei" font-size="10.00">name, phone, sex</text>
<text xml:space="preserve" text-anchor="start" x="25" y="-691.12" font-family="Microsoft YaHei" font-size="10.00">id_number, avatar</text>
<text xml:space="preserve" text-anchor="start" x="25" y="-664.88" font-family="Microsoft YaHei" font-size="10.00">create_time</text>
<polygon fill="none" stroke="black" points="18,-654.88 18,-814.38 117.5,-814.38 117.5,-654.88 18,-654.88"/>
</g>
<!-- AddressBook -->
<g id="node8" class="node">
<title>AddressBook</title>
<polygon fill="#eaf7ea" stroke="none" points="240.62,-787.12 240.62,-813.38 361.38,-813.38 361.38,-787.12 240.62,-787.12"/>
<text xml:space="preserve" text-anchor="start" x="249.25" y="-798.88" font-family="Microsoft YaHei" font-weight="bold" font-size="10.00">address_book 地址簿</text>
<text xml:space="preserve" text-anchor="start" x="246.62" y="-769.88" font-family="Microsoft YaHei" font-size="10.00">id: bigint PK</text>
<text xml:space="preserve" text-anchor="start" x="246.62" y="-743.62" font-family="Microsoft YaHei" font-size="10.00">user_id: bigint FK</text>
<text xml:space="preserve" text-anchor="start" x="246.62" y="-717.38" font-family="Microsoft YaHei" font-size="10.00">consignee, phone, sex</text>
<text xml:space="preserve" text-anchor="start" x="246.62" y="-691.12" font-family="Microsoft YaHei" font-size="10.00">province/city/district</text>
<text xml:space="preserve" text-anchor="start" x="246.62" y="-664.88" font-family="Microsoft YaHei" font-size="10.00">detail, label, is_default</text>
<polygon fill="none" stroke="black" points="239.62,-654.88 239.62,-814.38 362.38,-814.38 362.38,-654.88 239.62,-654.88"/>
</g>
<!-- User&#45;&gt;AddressBook -->
<g id="edge6" class="edge">
<title>User&#45;&gt;AddressBook</title>
<path fill="none" stroke="#526173" d="M117.23,-734.62C150.07,-734.62 193.98,-734.62 230.52,-734.62"/>
<polygon fill="#526173" stroke="#526173" points="230.13,-737.43 238.13,-734.63 230.13,-731.83 230.13,-737.43"/>
<text xml:space="preserve" text-anchor="middle" x="184.38" y="-738.83" font-family="Microsoft YaHei" font-size="9.00">1 对多</text>
</g>
<!-- User&#45;&gt;ShoppingCart -->
<g id="edge7" class="edge">
<title>User&#45;&gt;ShoppingCart</title>
<path fill="none" stroke="#526173" d="M117.22,-697.99C148.67,-676.1 191.43,-649.7 233.25,-634.62 423.2,-566.15 510.45,-673.91 682.75,-568.62 695.38,-560.9 706.77,-550.73 716.88,-539.47"/>
<polygon fill="#526173" stroke="#526173" points="718.94,-541.37 722.02,-533.48 714.69,-537.72 718.94,-541.37"/>
<text xml:space="preserve" text-anchor="middle" x="410.88" y="-616.33" font-family="Microsoft YaHei" font-size="9.00">1 对多</text>
</g>
<!-- Orders -->
<g id="node10" class="node">
<title>Orders</title>
<polygon fill="#f6eafe" stroke="none" points="454,-865.5 454,-891.75 616.75,-891.75 616.75,-865.5 454,-865.5"/>
<text xml:space="preserve" text-anchor="start" x="507.25" y="-877.25" font-family="Microsoft YaHei" font-weight="bold" font-size="10.00">orders 订单</text>
<text xml:space="preserve" text-anchor="start" x="460" y="-848.25" font-family="Microsoft YaHei" font-size="10.00">id: bigint PK</text>
<text xml:space="preserve" text-anchor="start" x="460" y="-822" font-family="Microsoft YaHei" font-size="10.00">number: varchar</text>
<text xml:space="preserve" text-anchor="start" x="460" y="-795.75" font-family="Microsoft YaHei" font-size="10.00">status, pay_status, pay_method</text>
<text xml:space="preserve" text-anchor="start" x="460" y="-769.5" font-family="Microsoft YaHei" font-size="10.00">user_id, address_book_id</text>
<text xml:space="preserve" text-anchor="start" x="460" y="-743.25" font-family="Microsoft YaHei" font-size="10.00">amount, remark</text>
<text xml:space="preserve" text-anchor="start" x="460" y="-717" font-family="Microsoft YaHei" font-size="10.00">user_name, phone, address</text>
<text xml:space="preserve" text-anchor="start" x="460" y="-690.75" font-family="Microsoft YaHei" font-size="10.00">order_time, checkout_time</text>
<text xml:space="preserve" text-anchor="start" x="460" y="-664.5" font-family="Microsoft YaHei" font-size="10.00">cancel/rejection/delivery fields</text>
<polygon fill="none" stroke="black" points="453,-654.5 453,-892.75 617.75,-892.75 617.75,-654.5 453,-654.5"/>
</g>
<!-- User&#45;&gt;Orders -->
<g id="edge8" class="edge">
<title>User&#45;&gt;Orders</title>
<path fill="none" stroke="#526173" d="M117.24,-773.91C148.36,-796.51 190.77,-822.73 233.25,-834.62 303.26,-854.23 384.08,-835.67 444.35,-814.03"/>
<polygon fill="#526173" stroke="#526173" points="445.13,-816.72 451.67,-811.34 443.19,-811.47 445.13,-816.72"/>
<text xml:space="preserve" text-anchor="middle" x="301" y="-847.11" font-family="Microsoft YaHei" font-size="9.00">1 对多</text>
</g>
<!-- AddressBook&#45;&gt;Orders -->
<g id="edge9" class="edge">
<title>AddressBook&#45;&gt;Orders</title>
<path fill="none" stroke="#526173" d="M362.14,-744.72C387.03,-748.9 416.43,-753.83 443.83,-758.43"/>
<polygon fill="#526173" stroke="#526173" points="443.19,-761.16 451.54,-759.72 444.12,-755.64 443.19,-761.16"/>
<text xml:space="preserve" text-anchor="middle" x="410.88" y="-758.33" font-family="Microsoft YaHei" font-size="9.00">1 对多</text>
</g>
<!-- Orders&#45;&gt;OrderDetail -->
<g id="edge10" class="edge">
<title>Orders&#45;&gt;OrderDetail</title>
<path fill="none" stroke="#526173" d="M617.74,-732.32C645.61,-718.18 676.56,-702.47 703.56,-688.76"/>
<polygon fill="#526173" stroke="#526173" points="704.59,-691.38 710.45,-685.26 702.05,-686.39 704.59,-691.38"/>
<text xml:space="preserve" text-anchor="middle" x="664.75" y="-720.95" font-family="Microsoft YaHei" font-size="9.00">1 对多</text>
</g>
</g>
</svg>
