<?xml version="1.0" encoding="UTF-8" standalone="no"?>
<!DOCTYPE svg PUBLIC "-//W3C//DTD SVG 1.1//EN"
 "http://www.w3.org/Graphics/SVG/1.1/DTD/svg11.dtd">
<!-- Generated by graphviz version 15.0.0 (20260523.1842)
 -->
<!-- Title: G Pages: 1 -->
<svg width="1312pt" height="645pt"
 viewBox="0.00 0.00 1312.00 645.00" xmlns="http://www.w3.org/2000/svg" xmlns:xlink="http://www.w3.org/1999/xlink">
<g id="graph0" class="graph" transform="scale(1 1) rotate(0) translate(18 626.75)">
<title>G</title>
<polygon fill="white" stroke="none" points="-18,18 -18,-626.75 1294.25,-626.75 1294.25,18 -18,18"/>
<g id="clust1" class="cluster">
<title>cluster_system</title>
<path fill="white" stroke="#9aa6b2" stroke-dasharray="5,2" d="M332,-397.75C332,-397.75 1256.25,-397.75 1256.25,-397.75 1262.25,-397.75 1268.25,-403.75 1268.25,-409.75 1268.25,-409.75 1268.25,-588.75 1268.25,-588.75 1268.25,-594.75 1262.25,-600.75 1256.25,-600.75 1256.25,-600.75 332,-600.75 332,-600.75 326,-600.75 320,-594.75 320,-588.75 320,-588.75 320,-409.75 320,-409.75 320,-403.75 326,-397.75 332,-397.75"/>
<text xml:space="preserve" text-anchor="middle" x="794.12" y="-583.45" font-family="Microsoft YaHei" font-size="14.00">苍穹外卖系统</text>
</g>
<!-- user -->
<g id="node1" class="node">
<title>user</title>
<path fill="#e8f3ff" stroke="#2f3b52" stroke-width="1.2" d="M198.25,-468.5C198.25,-468.5 18.75,-468.5 18.75,-468.5 12.75,-468.5 6.75,-462.5 6.75,-456.5 6.75,-456.5 6.75,-435 6.75,-435 6.75,-429 12.75,-423 18.75,-423 18.75,-423 198.25,-423 198.25,-423 204.25,-423 210.25,-429 210.25,-435 210.25,-435 210.25,-456.5 210.25,-456.5 210.25,-462.5 204.25,-468.5 198.25,-468.5"/>
<text xml:space="preserve" text-anchor="middle" x="108.5" y="-451.2" font-family="Microsoft YaHei" font-size="14.00">小程序用户</text>
<text xml:space="preserve" text-anchor="middle" x="108.5" y="-432.45" font-family="Microsoft YaHei" font-size="14.00">浏览商品 / 下单 / 支付 / 催单</text>
</g>
<!-- miniprogram -->
<g id="node4" class="node">
<title>miniprogram</title>
<path fill="#f7f9fc" stroke="#2f3b52" stroke-width="1.2" d="M465.88,-468.5C465.88,-468.5 388.38,-468.5 388.38,-468.5 382.38,-468.5 376.38,-462.5 376.38,-456.5 376.38,-456.5 376.38,-435 376.38,-435 376.38,-429 382.38,-423 388.38,-423 388.38,-423 465.88,-423 465.88,-423 471.88,-423 477.88,-429 477.88,-435 477.88,-435 477.88,-456.5 477.88,-456.5 477.88,-462.5 471.88,-468.5 465.88,-468.5"/>
<text xml:space="preserve" text-anchor="middle" x="427.12" y="-451.2" font-family="Microsoft YaHei" font-size="14.00">微信小程序端</text>
<text xml:space="preserve" text-anchor="middle" x="427.12" y="-432.45" font-family="Microsoft YaHei" font-size="14.00">mp&#45;weixin</text>
</g>
<!-- user&#45;&gt;miniprogram -->
<g id="edge1" class="edge">
<title>user&#45;&gt;miniprogram</title>
<path fill="none" stroke="#52606d" d="M210.63,-445.75C210.63,-445.75 366.41,-445.75 366.41,-445.75"/>
<polygon fill="#52606d" stroke="#52606d" points="366.41,-448.55 374.41,-445.75 366.41,-442.95 366.41,-448.55"/>
<text xml:space="preserve" text-anchor="middle" x="272.5" y="-451.2" font-family="Microsoft YaHei" font-size="14.00">使用</text>
</g>
<!-- staff -->
<g id="node2" class="node">
<title>staff</title>
<path fill="#e8fff3" stroke="#2f3b52" stroke-width="1.2" d="M197.88,-554.5C197.88,-554.5 19.12,-554.5 19.12,-554.5 13.12,-554.5 7.12,-548.5 7.12,-542.5 7.12,-542.5 7.12,-521 7.12,-521 7.12,-515 13.12,-509 19.12,-509 19.12,-509 197.88,-509 197.88,-509 203.88,-509 209.88,-515 209.88,-521 209.88,-521 209.88,-542.5 209.88,-542.5 209.88,-548.5 203.88,-554.5 197.88,-554.5"/>
<text xml:space="preserve" text-anchor="middle" x="108.5" y="-537.2" font-family="Microsoft YaHei" font-size="14.00">商家员工</text>
<text xml:space="preserve" text-anchor="middle" x="108.5" y="-518.45" font-family="Microsoft YaHei" font-size="14.00">菜品套餐 / 订单履约 / 工作台</text>
</g>
<!-- admin -->
<g id="node5" class="node">
<title>admin</title>
<path fill="#f7f9fc" stroke="#2f3b52" stroke-width="1.2" d="M514.25,-554.5C514.25,-554.5 340,-554.5 340,-554.5 334,-554.5 328,-548.5 328,-542.5 328,-542.5 328,-521 328,-521 328,-515 334,-509 340,-509 340,-509 514.25,-509 514.25,-509 520.25,-509 526.25,-515 526.25,-521 526.25,-521 526.25,-542.5 526.25,-542.5 526.25,-548.5 520.25,-554.5 514.25,-554.5"/>
<text xml:space="preserve" text-anchor="middle" x="427.12" y="-537.2" font-family="Microsoft YaHei" font-size="14.00">Vue 管理端</text>
<text xml:space="preserve" text-anchor="middle" x="427.12" y="-518.45" font-family="Microsoft YaHei" font-size="14.00">project&#45;rjwm&#45;admin&#45;vue&#45;ts</text>
</g>
<!-- staff&#45;&gt;admin -->
<g id="edge2" class="edge">
<title>staff&#45;&gt;admin</title>
<path fill="none" stroke="#52606d" d="M210.19,-531.75C210.19,-531.75 317.97,-531.75 317.97,-531.75"/>
<polygon fill="#52606d" stroke="#52606d" points="317.97,-534.55 325.97,-531.75 317.97,-528.95 317.97,-534.55"/>
<text xml:space="preserve" text-anchor="middle" x="272.5" y="-537.2" font-family="Microsoft YaHei" font-size="14.00">使用</text>
</g>
<!-- pm -->
<g id="node3" class="node">
<title>pm</title>
<path fill="#fff7e8" stroke="#2f3b52" stroke-width="1.2" d="M205,-382.5C205,-382.5 12,-382.5 12,-382.5 6,-382.5 0,-376.5 0,-370.5 0,-370.5 0,-349 0,-349 0,-343 6,-337 12,-337 12,-337 205,-337 205,-337 211,-337 217,-343 217,-349 217,-349 217,-370.5 217,-370.5 217,-376.5 211,-382.5 205,-382.5"/>
<text xml:space="preserve" text-anchor="middle" x="108.5" y="-365.2" font-family="Microsoft YaHei" font-size="14.00">项目经理 / 测试</text>
<text xml:space="preserve" text-anchor="middle" x="108.5" y="-346.45" font-family="Microsoft YaHei" font-size="14.00">需求验收 / 缺陷跟踪 / 版本冻结</text>
</g>
<!-- github -->
<g id="node13" class="node">
<title>github</title>
<path fill="#f4f4f4" stroke="#2f3b52" stroke-width="1.2" d="M511.62,-382.5C511.62,-382.5 342.62,-382.5 342.62,-382.5 336.62,-382.5 330.62,-376.5 330.62,-370.5 330.62,-370.5 330.62,-349 330.62,-349 330.62,-343 336.62,-337 342.62,-337 342.62,-337 511.62,-337 511.62,-337 517.62,-337 523.62,-343 523.62,-349 523.62,-349 523.62,-370.5 523.62,-370.5 523.62,-376.5 517.62,-382.5 511.62,-382.5"/>
<text xml:space="preserve" text-anchor="middle" x="427.12" y="-365.2" font-family="Microsoft YaHei" font-size="14.00">GitHub</text>
<text xml:space="preserve" text-anchor="middle" x="427.12" y="-346.45" font-family="Microsoft YaHei" font-size="14.00">Issue / PR / Milestone / CI</text>
</g>
<!-- pm&#45;&gt;github -->
<g id="edge3" class="edge">
<title>pm&#45;&gt;github</title>
<path fill="none" stroke="#52606d" d="M217.26,-359.75C217.26,-359.75 320.55,-359.75 320.55,-359.75"/>
<polygon fill="#52606d" stroke="#52606d" points="320.55,-362.55 328.55,-359.75 320.55,-356.95 320.55,-362.55"/>
<text xml:space="preserve" text-anchor="middle" x="272.5" y="-365.2" font-family="Microsoft YaHei" font-size="14.00">管理过程</text>
</g>
<!-- server -->
<g id="node6" class="node">
<title>server</title>
<path fill="#f7f9fc" stroke="#2f3b52" stroke-width="1.2" d="M882.75,-451.5C882.75,-451.5 762.5,-451.5 762.5,-451.5 756.5,-451.5 750.5,-445.5 750.5,-439.5 750.5,-439.5 750.5,-418 750.5,-418 750.5,-412 756.5,-406 762.5,-406 762.5,-406 882.75,-406 882.75,-406 888.75,-406 894.75,-412 894.75,-418 894.75,-418 894.75,-439.5 894.75,-439.5 894.75,-445.5 888.75,-451.5 882.75,-451.5"/>
<text xml:space="preserve" text-anchor="middle" x="822.62" y="-434.2" font-family="Microsoft YaHei" font-size="14.00">Spring Boot 服务端</text>
<text xml:space="preserve" text-anchor="middle" x="822.62" y="-415.45" font-family="Microsoft YaHei" font-size="14.00">sky&#45;server</text>
</g>
<!-- miniprogram&#45;&gt;server -->
<g id="edge4" class="edge">
<title>miniprogram&#45;&gt;server</title>
<path fill="none" stroke="#52606d" d="M478.42,-432.5C478.42,-432.5 740.42,-432.5 740.42,-432.5"/>
<polygon fill="#52606d" stroke="#52606d" points="740.42,-435.3 748.42,-432.5 740.42,-429.7 740.42,-435.3"/>
<text xml:space="preserve" text-anchor="middle" x="638.38" y="-469.95" font-family="Microsoft YaHei" font-size="14.00">HTTP JSON</text>
<text xml:space="preserve" text-anchor="middle" x="638.38" y="-451.2" font-family="Microsoft YaHei" font-size="14.00">/user/**</text>
</g>
<!-- admin&#45;&gt;server -->
<g id="edge5" class="edge">
<title>admin&#45;&gt;server</title>
<path fill="none" stroke="#52606d" d="M493.25,-508.64C493.25,-482.04 493.25,-442 493.25,-442 493.25,-442 740.42,-442 740.42,-442"/>
<polygon fill="#52606d" stroke="#52606d" points="740.42,-444.8 748.42,-442 740.42,-439.2 740.42,-444.8"/>
<text xml:space="preserve" text-anchor="middle" x="638.38" y="-552.95" font-family="Microsoft YaHei" font-size="14.00">HTTP JSON + WebSocket</text>
<text xml:space="preserve" text-anchor="middle" x="638.38" y="-534.2" font-family="Microsoft YaHei" font-size="14.00">/admin/** /ws</text>
</g>
<!-- common -->
<g id="node7" class="node">
<title>common</title>
<path fill="#f7f9fc" stroke="#2f3b52" stroke-width="1.2" d="M1248.25,-475.5C1248.25,-475.5 1095.75,-475.5 1095.75,-475.5 1089.75,-475.5 1083.75,-469.5 1083.75,-463.5 1083.75,-463.5 1083.75,-442 1083.75,-442 1083.75,-436 1089.75,-430 1095.75,-430 1095.75,-430 1248.25,-430 1248.25,-430 1254.25,-430 1260.25,-436 1260.25,-442 1260.25,-442 1260.25,-463.5 1260.25,-463.5 1260.25,-469.5 1254.25,-475.5 1248.25,-475.5"/>
<text xml:space="preserve" text-anchor="middle" x="1172" y="-458.2" font-family="Microsoft YaHei" font-size="14.00">公共与数据模块</text>
<text xml:space="preserve" text-anchor="middle" x="1172" y="-439.45" font-family="Microsoft YaHei" font-size="14.00">sky&#45;common / sky&#45;pojo</text>
</g>
<!-- server&#45;&gt;common -->
<g id="edge6" class="edge">
<title>server&#45;&gt;common</title>
<path fill="none" stroke="#52606d" d="M895.02,-440.75C895.02,-440.75 1073.76,-440.75 1073.76,-440.75"/>
<polygon fill="#52606d" stroke="#52606d" points="1073.76,-443.55 1081.76,-440.75 1073.76,-437.95 1073.76,-443.55"/>
<text xml:space="preserve" text-anchor="middle" x="989.25" y="-454.2" font-family="Microsoft YaHei" font-size="14.00">依赖</text>
</g>
<!-- mysql -->
<g id="node8" class="node">
<title>mysql</title>
<path fill="#f2edff" stroke="#2f3b52" stroke-width="1.2" d="M1217.88,-389.5C1217.88,-389.5 1126.12,-389.5 1126.12,-389.5 1120.12,-389.5 1114.12,-383.5 1114.12,-377.5 1114.12,-377.5 1114.12,-356 1114.12,-356 1114.12,-350 1120.12,-344 1126.12,-344 1126.12,-344 1217.88,-344 1217.88,-344 1223.88,-344 1229.88,-350 1229.88,-356 1229.88,-356 1229.88,-377.5 1229.88,-377.5 1229.88,-383.5 1223.88,-389.5 1217.88,-389.5"/>
<text xml:space="preserve" text-anchor="middle" x="1172" y="-372.2" font-family="Microsoft YaHei" font-size="14.00">MySQL 8.0</text>
<text xml:space="preserve" text-anchor="middle" x="1172" y="-353.45" font-family="Microsoft YaHei" font-size="14.00">业务数据持久化</text>
</g>
<!-- server&#45;&gt;mysql -->
<g id="edge7" class="edge">
<title>server&#45;&gt;mysql</title>
<path fill="none" stroke="#52606d" d="M895.07,-418C997.47,-418 1172.25,-418 1172.25,-418 1172.25,-418 1172.25,-399.49 1172.25,-399.49"/>
<polygon fill="#52606d" stroke="#52606d" points="1175.05,-399.49 1172.25,-391.49 1169.45,-399.49 1175.05,-399.49"/>
<text xml:space="preserve" text-anchor="middle" x="989.25" y="-372.2" font-family="Microsoft YaHei" font-size="14.00">MyBatis</text>
</g>
<!-- redis -->
<g id="node9" class="node">
<title>redis</title>
<path fill="#fff0f0" stroke="#2f3b52" stroke-width="1.2" d="M1218.25,-303.5C1218.25,-303.5 1125.75,-303.5 1125.75,-303.5 1119.75,-303.5 1113.75,-297.5 1113.75,-291.5 1113.75,-291.5 1113.75,-270 1113.75,-270 1113.75,-264 1119.75,-258 1125.75,-258 1125.75,-258 1218.25,-258 1218.25,-258 1224.25,-258 1230.25,-264 1230.25,-270 1230.25,-270 1230.25,-291.5 1230.25,-291.5 1230.25,-297.5 1224.25,-303.5 1218.25,-303.5"/>
<text xml:space="preserve" text-anchor="middle" x="1172" y="-286.2" font-family="Microsoft YaHei" font-size="14.00">Redis</text>
<text xml:space="preserve" text-anchor="middle" x="1172" y="-267.45" font-family="Microsoft YaHei" font-size="14.00">营业状态 / 缓存</text>
</g>
<!-- server&#45;&gt;redis -->
<g id="edge8" class="edge">
<title>server&#45;&gt;redis</title>
<path fill="none" stroke="#52606d" d="M866.25,-405.62C866.25,-364 866.25,-280.75 866.25,-280.75 866.25,-280.75 1103.9,-280.75 1103.9,-280.75"/>
<polygon fill="#52606d" stroke="#52606d" points="1103.9,-283.55 1111.9,-280.75 1103.9,-277.95 1103.9,-283.55"/>
<text xml:space="preserve" text-anchor="middle" x="989.25" y="-286.2" font-family="Microsoft YaHei" font-size="14.00">Spring Data Redis</text>
</g>
<!-- oss -->
<g id="node10" class="node">
<title>oss</title>
<path fill="#fff8d6" stroke="#2f3b52" stroke-width="1.2" d="M1210.75,-217.5C1210.75,-217.5 1133.25,-217.5 1133.25,-217.5 1127.25,-217.5 1121.25,-211.5 1121.25,-205.5 1121.25,-205.5 1121.25,-184 1121.25,-184 1121.25,-178 1127.25,-172 1133.25,-172 1133.25,-172 1210.75,-172 1210.75,-172 1216.75,-172 1222.75,-178 1222.75,-184 1222.75,-184 1222.75,-205.5 1222.75,-205.5 1222.75,-211.5 1216.75,-217.5 1210.75,-217.5"/>
<text xml:space="preserve" text-anchor="middle" x="1172" y="-200.2" font-family="Microsoft YaHei" font-size="14.00">阿里云 OSS</text>
<text xml:space="preserve" text-anchor="middle" x="1172" y="-181.45" font-family="Microsoft YaHei" font-size="14.00">菜品图片存储</text>
</g>
<!-- server&#45;&gt;oss -->
<g id="edge9" class="edge">
<title>server&#45;&gt;oss</title>
<path fill="none" stroke="#52606d" d="M837.25,-405.46C837.25,-346.27 837.25,-194.75 837.25,-194.75 837.25,-194.75 1111.28,-194.75 1111.28,-194.75"/>
<polygon fill="#52606d" stroke="#52606d" points="1111.28,-197.55 1119.28,-194.75 1111.28,-191.95 1111.28,-197.55"/>
<text xml:space="preserve" text-anchor="middle" x="989.25" y="-200.2" font-family="Microsoft YaHei" font-size="14.00">上传图片</text>
</g>
<!-- wechat -->
<g id="node11" class="node">
<title>wechat</title>
<path fill="#edf7ed" stroke="#2f3b52" stroke-width="1.2" d="M1218.25,-131.5C1218.25,-131.5 1125.75,-131.5 1125.75,-131.5 1119.75,-131.5 1113.75,-125.5 1113.75,-119.5 1113.75,-119.5 1113.75,-98 1113.75,-98 1113.75,-92 1119.75,-86 1125.75,-86 1125.75,-86 1218.25,-86 1218.25,-86 1224.25,-86 1230.25,-92 1230.25,-98 1230.25,-98 1230.25,-119.5 1230.25,-119.5 1230.25,-125.5 1224.25,-131.5 1218.25,-131.5"/>
<text xml:space="preserve" text-anchor="middle" x="1172" y="-114.2" font-family="Microsoft YaHei" font-size="14.00">微信接口</text>
<text xml:space="preserve" text-anchor="middle" x="1172" y="-95.45" font-family="Microsoft YaHei" font-size="14.00">登录 / 支付扩展</text>
</g>
<!-- server&#45;&gt;wechat -->
<g id="edge10" class="edge">
<title>server&#45;&gt;wechat</title>
<path fill="none" stroke="#52606d" d="M808.25,-405.48C808.25,-331.84 808.25,-108.75 808.25,-108.75 808.25,-108.75 1103.64,-108.75 1103.64,-108.75"/>
<polygon fill="#52606d" stroke="#52606d" points="1103.64,-111.55 1111.64,-108.75 1103.64,-105.95 1103.64,-111.55"/>
<text xml:space="preserve" text-anchor="middle" x="989.25" y="-114.2" font-family="Microsoft YaHei" font-size="14.00">code2session / 支付</text>
</g>
<!-- baidu -->
<g id="node12" class="node">
<title>baidu</title>
<path fill="#eef5ff" stroke="#2f3b52" stroke-width="1.2" d="M1210.75,-45.5C1210.75,-45.5 1133.25,-45.5 1133.25,-45.5 1127.25,-45.5 1121.25,-39.5 1121.25,-33.5 1121.25,-33.5 1121.25,-12 1121.25,-12 1121.25,-6 1127.25,0 1133.25,0 1133.25,0 1210.75,0 1210.75,0 1216.75,0 1222.75,-6 1222.75,-12 1222.75,-12 1222.75,-33.5 1222.75,-33.5 1222.75,-39.5 1216.75,-45.5 1210.75,-45.5"/>
<text xml:space="preserve" text-anchor="middle" x="1172" y="-28.2" font-family="Microsoft YaHei" font-size="14.00">百度地图 API</text>
<text xml:space="preserve" text-anchor="middle" x="1172" y="-9.45" font-family="Microsoft YaHei" font-size="14.00">配送范围校验</text>
</g>
<!-- server&#45;&gt;baidu -->
<g id="edge11" class="edge">
<title>server&#45;&gt;baidu</title>
<path fill="none" stroke="#52606d" d="M779.25,-405.46C779.25,-319.19 779.25,-22.75 779.25,-22.75 779.25,-22.75 1111.14,-22.75 1111.14,-22.75"/>
<polygon fill="#52606d" stroke="#52606d" points="1111.14,-25.55 1119.14,-22.75 1111.14,-19.95 1111.14,-25.55"/>
<text xml:space="preserve" text-anchor="middle" x="989.25" y="-28.2" font-family="Microsoft YaHei" font-size="14.00">地理编码 / 路线规划</text>
</g>
<!-- github&#45;&gt;server -->
<g id="edge12" class="edge">
<title>github&#45;&gt;server</title>
<path fill="none" stroke="#52606d" stroke-dasharray="5,2" d="M508.25,-382.97C508.25,-397.89 508.25,-414.5 508.25,-414.5 508.25,-414.5 740.59,-414.5 740.59,-414.5"/>
<polygon fill="#52606d" stroke="#52606d" points="740.59,-417.3 748.59,-414.5 740.59,-411.7 740.59,-417.3"/>
<text xml:space="preserve" text-anchor="middle" x="638.38" y="-376.2" font-family="Microsoft YaHei" font-size="14.00">CI 构建验证</text>
</g>
</g>
</svg>
