<?xml version="1.0" encoding="UTF-8" standalone="no"?>
<!DOCTYPE svg PUBLIC "-//W3C//DTD SVG 1.1//EN"
 "http://www.w3.org/Graphics/SVG/1.1/DTD/svg11.dtd">
<!-- Generated by graphviz version 15.0.0 (20260523.1842)
 -->
<!-- Title: G Pages: 1 -->
<svg width="1509pt" height="703pt"
 viewBox="0.00 0.00 1509.00 703.00" xmlns="http://www.w3.org/2000/svg" xmlns:xlink="http://www.w3.org/1999/xlink">
<g id="graph0" class="graph" transform="scale(1 1) rotate(0) translate(18 684.5)">
<title>G</title>
<polygon fill="white" stroke="none" points="-18,18 -18,-684.5 1490.75,-684.5 1490.75,18 -18,18"/>
<g id="clust1" class="cluster">
<title>cluster_front</title>
<polygon fill="white" stroke="#98a2b3" points="8,-8 8,-208.5 492,-208.5 492,-8 8,-8"/>
<text xml:space="preserve" text-anchor="middle" x="250" y="-191.2" font-family="Microsoft YaHei" font-size="14.00">前端容器</text>
</g>
<g id="clust2" class="cluster">
<title>cluster_backend</title>
<polygon fill="white" stroke="#98a2b3" points="555,-251.25 555,-658.5 1072,-658.5 1072,-251.25 555,-251.25"/>
<text xml:space="preserve" text-anchor="middle" x="813.5" y="-641.2" font-family="Microsoft YaHei" font-size="14.00">后端容器</text>
</g>
<g id="clust3" class="cluster">
<title>cluster_data</title>
<polygon fill="white" stroke="#98a2b3" points="512,-120.25 512,-208.5 1269,-208.5 1269,-120.25 512,-120.25"/>
<text xml:space="preserve" text-anchor="middle" x="890.5" y="-191.2" font-family="Microsoft YaHei" font-size="14.00">数据与外部服务</text>
</g>
<!-- admin_ui -->
<g id="node1" class="node">
<title>admin_ui</title>
<path fill="#ecfdf3" stroke="#344054" d="M205.62,-173.75C205.62,-173.75 28.38,-173.75 28.38,-173.75 22.38,-173.75 16.38,-167.75 16.38,-161.75 16.38,-161.75 16.38,-140.25 16.38,-140.25 16.38,-134.25 22.38,-128.25 28.38,-128.25 28.38,-128.25 205.62,-128.25 205.62,-128.25 211.62,-128.25 217.62,-134.25 217.62,-140.25 217.62,-140.25 217.62,-161.75 217.62,-161.75 217.62,-167.75 211.62,-173.75 205.62,-173.75"/>
<text xml:space="preserve" text-anchor="middle" x="117" y="-156.45" font-family="Microsoft YaHei" font-size="14.00">管理端 Vue 2 + TypeScript</text>
<text xml:space="preserve" text-anchor="middle" x="117" y="-137.7" font-family="Microsoft YaHei" font-size="14.00">视图、路由、状态、接口封装</text>
</g>
<!-- nginx -->
<g id="node3" class="node">
<title>nginx</title>
<path fill="#fff7ed" stroke="#344054" d="M472,-61.5C472,-61.5 228,-61.5 228,-61.5 222,-61.5 216,-55.5 216,-49.5 216,-49.5 216,-28 216,-28 216,-22 222,-16 228,-16 228,-16 472,-16 472,-16 478,-16 484,-22 484,-28 484,-28 484,-49.5 484,-49.5 484,-55.5 478,-61.5 472,-61.5"/>
<text xml:space="preserve" text-anchor="middle" x="350" y="-44.2" font-family="Microsoft YaHei" font-size="14.00">Nginx 1.20</text>
<text xml:space="preserve" text-anchor="middle" x="350" y="-25.45" font-family="Microsoft YaHei" font-size="14.00">静态资源 / 反向代理 / WebSocket 转发</text>
</g>
<!-- admin_ui&#45;&gt;nginx -->
<g id="edge1" class="edge">
<title>admin_ui&#45;&gt;nginx</title>
<path fill="none" stroke="#475467" d="M217.72,-151C225.14,-151 229.79,-151 229.79,-151 229.79,-151 229.79,-71.25 229.79,-71.25"/>
<polygon fill="#475467" stroke="#475467" points="232.59,-71.25 229.79,-63.25 226.99,-71.25 232.59,-71.25"/>
<text xml:space="preserve" text-anchor="middle" x="217.25" y="-90.95" font-family="Microsoft YaHei" font-size="14.00">访问</text>
</g>
<!-- wx_ui -->
<g id="node2" class="node">
<title>wx_ui</title>
<path fill="#eff8ff" stroke="#344054" d="M471.88,-173.75C471.88,-173.75 266.12,-173.75 266.12,-173.75 260.12,-173.75 254.12,-167.75 254.12,-161.75 254.12,-161.75 254.12,-140.25 254.12,-140.25 254.12,-134.25 260.12,-128.25 266.12,-128.25 266.12,-128.25 471.88,-128.25 471.88,-128.25 477.88,-128.25 483.88,-134.25 483.88,-140.25 483.88,-140.25 483.88,-161.75 483.88,-161.75 483.88,-167.75 477.88,-173.75 471.88,-173.75"/>
<text xml:space="preserve" text-anchor="middle" x="369" y="-156.45" font-family="Microsoft YaHei" font-size="14.00">微信小程序</text>
<text xml:space="preserve" text-anchor="middle" x="369" y="-137.7" font-family="Microsoft YaHei" font-size="14.00">页面、组件、登录态、购物车交互</text>
</g>
<!-- wx_ui&#45;&gt;nginx -->
<g id="edge2" class="edge">
<title>wx_ui&#45;&gt;nginx</title>
<path fill="none" stroke="#475467" d="M369,-128.01C369,-128.01 369,-71.22 369,-71.22"/>
<polygon fill="#475467" stroke="#475467" points="371.8,-71.22 369,-63.22 366.2,-71.22 371.8,-71.22"/>
<text xml:space="preserve" text-anchor="middle" x="387.5" y="-90.95" font-family="Microsoft YaHei" font-size="14.00">接口请求</text>
</g>
<!-- controller -->
<g id="node4" class="node">
<title>controller</title>
<path fill="#f8fafc" stroke="#344054" d="M1032.88,-511.5C1032.88,-511.5 827.12,-511.5 827.12,-511.5 821.12,-511.5 815.12,-505.5 815.12,-499.5 815.12,-499.5 815.12,-478 815.12,-478 815.12,-472 821.12,-466 827.12,-466 827.12,-466 1032.88,-466 1032.88,-466 1038.88,-466 1044.88,-472 1044.88,-478 1044.88,-478 1044.88,-499.5 1044.88,-499.5 1044.88,-505.5 1038.88,-511.5 1032.88,-511.5"/>
<text xml:space="preserve" text-anchor="middle" x="930" y="-494.2" font-family="Microsoft YaHei" font-size="14.00">Controller</text>
<text xml:space="preserve" text-anchor="middle" x="930" y="-475.45" font-family="Microsoft YaHei" font-size="14.00">参数接收、鉴权后分发、统一响应</text>
</g>
<!-- nginx&#45;&gt;controller -->
<g id="edge3" class="edge">
<title>nginx&#45;&gt;controller</title>
<path fill="none" stroke="#475467" d="M241.96,-61.7C241.96,-153.45 241.96,-489 241.96,-489 241.96,-489 805.32,-489 805.32,-489"/>
<polygon fill="#475467" stroke="#475467" points="805.32,-491.8 813.32,-489 805.32,-486.2 805.32,-491.8"/>
<text xml:space="preserve" text-anchor="middle" x="1394.38" y="-278.07" font-family="Microsoft YaHei" font-size="14.00">转发 /admin/** /user/**</text>
</g>
<!-- service -->
<g id="node5" class="node">
<title>service</title>
<path fill="#f8fafc" stroke="#344054" d="M1052.38,-417C1052.38,-417 789.62,-417 789.62,-417 783.62,-417 777.62,-411 777.62,-405 777.62,-405 777.62,-383.5 777.62,-383.5 777.62,-377.5 783.62,-371.5 789.62,-371.5 789.62,-371.5 1052.38,-371.5 1052.38,-371.5 1058.38,-371.5 1064.38,-377.5 1064.38,-383.5 1064.38,-383.5 1064.38,-405 1064.38,-405 1064.38,-411 1058.38,-417 1052.38,-417"/>
<text xml:space="preserve" text-anchor="middle" x="921" y="-399.7" font-family="Microsoft YaHei" font-size="14.00">Service</text>
<text xml:space="preserve" text-anchor="middle" x="921" y="-380.95" font-family="Microsoft YaHei" font-size="14.00">业务规则、事务、状态流转、外部服务编排</text>
</g>
<!-- controller&#45;&gt;service -->
<g id="edge4" class="edge">
<title>controller&#45;&gt;service</title>
<path fill="none" stroke="#475467" d="M930,-465.87C930,-465.87 930,-426.76 930,-426.76"/>
<polygon fill="#475467" stroke="#475467" points="932.8,-426.76 930,-418.76 927.2,-426.76 932.8,-426.76"/>
</g>
<!-- mapper -->
<g id="node6" class="node">
<title>mapper</title>
<path fill="#f8fafc" stroke="#344054" d="M878.5,-304.75C878.5,-304.75 745.5,-304.75 745.5,-304.75 739.5,-304.75 733.5,-298.75 733.5,-292.75 733.5,-292.75 733.5,-271.25 733.5,-271.25 733.5,-265.25 739.5,-259.25 745.5,-259.25 745.5,-259.25 878.5,-259.25 878.5,-259.25 884.5,-259.25 890.5,-265.25 890.5,-271.25 890.5,-271.25 890.5,-292.75 890.5,-292.75 890.5,-298.75 884.5,-304.75 878.5,-304.75"/>
<text xml:space="preserve" text-anchor="middle" x="812" y="-287.45" font-family="Microsoft YaHei" font-size="14.00">Mapper + XML</text>
<text xml:space="preserve" text-anchor="middle" x="812" y="-268.7" font-family="Microsoft YaHei" font-size="14.00">SQL、分页、批量写入</text>
</g>
<!-- service&#45;&gt;mapper -->
<g id="edge5" class="edge">
<title>service&#45;&gt;mapper</title>
<path fill="none" stroke="#475467" d="M852.88,-371.26C852.88,-371.26 852.88,-314.47 852.88,-314.47"/>
<polygon fill="#475467" stroke="#475467" points="855.68,-314.47 852.88,-306.47 850.08,-314.47 855.68,-314.47"/>
</g>
<!-- websocket -->
<g id="node7" class="node">
<title>websocket</title>
<path fill="#fef3f2" stroke="#344054" d="M685.25,-304.75C685.25,-304.75 574.75,-304.75 574.75,-304.75 568.75,-304.75 562.75,-298.75 562.75,-292.75 562.75,-292.75 562.75,-271.25 562.75,-271.25 562.75,-265.25 568.75,-259.25 574.75,-259.25 574.75,-259.25 685.25,-259.25 685.25,-259.25 691.25,-259.25 697.25,-265.25 697.25,-271.25 697.25,-271.25 697.25,-292.75 697.25,-292.75 697.25,-298.75 691.25,-304.75 685.25,-304.75"/>
<text xml:space="preserve" text-anchor="middle" x="630" y="-287.45" font-family="Microsoft YaHei" font-size="14.00">WebSocketServer</text>
<text xml:space="preserve" text-anchor="middle" x="630" y="-268.7" font-family="Microsoft YaHei" font-size="14.00">新订单 / 催单提醒</text>
</g>
<!-- service&#45;&gt;websocket -->
<g id="edge6" class="edge">
<title>service&#45;&gt;websocket</title>
<path fill="none" stroke="#475467" d="M815.25,-371.05C815.25,-355.55 815.25,-338 815.25,-338 815.25,-338 630,-338 630,-338 630,-338 630,-314.61 630,-314.61"/>
<polygon fill="#475467" stroke="#475467" points="632.8,-314.61 630,-306.61 627.2,-314.61 632.8,-314.61"/>
<text xml:space="preserve" text-anchor="middle" x="838.75" y="-334.2" font-family="Microsoft YaHei" font-size="14.00">推送订单事件</text>
</g>
<!-- redis -->
<g id="node11" class="node">
<title>redis</title>
<path fill="#f8fafc" stroke="#344054" d="M1139.88,-173.75C1139.88,-173.75 1048.12,-173.75 1048.12,-173.75 1042.12,-173.75 1036.12,-167.75 1036.12,-161.75 1036.12,-161.75 1036.12,-140.25 1036.12,-140.25 1036.12,-134.25 1042.12,-128.25 1048.12,-128.25 1048.12,-128.25 1139.88,-128.25 1139.88,-128.25 1145.88,-128.25 1151.88,-134.25 1151.88,-140.25 1151.88,-140.25 1151.88,-161.75 1151.88,-161.75 1151.88,-167.75 1145.88,-173.75 1139.88,-173.75"/>
<text xml:space="preserve" text-anchor="middle" x="1094" y="-156.45" font-family="Microsoft YaHei" font-size="14.00">Redis</text>
<text xml:space="preserve" text-anchor="middle" x="1094" y="-137.7" font-family="Microsoft YaHei" font-size="14.00">店铺营业状态等</text>
</g>
<!-- service&#45;&gt;redis -->
<g id="edge9" class="edge">
<title>service&#45;&gt;redis</title>
<path fill="none" stroke="#475467" d="M1050.25,-371.37C1050.25,-371.37 1050.25,-183.51 1050.25,-183.51"/>
<polygon fill="#475467" stroke="#475467" points="1053.05,-183.51 1050.25,-175.51 1047.45,-183.51 1053.05,-183.51"/>
</g>
<!-- oss -->
<g id="node12" class="node">
<title>oss</title>
<path fill="#f8fafc" stroke="#344054" d="M1248.5,-173.75C1248.5,-173.75 1199.5,-173.75 1199.5,-173.75 1193.5,-173.75 1187.5,-167.75 1187.5,-161.75 1187.5,-161.75 1187.5,-140.25 1187.5,-140.25 1187.5,-134.25 1193.5,-128.25 1199.5,-128.25 1199.5,-128.25 1248.5,-128.25 1248.5,-128.25 1254.5,-128.25 1260.5,-134.25 1260.5,-140.25 1260.5,-140.25 1260.5,-161.75 1260.5,-161.75 1260.5,-167.75 1254.5,-173.75 1248.5,-173.75"/>
<text xml:space="preserve" text-anchor="middle" x="1224" y="-156.45" font-family="Microsoft YaHei" font-size="14.00">OSS</text>
<text xml:space="preserve" text-anchor="middle" x="1224" y="-137.7" font-family="Microsoft YaHei" font-size="14.00">图片对象</text>
</g>
<!-- service&#45;&gt;oss -->
<g id="edge10" class="edge">
<title>service&#45;&gt;oss</title>
<path fill="none" stroke="#475467" d="M1064.51,-394C1142.83,-394 1224,-394 1224,-394 1224,-394 1224,-183.37 1224,-183.37"/>
<polygon fill="#475467" stroke="#475467" points="1226.8,-183.37 1224,-175.37 1221.2,-183.37 1226.8,-183.37"/>
</g>
<!-- ext -->
<g id="node13" class="node">
<title>ext</title>
<path fill="#f8fafc" stroke="#344054" d="M988.25,-173.75C988.25,-173.75 853.75,-173.75 853.75,-173.75 847.75,-173.75 841.75,-167.75 841.75,-161.75 841.75,-161.75 841.75,-140.25 841.75,-140.25 841.75,-134.25 847.75,-128.25 853.75,-128.25 853.75,-128.25 988.25,-128.25 988.25,-128.25 994.25,-128.25 1000.25,-134.25 1000.25,-140.25 1000.25,-140.25 1000.25,-161.75 1000.25,-161.75 1000.25,-167.75 994.25,-173.75 988.25,-173.75"/>
<text xml:space="preserve" text-anchor="middle" x="921" y="-156.45" font-family="Microsoft YaHei" font-size="14.00">微信 / 百度地图</text>
<text xml:space="preserve" text-anchor="middle" x="921" y="-137.7" font-family="Microsoft YaHei" font-size="14.00">登录、支付、配送距离</text>
</g>
<!-- service&#45;&gt;ext -->
<g id="edge11" class="edge">
<title>service&#45;&gt;ext</title>
<path fill="none" stroke="#475467" d="M945.38,-371.37C945.38,-371.37 945.38,-183.51 945.38,-183.51"/>
<polygon fill="#475467" stroke="#475467" points="948.18,-183.51 945.38,-175.51 942.58,-183.51 948.18,-183.51"/>
</g>
<!-- mysql -->
<g id="node10" class="node">
<title>mysql</title>
<path fill="#f8fafc" stroke="#344054" d="M793.62,-173.75C793.62,-173.75 532.38,-173.75 532.38,-173.75 526.38,-173.75 520.38,-167.75 520.38,-161.75 520.38,-161.75 520.38,-140.25 520.38,-140.25 520.38,-134.25 526.38,-128.25 532.38,-128.25 532.38,-128.25 793.62,-128.25 793.62,-128.25 799.62,-128.25 805.62,-134.25 805.62,-140.25 805.62,-140.25 805.62,-161.75 805.62,-161.75 805.62,-167.75 799.62,-173.75 793.62,-173.75"/>
<text xml:space="preserve" text-anchor="middle" x="663" y="-156.45" font-family="Microsoft YaHei" font-size="14.00">MySQL</text>
<text xml:space="preserve" text-anchor="middle" x="663" y="-137.7" font-family="Microsoft YaHei" font-size="14.00">employee/user/category/dish/orders 等</text>
</g>
<!-- mapper&#45;&gt;mysql -->
<g id="edge8" class="edge">
<title>mapper&#45;&gt;mysql</title>
<path fill="none" stroke="#475467" d="M769.56,-258.88C769.56,-258.88 769.56,-183.4 769.56,-183.4"/>
<polygon fill="#475467" stroke="#475467" points="772.36,-183.4 769.56,-175.4 766.76,-183.4 772.36,-183.4"/>
</g>
<!-- websocket&#45;&gt;admin_ui -->
<g id="edge12" class="edge">
<title>websocket&#45;&gt;admin_ui</title>
<path fill="none" stroke="#475467" d="M562.41,-282C423.1,-282 117,-282 117,-282 117,-282 117,-183.63 117,-183.63"/>
<polygon fill="#475467" stroke="#475467" points="119.8,-183.63 117,-175.63 114.2,-183.63 119.8,-183.63"/>
<text xml:space="preserve" text-anchor="middle" x="616.75" y="-221.95" font-family="Microsoft YaHei" font-size="14.00">/ws 实时消息</text>
</g>
<!-- task -->
<g id="node8" class="node">
<title>task</title>
<path fill="#fefbe8" stroke="#344054" d="M729.38,-417C729.38,-417 574.62,-417 574.62,-417 568.62,-417 562.62,-411 562.62,-405 562.62,-405 562.62,-383.5 562.62,-383.5 562.62,-377.5 568.62,-371.5 574.62,-371.5 574.62,-371.5 729.38,-371.5 729.38,-371.5 735.38,-371.5 741.38,-377.5 741.38,-383.5 741.38,-383.5 741.38,-405 741.38,-405 741.38,-411 735.38,-417 729.38,-417"/>
<text xml:space="preserve" text-anchor="middle" x="652" y="-399.7" font-family="Microsoft YaHei" font-size="14.00">Scheduled Task</text>
<text xml:space="preserve" text-anchor="middle" x="652" y="-380.95" font-family="Microsoft YaHei" font-size="14.00">超时订单、定时统计/提醒</text>
</g>
<!-- task&#45;&gt;mapper -->
<g id="edge7" class="edge">
<title>task&#45;&gt;mapper</title>
<path fill="none" stroke="#475467" d="M737.44,-371.26C737.44,-371.26 737.44,-314.47 737.44,-314.47"/>
<polygon fill="#475467" stroke="#475467" points="740.24,-314.47 737.44,-306.47 734.64,-314.47 740.24,-314.47"/>
<text xml:space="preserve" text-anchor="middle" x="702.75" y="-334.2" font-family="Microsoft YaHei" font-size="14.00">定时查询/更新</text>
</g>
<!-- config -->
<g id="node9" class="node">
<title>config</title>
<path fill="#f4f3ff" stroke="#344054" d="M1047.5,-623.75C1047.5,-623.75 812.5,-623.75 812.5,-623.75 806.5,-623.75 800.5,-617.75 800.5,-611.75 800.5,-611.75 800.5,-590.25 800.5,-590.25 800.5,-584.25 806.5,-578.25 812.5,-578.25 812.5,-578.25 1047.5,-578.25 1047.5,-578.25 1053.5,-578.25 1059.5,-584.25 1059.5,-590.25 1059.5,-590.25 1059.5,-611.75 1059.5,-611.75 1059.5,-617.75 1053.5,-623.75 1047.5,-623.75"/>
<text xml:space="preserve" text-anchor="middle" x="930" y="-606.45" font-family="Microsoft YaHei" font-size="14.00">Config / Interceptor / Handler</text>
<text xml:space="preserve" text-anchor="middle" x="930" y="-587.7" font-family="Microsoft YaHei" font-size="14.00">JWT、Knife4j、异常处理、JSON 转换</text>
</g>
<!-- config&#45;&gt;controller -->
<g id="edge13" class="edge">
<title>config&#45;&gt;controller</title>
<path fill="none" stroke="#475467" stroke-dasharray="5,2" d="M930,-578.01C930,-578.01 930,-521.22 930,-521.22"/>
<polygon fill="#475467" stroke="#475467" points="932.8,-521.22 930,-513.22 927.2,-521.22 932.8,-521.22"/>
<text xml:space="preserve" text-anchor="middle" x="979.88" y="-540.95" font-family="Microsoft YaHei" font-size="14.00">拦截与异常处理</text>
</g>
</g>
</svg>
