<?xml version="1.0" encoding="UTF-8" standalone="no"?>
<!DOCTYPE svg PUBLIC "-//W3C//DTD SVG 1.1//EN"
 "http://www.w3.org/Graphics/SVG/1.1/DTD/svg11.dtd">
<!-- Generated by graphviz version 15.0.0 (20260523.1842)
 -->
<!-- Title: G Pages: 1 -->
<svg width="1360pt" height="602pt"
 viewBox="0.00 0.00 1360.00 602.00" xmlns="http://www.w3.org/2000/svg" xmlns:xlink="http://www.w3.org/1999/xlink">
<g id="graph0" class="graph" transform="scale(1 1) rotate(0) translate(18 584)">
<title>G</title>
<polygon fill="white" stroke="none" points="-18,18 -18,-584 1341.75,-584 1341.75,18 -18,18"/>
<g id="clust1" class="cluster">
<title>cluster_api</title>
<polygon fill="white" stroke="#98a2b3" points="8,-185 8,-466 354.25,-466 354.25,-185 8,-185"/>
<text xml:space="preserve" text-anchor="middle" x="181.12" y="-448.7" font-family="Microsoft YaHei" font-size="14.00">接口层</text>
</g>
<g id="clust2" class="cluster">
<title>cluster_service</title>
<polygon fill="white" stroke="#98a2b3" points="388.25,-164 388.25,-409 691,-409 691,-164 388.25,-164"/>
<text xml:space="preserve" text-anchor="middle" x="539.62" y="-391.7" font-family="Microsoft YaHei" font-size="14.00">业务层</text>
</g>
<g id="clust3" class="cluster">
<title>cluster_domain</title>
<polygon fill="white" stroke="#98a2b3" points="1001.75,-313 1001.75,-558 1315.75,-558 1315.75,-313 1001.75,-313"/>
<text xml:space="preserve" text-anchor="middle" x="1158.75" y="-540.7" font-family="Microsoft YaHei" font-size="14.00">领域对象</text>
</g>
<g id="clust4" class="cluster">
<title>cluster_infra</title>
<polygon fill="white" stroke="#98a2b3" points="725,-8 725,-331 967.75,-331 967.75,-8 725,-8"/>
<text xml:space="preserve" text-anchor="middle" x="846.38" y="-313.7" font-family="Microsoft YaHei" font-size="14.00">基础设施</text>
</g>
<!-- admin_ctl -->
<g id="node1" class="node">
<title>admin_ctl</title>
<path fill="#ecfdf3" stroke="#344054" d="M334.25,-257.12C334.25,-257.12 28,-257.12 28,-257.12 22,-257.12 16,-251.12 16,-245.12 16,-245.12 16,-204.88 16,-204.88 16,-198.88 22,-192.88 28,-192.88 28,-192.88 334.25,-192.88 334.25,-192.88 340.25,-192.88 346.25,-198.88 346.25,-204.88 346.25,-204.88 346.25,-245.12 346.25,-245.12 346.25,-251.12 340.25,-257.12 334.25,-257.12"/>
<text xml:space="preserve" text-anchor="middle" x="181.12" y="-239.82" font-family="Microsoft YaHei" font-size="14.00">admin Controller</text>
<text xml:space="preserve" text-anchor="middle" x="181.12" y="-221.07" font-family="Microsoft YaHei" font-size="14.00">Employee / Category / Dish / Setmeal</text>
<text xml:space="preserve" text-anchor="middle" x="181.12" y="-202.32" font-family="Microsoft YaHei" font-size="14.00">Order / Report / Workspace / Shop / Common</text>
</g>
<!-- base_svc -->
<g id="node4" class="node">
<title>base_svc</title>
<path fill="#f8fafc" stroke="#344054" d="M663.88,-295.75C663.88,-295.75 415.38,-295.75 415.38,-295.75 409.38,-295.75 403.38,-289.75 403.38,-283.75 403.38,-283.75 403.38,-262.25 403.38,-262.25 403.38,-256.25 409.38,-250.25 415.38,-250.25 415.38,-250.25 663.88,-250.25 663.88,-250.25 669.88,-250.25 675.88,-256.25 675.88,-262.25 675.88,-262.25 675.88,-283.75 675.88,-283.75 675.88,-289.75 669.88,-295.75 663.88,-295.75"/>
<text xml:space="preserve" text-anchor="middle" x="539.62" y="-278.45" font-family="Microsoft YaHei" font-size="14.00">基础资料服务</text>
<text xml:space="preserve" text-anchor="middle" x="539.62" y="-259.7" font-family="Microsoft YaHei" font-size="14.00">员工、分类、菜品、套餐、地址、购物车</text>
</g>
<!-- admin_ctl&#45;&gt;base_svc -->
<g id="edge4" class="edge">
<title>admin_ctl&#45;&gt;base_svc</title>
<path fill="none" stroke="#475467" d="M340.75,-257.55C340.75,-266.11 340.75,-273 340.75,-273 340.75,-273 393.62,-273 393.62,-273"/>
<polygon fill="#475467" stroke="#475467" points="393.62,-275.8 401.62,-273 393.62,-270.2 393.62,-275.8"/>
</g>
<!-- order_svc -->
<g id="node5" class="node">
<title>order_svc</title>
<path fill="#fef3f2" stroke="#344054" d="M671,-373.75C671,-373.75 408.25,-373.75 408.25,-373.75 402.25,-373.75 396.25,-367.75 396.25,-361.75 396.25,-361.75 396.25,-340.25 396.25,-340.25 396.25,-334.25 402.25,-328.25 408.25,-328.25 408.25,-328.25 671,-328.25 671,-328.25 677,-328.25 683,-334.25 683,-340.25 683,-340.25 683,-361.75 683,-361.75 683,-367.75 677,-373.75 671,-373.75"/>
<text xml:space="preserve" text-anchor="middle" x="539.62" y="-356.45" font-family="Microsoft YaHei" font-size="14.00">订单服务</text>
<text xml:space="preserve" text-anchor="middle" x="539.62" y="-337.7" font-family="Microsoft YaHei" font-size="14.00">下单、支付、履约、取消、催单、再来一单</text>
</g>
<!-- admin_ctl&#45;&gt;order_svc -->
<g id="edge6" class="edge">
<title>admin_ctl&#45;&gt;order_svc</title>
<path fill="none" stroke="#475467" d="M334.75,-257.56C334.75,-290.49 334.75,-336.54 334.75,-336.54 334.75,-336.54 386.43,-336.54 386.43,-336.54"/>
<polygon fill="#475467" stroke="#475467" points="386.43,-339.34 394.43,-336.54 386.43,-333.74 386.43,-339.34"/>
</g>
<!-- report_svc -->
<g id="node6" class="node">
<title>report_svc</title>
<path fill="#f4f3ff" stroke="#344054" d="M606.12,-217.75C606.12,-217.75 473.12,-217.75 473.12,-217.75 467.12,-217.75 461.12,-211.75 461.12,-205.75 461.12,-205.75 461.12,-184.25 461.12,-184.25 461.12,-178.25 467.12,-172.25 473.12,-172.25 473.12,-172.25 606.12,-172.25 606.12,-172.25 612.12,-172.25 618.12,-178.25 618.12,-184.25 618.12,-184.25 618.12,-205.75 618.12,-205.75 618.12,-211.75 612.12,-217.75 606.12,-217.75"/>
<text xml:space="preserve" text-anchor="middle" x="539.62" y="-200.45" font-family="Microsoft YaHei" font-size="14.00">经营统计服务</text>
<text xml:space="preserve" text-anchor="middle" x="539.62" y="-181.7" font-family="Microsoft YaHei" font-size="14.00">工作台、报表、Top10</text>
</g>
<!-- admin_ctl&#45;&gt;report_svc -->
<g id="edge8" class="edge">
<title>admin_ctl&#45;&gt;report_svc</title>
<path fill="none" stroke="#475467" d="M346.73,-205.31C346.73,-205.31 451.45,-205.31 451.45,-205.31"/>
<polygon fill="#475467" stroke="#475467" points="451.45,-208.11 459.45,-205.31 451.45,-202.51 451.45,-208.11"/>
</g>
<!-- dto -->
<g id="node7" class="node">
<title>dto</title>
<path fill="#eef4ff" stroke="#344054" d="M1099.25,-522.75C1099.25,-522.75 1021.75,-522.75 1021.75,-522.75 1015.75,-522.75 1009.75,-516.75 1009.75,-510.75 1009.75,-510.75 1009.75,-489.25 1009.75,-489.25 1009.75,-483.25 1015.75,-477.25 1021.75,-477.25 1021.75,-477.25 1099.25,-477.25 1099.25,-477.25 1105.25,-477.25 1111.25,-483.25 1111.25,-489.25 1111.25,-489.25 1111.25,-510.75 1111.25,-510.75 1111.25,-516.75 1105.25,-522.75 1099.25,-522.75"/>
<text xml:space="preserve" text-anchor="middle" x="1060.5" y="-505.45" font-family="Microsoft YaHei" font-size="14.00">DTO</text>
<text xml:space="preserve" text-anchor="middle" x="1060.5" y="-486.7" font-family="Microsoft YaHei" font-size="14.00">接收请求参数</text>
</g>
<!-- admin_ctl&#45;&gt;dto -->
<g id="edge1" class="edge">
<title>admin_ctl&#45;&gt;dto</title>
<path fill="none" stroke="#475467" d="M329.75,-257.52C329.75,-328.79 329.75,-492.42 329.75,-492.42 329.75,-492.42 999.89,-492.42 999.89,-492.42"/>
<polygon fill="#475467" stroke="#475467" points="999.89,-495.22 1007.89,-492.42 999.89,-489.62 999.89,-495.22"/>
</g>
<!-- user_ctl -->
<g id="node2" class="node">
<title>user_ctl</title>
<path fill="#eff8ff" stroke="#344054" d="M312.12,-353.12C312.12,-353.12 50.12,-353.12 50.12,-353.12 44.12,-353.12 38.12,-347.12 38.12,-341.12 38.12,-341.12 38.12,-300.88 38.12,-300.88 38.12,-294.88 44.12,-288.88 50.12,-288.88 50.12,-288.88 312.12,-288.88 312.12,-288.88 318.12,-288.88 324.12,-294.88 324.12,-300.88 324.12,-300.88 324.12,-341.12 324.12,-341.12 324.12,-347.12 318.12,-353.12 312.12,-353.12"/>
<text xml:space="preserve" text-anchor="middle" x="181.12" y="-335.82" font-family="Microsoft YaHei" font-size="14.00">user Controller</text>
<text xml:space="preserve" text-anchor="middle" x="181.12" y="-317.07" font-family="Microsoft YaHei" font-size="14.00">User / Shop / Category / Dish / Setmeal</text>
<text xml:space="preserve" text-anchor="middle" x="181.12" y="-298.32" font-family="Microsoft YaHei" font-size="14.00">ShoppingCart / AddressBook / Order</text>
</g>
<!-- user_ctl&#45;&gt;base_svc -->
<g id="edge5" class="edge">
<title>user_ctl&#45;&gt;base_svc</title>
<path fill="none" stroke="#475467" d="M324.41,-304.25C424.3,-304.25 539.75,-304.25 539.75,-304.25 539.75,-304.25 539.75,-303.43 539.75,-303.43"/>
<polygon fill="#475467" stroke="#475467" points="542.55,-305.55 539.75,-297.55 536.95,-305.55 542.55,-305.55"/>
</g>
<!-- user_ctl&#45;&gt;order_svc -->
<g id="edge7" class="edge">
<title>user_ctl&#45;&gt;order_svc</title>
<path fill="none" stroke="#475467" d="M324.62,-344.83C324.62,-344.83 386.42,-344.83 386.42,-344.83"/>
<polygon fill="#475467" stroke="#475467" points="386.42,-347.63 394.42,-344.83 386.42,-342.03 386.42,-347.63"/>
</g>
<!-- user_ctl&#45;&gt;dto -->
<g id="edge2" class="edge">
<title>user_ctl&#45;&gt;dto</title>
<path fill="none" stroke="#475467" d="M289.75,-353.5C289.75,-406.96 289.75,-507.58 289.75,-507.58 289.75,-507.58 999.82,-507.58 999.82,-507.58"/>
<polygon fill="#475467" stroke="#475467" points="999.82,-510.38 1007.82,-507.58 999.82,-504.78 999.82,-510.38"/>
</g>
<!-- notify_ctl -->
<g id="node3" class="node">
<title>notify_ctl</title>
<path fill="#fff7ed" stroke="#344054" d="M243.5,-430.75C243.5,-430.75 118.75,-430.75 118.75,-430.75 112.75,-430.75 106.75,-424.75 106.75,-418.75 106.75,-418.75 106.75,-397.25 106.75,-397.25 106.75,-391.25 112.75,-385.25 118.75,-385.25 118.75,-385.25 243.5,-385.25 243.5,-385.25 249.5,-385.25 255.5,-391.25 255.5,-397.25 255.5,-397.25 255.5,-418.75 255.5,-418.75 255.5,-424.75 249.5,-430.75 243.5,-430.75"/>
<text xml:space="preserve" text-anchor="middle" x="181.12" y="-413.45" font-family="Microsoft YaHei" font-size="14.00">notify Controller</text>
<text xml:space="preserve" text-anchor="middle" x="181.12" y="-394.7" font-family="Microsoft YaHei" font-size="14.00">PayNotifyController</text>
</g>
<!-- notify_ctl&#45;&gt;order_svc -->
<g id="edge3" class="edge">
<title>notify_ctl&#45;&gt;order_svc</title>
<path fill="none" stroke="#475467" d="M180.75,-384.94C180.75,-374.06 180.75,-363.44 180.75,-363.44 180.75,-363.44 386.47,-363.44 386.47,-363.44"/>
<polygon fill="#475467" stroke="#475467" points="386.47,-366.24 394.47,-363.44 386.47,-360.64 386.47,-366.24"/>
</g>
<!-- vo -->
<g id="node9" class="node">
<title>vo</title>
<path fill="#ecfdf3" stroke="#344054" d="M1099.25,-444.75C1099.25,-444.75 1021.75,-444.75 1021.75,-444.75 1015.75,-444.75 1009.75,-438.75 1009.75,-432.75 1009.75,-432.75 1009.75,-411.25 1009.75,-411.25 1009.75,-405.25 1015.75,-399.25 1021.75,-399.25 1021.75,-399.25 1099.25,-399.25 1099.25,-399.25 1105.25,-399.25 1111.25,-405.25 1111.25,-411.25 1111.25,-411.25 1111.25,-432.75 1111.25,-432.75 1111.25,-438.75 1105.25,-444.75 1099.25,-444.75"/>
<text xml:space="preserve" text-anchor="middle" x="1060.5" y="-427.45" font-family="Microsoft YaHei" font-size="14.00">VO</text>
<text xml:space="preserve" text-anchor="middle" x="1060.5" y="-408.7" font-family="Microsoft YaHei" font-size="14.00">接口响应模型</text>
</g>
<!-- base_svc&#45;&gt;vo -->
<g id="edge13" class="edge">
<title>base_svc&#45;&gt;vo</title>
<path fill="none" stroke="#475467" d="M676.12,-265.42C690.36,-265.42 699.75,-265.42 699.75,-265.42 699.75,-265.42 699.75,-420.25 699.75,-420.25 699.75,-420.25 1000.06,-420.25 1000.06,-420.25"/>
<polygon fill="#475467" stroke="#475467" points="1000.06,-423.05 1008.06,-420.25 1000.06,-417.45 1000.06,-423.05"/>
</g>
<!-- mapper -->
<g id="node11" class="node">
<title>mapper</title>
<path fill="#f8fafc" stroke="#344054" d="M899.75,-217.75C899.75,-217.75 793,-217.75 793,-217.75 787,-217.75 781,-211.75 781,-205.75 781,-205.75 781,-184.25 781,-184.25 781,-178.25 787,-172.25 793,-172.25 793,-172.25 899.75,-172.25 899.75,-172.25 905.75,-172.25 911.75,-178.25 911.75,-184.25 911.75,-184.25 911.75,-205.75 911.75,-205.75 911.75,-211.75 905.75,-217.75 899.75,-217.75"/>
<text xml:space="preserve" text-anchor="middle" x="846.38" y="-200.45" font-family="Microsoft YaHei" font-size="14.00">Mapper</text>
<text xml:space="preserve" text-anchor="middle" x="846.38" y="-181.7" font-family="Microsoft YaHei" font-size="14.00">MyBatis 数据访问</text>
</g>
<!-- base_svc&#45;&gt;mapper -->
<g id="edge9" class="edge">
<title>base_svc&#45;&gt;mapper</title>
<path fill="none" stroke="#475467" d="M646.75,-249.76C646.75,-228.24 646.75,-199.55 646.75,-199.55 646.75,-199.55 771.22,-199.55 771.22,-199.55"/>
<polygon fill="#475467" stroke="#475467" points="771.22,-202.35 779.22,-199.55 771.22,-196.75 771.22,-202.35"/>
</g>
<!-- order_svc&#45;&gt;vo -->
<g id="edge14" class="edge">
<title>order_svc&#45;&gt;vo</title>
<path fill="none" stroke="#475467" d="M683.41,-370.25C832.42,-370.25 1043.75,-370.25 1043.75,-370.25 1043.75,-370.25 1043.75,-389.34 1043.75,-389.34"/>
<polygon fill="#475467" stroke="#475467" points="1040.95,-389.34 1043.75,-397.34 1046.55,-389.34 1040.95,-389.34"/>
</g>
<!-- order_svc&#45;&gt;mapper -->
<g id="edge10" class="edge">
<title>order_svc&#45;&gt;mapper</title>
<path fill="none" stroke="#475467" d="M677.75,-327.81C677.75,-287.48 677.75,-208.65 677.75,-208.65 677.75,-208.65 771.18,-208.65 771.18,-208.65"/>
<polygon fill="#475467" stroke="#475467" points="771.18,-211.45 779.18,-208.65 771.18,-205.85 771.18,-211.45"/>
</g>
<!-- util -->
<g id="node14" class="node">
<title>util</title>
<path fill="#f8fafc" stroke="#344054" d="M938.75,-295.75C938.75,-295.75 754,-295.75 754,-295.75 748,-295.75 742,-289.75 742,-283.75 742,-283.75 742,-262.25 742,-262.25 742,-256.25 748,-250.25 754,-250.25 754,-250.25 938.75,-250.25 938.75,-250.25 944.75,-250.25 950.75,-256.25 950.75,-262.25 950.75,-262.25 950.75,-283.75 950.75,-283.75 950.75,-289.75 944.75,-295.75 938.75,-295.75"/>
<text xml:space="preserve" text-anchor="middle" x="846.38" y="-278.45" font-family="Microsoft YaHei" font-size="14.00">Utils</text>
<text xml:space="preserve" text-anchor="middle" x="846.38" y="-259.7" font-family="Microsoft YaHei" font-size="14.00">OSS / JWT / HTTP / 微信支付</text>
</g>
<!-- order_svc&#45;&gt;util -->
<g id="edge20" class="edge">
<title>order_svc&#45;&gt;util</title>
<path fill="none" stroke="#475467" d="M680.75,-327.94C680.75,-307.41 680.75,-280.58 680.75,-280.58 680.75,-280.58 732.44,-280.58 732.44,-280.58"/>
<polygon fill="#475467" stroke="#475467" points="732.44,-283.38 740.44,-280.58 732.44,-277.78 732.44,-283.38"/>
</g>
<!-- report_svc&#45;&gt;vo -->
<g id="edge15" class="edge">
<title>report_svc&#45;&gt;vo</title>
<path fill="none" stroke="#475467" d="M618.6,-190.45C665.84,-190.45 716.75,-190.45 716.75,-190.45 716.75,-190.45 716.75,-409.75 716.75,-409.75 716.75,-409.75 999.89,-409.75 999.89,-409.75"/>
<polygon fill="#475467" stroke="#475467" points="999.89,-412.55 1007.89,-409.75 999.89,-406.95 999.89,-412.55"/>
</g>
<!-- report_svc&#45;&gt;mapper -->
<g id="edge11" class="edge">
<title>report_svc&#45;&gt;mapper</title>
<path fill="none" stroke="#475467" d="M618.62,-181.35C618.62,-181.35 771.08,-181.35 771.08,-181.35"/>
<polygon fill="#475467" stroke="#475467" points="771.08,-184.15 779.08,-181.35 771.08,-178.55 771.08,-184.15"/>
</g>
<!-- entity -->
<g id="node8" class="node">
<title>entity</title>
<path fill="#f8fafc" stroke="#344054" d="M1099.25,-366.75C1099.25,-366.75 1021.75,-366.75 1021.75,-366.75 1015.75,-366.75 1009.75,-360.75 1009.75,-354.75 1009.75,-354.75 1009.75,-333.25 1009.75,-333.25 1009.75,-327.25 1015.75,-321.25 1021.75,-321.25 1021.75,-321.25 1099.25,-321.25 1099.25,-321.25 1105.25,-321.25 1111.25,-327.25 1111.25,-333.25 1111.25,-333.25 1111.25,-354.75 1111.25,-354.75 1111.25,-360.75 1105.25,-366.75 1099.25,-366.75"/>
<text xml:space="preserve" text-anchor="middle" x="1060.5" y="-349.45" font-family="Microsoft YaHei" font-size="14.00">Entity</text>
<text xml:space="preserve" text-anchor="middle" x="1060.5" y="-330.7" font-family="Microsoft YaHei" font-size="14.00">数据库表映射</text>
</g>
<!-- result -->
<g id="node10" class="node">
<title>result</title>
<path fill="#fff7ed" stroke="#344054" d="M1295.75,-405.75C1295.75,-405.75 1173.25,-405.75 1173.25,-405.75 1167.25,-405.75 1161.25,-399.75 1161.25,-393.75 1161.25,-393.75 1161.25,-372.25 1161.25,-372.25 1161.25,-366.25 1167.25,-360.25 1173.25,-360.25 1173.25,-360.25 1295.75,-360.25 1295.75,-360.25 1301.75,-360.25 1307.75,-366.25 1307.75,-372.25 1307.75,-372.25 1307.75,-393.75 1307.75,-393.75 1307.75,-399.75 1301.75,-405.75 1295.75,-405.75"/>
<text xml:space="preserve" text-anchor="middle" x="1234.5" y="-388.45" font-family="Microsoft YaHei" font-size="14.00">Result / PageResult</text>
<text xml:space="preserve" text-anchor="middle" x="1234.5" y="-369.7" font-family="Microsoft YaHei" font-size="14.00">统一响应包装</text>
</g>
<!-- vo&#45;&gt;result -->
<g id="edge16" class="edge">
<title>vo&#45;&gt;result</title>
<path fill="none" stroke="#475467" d="M1077.75,-398.85C1077.75,-395.01 1077.75,-392.25 1077.75,-392.25 1077.75,-392.25 1151.66,-392.25 1151.66,-392.25"/>
<polygon fill="#475467" stroke="#475467" points="1151.66,-395.05 1159.66,-392.25 1151.66,-389.45 1151.66,-395.05"/>
</g>
<!-- mapper&#45;&gt;entity -->
<g id="edge12" class="edge">
<title>mapper&#45;&gt;entity</title>
<path fill="none" stroke="#475467" d="M912.15,-195C975.17,-195 1060.75,-195 1060.75,-195 1060.75,-195 1060.75,-311.53 1060.75,-311.53"/>
<polygon fill="#475467" stroke="#475467" points="1057.95,-311.53 1060.75,-319.53 1063.55,-311.53 1057.95,-311.53"/>
</g>
<!-- exception -->
<g id="node12" class="node">
<title>exception</title>
<path fill="#f8fafc" stroke="#344054" d="M923.38,-139.75C923.38,-139.75 769.38,-139.75 769.38,-139.75 763.38,-139.75 757.38,-133.75 757.38,-127.75 757.38,-127.75 757.38,-106.25 757.38,-106.25 757.38,-100.25 763.38,-94.25 769.38,-94.25 769.38,-94.25 923.38,-94.25 923.38,-94.25 929.38,-94.25 935.38,-100.25 935.38,-106.25 935.38,-106.25 935.38,-127.75 935.38,-127.75 935.38,-133.75 929.38,-139.75 923.38,-139.75"/>
<text xml:space="preserve" text-anchor="middle" x="846.38" y="-122.45" font-family="Microsoft YaHei" font-size="14.00">GlobalExceptionHandler</text>
<text xml:space="preserve" text-anchor="middle" x="846.38" y="-103.7" font-family="Microsoft YaHei" font-size="14.00">业务异常统一返回</text>
</g>
<!-- exception&#45;&gt;result -->
<g id="edge17" class="edge">
<title>exception&#45;&gt;result</title>
<path fill="none" stroke="#475467" d="M935.48,-117C1050.14,-117 1234.75,-117 1234.75,-117 1234.75,-117 1234.75,-350.35 1234.75,-350.35"/>
<polygon fill="#475467" stroke="#475467" points="1231.95,-350.35 1234.75,-358.35 1237.55,-350.35 1231.95,-350.35"/>
</g>
<!-- jwt -->
<g id="node13" class="node">
<title>jwt</title>
<path fill="#f8fafc" stroke="#344054" d="M947.75,-61.75C947.75,-61.75 745,-61.75 745,-61.75 739,-61.75 733,-55.75 733,-49.75 733,-49.75 733,-28.25 733,-28.25 733,-22.25 739,-16.25 745,-16.25 745,-16.25 947.75,-16.25 947.75,-16.25 953.75,-16.25 959.75,-22.25 959.75,-28.25 959.75,-28.25 959.75,-49.75 959.75,-49.75 959.75,-55.75 953.75,-61.75 947.75,-61.75"/>
<text xml:space="preserve" text-anchor="middle" x="846.38" y="-44.45" font-family="Microsoft YaHei" font-size="14.00">JWT Interceptor + BaseContext</text>
<text xml:space="preserve" text-anchor="middle" x="846.38" y="-25.7" font-family="Microsoft YaHei" font-size="14.00">登录态解析与当前用户上下文</text>
</g>
<!-- jwt&#45;&gt;admin_ctl -->
<g id="edge18" class="edge">
<title>jwt&#45;&gt;admin_ctl</title>
<path fill="none" stroke="#475467" stroke-dasharray="5,2" d="M735.75,-62.13C735.75,-113.79 735.75,-234 735.75,-234 735.75,-234 355.92,-234 355.92,-234"/>
<polygon fill="#475467" stroke="#475467" points="355.92,-231.2 347.92,-234 355.92,-236.8 355.92,-231.2"/>
</g>
<!-- jwt&#45;&gt;user_ctl -->
<g id="edge19" class="edge">
<title>jwt&#45;&gt;user_ctl</title>
<path fill="none" stroke="#475467" stroke-dasharray="5,2" d="M738.75,-61.87C738.75,-127.66 738.75,-312.75 738.75,-312.75 738.75,-312.75 333.88,-312.75 333.88,-312.75"/>
<polygon fill="#475467" stroke="#475467" points="333.88,-309.95 325.88,-312.75 333.88,-315.55 333.88,-309.95"/>
</g>
</g>
</svg>
