<?xml version="1.0" encoding="UTF-8" standalone="no"?>
<!DOCTYPE svg PUBLIC "-//W3C//DTD SVG 1.1//EN"
 "http://www.w3.org/Graphics/SVG/1.1/DTD/svg11.dtd">
<!-- Generated by graphviz version 15.0.0 (20260523.1842)
 -->
<!-- Title: G Pages: 1 -->
<svg width="1787pt" height="417pt"
 viewBox="0.00 0.00 1787.00 417.00" xmlns="http://www.w3.org/2000/svg" xmlns:xlink="http://www.w3.org/1999/xlink">
<g id="graph0" class="graph" transform="scale(1 1) rotate(0) translate(18 399.17)">
<title>G</title>
<polygon fill="white" stroke="none" points="-18,18 -18,-399.17 1769.42,-399.17 1769.42,18 -18,18"/>
<!-- start -->
<g id="node1" class="node">
<title>start</title>
<ellipse fill="#ecfdf3" stroke="#344054" cx="31.47" cy="-33" rx="31.47" ry="31.47"/>
<text xml:space="preserve" text-anchor="middle" x="31.47" y="-29.07" font-family="Microsoft YaHei" font-size="14.00">开始</text>
</g>
<!-- pending_payment -->
<g id="node2" class="node">
<title>pending_payment</title>
<ellipse fill="#f8fafc" stroke="#344054" cx="309.21" cy="-33" rx="106.77" ry="32.17"/>
<text xml:space="preserve" text-anchor="middle" x="309.21" y="-38.45" font-family="Microsoft YaHei" font-size="14.00">1 待付款</text>
<text xml:space="preserve" text-anchor="middle" x="309.21" y="-19.7" font-family="Microsoft YaHei" font-size="14.00">PENDING_PAYMENT</text>
</g>
<!-- start&#45;&gt;pending_payment -->
<g id="edge1" class="edge">
<title>start&#45;&gt;pending_payment</title>
<path fill="none" stroke="#475467" d="M63.29,-33C94.78,-33 145.61,-33 192.83,-33"/>
<polygon fill="#475467" stroke="#475467" points="192.7,-35.8 200.7,-33 192.7,-30.2 192.7,-35.8"/>
<text xml:space="preserve" text-anchor="middle" x="132.68" y="-38.45" font-family="Microsoft YaHei" font-size="14.00">用户提交订单</text>
</g>
<!-- to_confirm -->
<g id="node3" class="node">
<title>to_confirm</title>
<ellipse fill="#f8fafc" stroke="#344054" cx="680.82" cy="-99" rx="103.59" ry="32.17"/>
<text xml:space="preserve" text-anchor="middle" x="680.82" y="-104.45" font-family="Microsoft YaHei" font-size="14.00">2 待接单</text>
<text xml:space="preserve" text-anchor="middle" x="680.82" y="-85.7" font-family="Microsoft YaHei" font-size="14.00">TO_BE_CONFIRMED</text>
</g>
<!-- pending_payment&#45;&gt;to_confirm -->
<g id="edge2" class="edge">
<title>pending_payment&#45;&gt;to_confirm</title>
<path fill="none" stroke="#475467" d="M401.57,-49.31C456.04,-59.04 525.22,-71.39 580.96,-81.35"/>
<polygon fill="#475467" stroke="#475467" points="580.29,-84.07 588.65,-82.72 581.27,-78.56 580.29,-84.07"/>
<text xml:space="preserve" text-anchor="middle" x="496.6" y="-99.97" font-family="Microsoft YaHei" font-size="14.00">支付成功</text>
<text xml:space="preserve" text-anchor="middle" x="496.6" y="-81.22" font-family="Microsoft YaHei" font-size="14.00">payStatus=PAID</text>
</g>
<!-- cancelled -->
<g id="node7" class="node">
<title>cancelled</title>
<ellipse fill="#fef3f2" stroke="#344054" cx="1681.24" cy="-150" rx="67.53" ry="32.17"/>
<text xml:space="preserve" text-anchor="middle" x="1681.24" y="-155.45" font-family="Microsoft YaHei" font-size="14.00">6 已取消</text>
<text xml:space="preserve" text-anchor="middle" x="1681.24" y="-136.7" font-family="Microsoft YaHei" font-size="14.00">CANCELLED</text>
</g>
<!-- pending_payment&#45;&gt;cancelled -->
<g id="edge3" class="edge">
<title>pending_payment&#45;&gt;cancelled</title>
<path fill="none" stroke="#475467" d="M406.88,-19.63C481.33,-10.48 586.89,0 679.82,0 679.82,0 679.82,0 1346.17,0 1459.57,0 1577.13,-72.82 1638,-116.99"/>
<polygon fill="#475467" stroke="#475467" points="1636.17,-119.11 1644.27,-121.59 1639.48,-114.6 1636.17,-119.11"/>
<text xml:space="preserve" text-anchor="middle" x="965.59" y="-24.2" font-family="Microsoft YaHei" font-size="14.00">用户取消</text>
<text xml:space="preserve" text-anchor="middle" x="965.59" y="-5.45" font-family="Microsoft YaHei" font-size="14.00">无需退款</text>
</g>
<!-- confirmed -->
<g id="node4" class="node">
<title>confirmed</title>
<ellipse fill="#f8fafc" stroke="#344054" cx="965.59" cy="-200" rx="70.18" ry="32.17"/>
<text xml:space="preserve" text-anchor="middle" x="965.59" y="-205.45" font-family="Microsoft YaHei" font-size="14.00">3 已接单</text>
<text xml:space="preserve" text-anchor="middle" x="965.59" y="-186.7" font-family="Microsoft YaHei" font-size="14.00">CONFIRMED</text>
</g>
<!-- to_confirm&#45;&gt;confirmed -->
<g id="edge4" class="edge">
<title>to_confirm&#45;&gt;confirmed</title>
<path fill="none" stroke="#475467" d="M749.91,-123.32C795.72,-139.68 855.72,-161.11 900.64,-177.16"/>
<polygon fill="#475467" stroke="#475467" points="899.51,-179.73 907.99,-179.78 901.39,-174.45 899.51,-179.73"/>
<text xml:space="preserve" text-anchor="middle" x="839.91" y="-169.9" font-family="Microsoft YaHei" font-size="14.00">商家接单</text>
</g>
<!-- to_confirm&#45;&gt;cancelled -->
<g id="edge5" class="edge">
<title>to_confirm&#45;&gt;cancelled</title>
<path fill="none" stroke="#475467" d="M783.51,-104.19C984.18,-114.44 1427.02,-137.07 1604.5,-146.13"/>
<polygon fill="#475467" stroke="#475467" points="1604.12,-148.92 1612.25,-146.53 1604.41,-143.32 1604.12,-148.92"/>
<text xml:space="preserve" text-anchor="middle" x="1127.27" y="-148.7" font-family="Microsoft YaHei" font-size="14.00">商家拒单 / 用户取消</text>
<text xml:space="preserve" text-anchor="middle" x="1127.27" y="-129.95" font-family="Microsoft YaHei" font-size="14.00">已支付需退款</text>
</g>
<!-- delivering -->
<g id="node5" class="node">
<title>delivering</title>
<ellipse fill="#f8fafc" stroke="#344054" cx="1345.17" cy="-310" rx="126.4" ry="32.17"/>
<text xml:space="preserve" text-anchor="middle" x="1345.17" y="-315.45" font-family="Microsoft YaHei" font-size="14.00">4 派送中</text>
<text xml:space="preserve" text-anchor="middle" x="1345.17" y="-296.7" font-family="Microsoft YaHei" font-size="14.00">DELIVERY_IN_PROGRESS</text>
</g>
<!-- confirmed&#45;&gt;delivering -->
<g id="edge6" class="edge">
<title>confirmed&#45;&gt;delivering</title>
<path fill="none" stroke="#475467" d="M1023.44,-218.72C1036.34,-222.86 1050.01,-227.15 1062.77,-231 1124.33,-249.55 1193.88,-269.09 1248.43,-284.1"/>
<polygon fill="#475467" stroke="#475467" points="1247.48,-286.74 1255.94,-286.16 1248.97,-281.34 1247.48,-286.74"/>
<text xml:space="preserve" text-anchor="middle" x="1127.27" y="-272.18" font-family="Microsoft YaHei" font-size="14.00">商家派送</text>
</g>
<!-- confirmed&#45;&gt;cancelled -->
<g id="edge8" class="edge">
<title>confirmed&#45;&gt;cancelled</title>
<path fill="none" stroke="#475467" d="M1035.34,-195.18C1169.46,-185.79 1465.06,-165.08 1604.55,-155.3"/>
<polygon fill="#475467" stroke="#475467" points="1604.62,-158.11 1612.41,-154.75 1604.23,-152.52 1604.62,-158.11"/>
<text xml:space="preserve" text-anchor="middle" x="1345.17" y="-205.8" font-family="Microsoft YaHei" font-size="14.00">商家取消</text>
<text xml:space="preserve" text-anchor="middle" x="1345.17" y="-187.05" font-family="Microsoft YaHei" font-size="14.00">按支付状态退款</text>
</g>
<!-- completed -->
<g id="node6" class="node">
<title>completed</title>
<ellipse fill="#ecfdf3" stroke="#344054" cx="1681.24" cy="-349" rx="70.18" ry="32.17"/>
<text xml:space="preserve" text-anchor="middle" x="1681.24" y="-354.45" font-family="Microsoft YaHei" font-size="14.00">5 已完成</text>
<text xml:space="preserve" text-anchor="middle" x="1681.24" y="-335.7" font-family="Microsoft YaHei" font-size="14.00">COMPLETED</text>
</g>
<!-- delivering&#45;&gt;completed -->
<g id="edge7" class="edge">
<title>delivering&#45;&gt;completed</title>
<path fill="none" stroke="#475467" d="M1460.67,-323.37C1507.73,-328.86 1560.99,-335.08 1603.26,-340.01"/>
<polygon fill="#475467" stroke="#475467" points="1602.89,-342.79 1611.16,-340.93 1603.53,-337.23 1602.89,-342.79"/>
<text xml:space="preserve" text-anchor="middle" x="1541.31" y="-361.68" font-family="Microsoft YaHei" font-size="14.00">商家完成</text>
<text xml:space="preserve" text-anchor="middle" x="1541.31" y="-342.93" font-family="Microsoft YaHei" font-size="14.00">记录送达时间</text>
</g>
<!-- delivering&#45;&gt;cancelled -->
<g id="edge9" class="edge">
<title>delivering&#45;&gt;cancelled</title>
<path fill="none" stroke="#475467" d="M1429.64,-285.67C1476.47,-270.43 1535.13,-248.63 1584.06,-222 1603.6,-211.36 1623.56,-197.09 1640.19,-184.06"/>
<polygon fill="#475467" stroke="#475467" points="1641.88,-186.29 1646.4,-179.12 1638.39,-181.91 1641.88,-186.29"/>
<text xml:space="preserve" text-anchor="middle" x="1541.31" y="-283.97" font-family="Microsoft YaHei" font-size="14.00">商家取消</text>
<text xml:space="preserve" text-anchor="middle" x="1541.31" y="-265.22" font-family="Microsoft YaHei" font-size="14.00">记录原因</text>
</g>
</g>
</svg>
