<?xml version="1.0" encoding="UTF-8" standalone="no"?>
<!DOCTYPE svg PUBLIC "-//W3C//DTD SVG 1.1//EN"
 "http://www.w3.org/Graphics/SVG/1.1/DTD/svg11.dtd">
<!-- Generated by graphviz version 15.0.0 (20260523.1842)
 -->
<!-- Title: G Pages: 1 -->
<svg width="1561pt" height="500pt"
 viewBox="0.00 0.00 1561.00 500.00" xmlns="http://www.w3.org/2000/svg" xmlns:xlink="http://www.w3.org/1999/xlink">
<g id="graph0" class="graph" transform="scale(1 1) rotate(0) translate(18 481.75)">
<title>G</title>
<polygon fill="white" stroke="none" points="-18,18 -18,-481.75 1542.5,-481.75 1542.5,18 -18,18"/>
<!-- user -->
<g id="node1" class="node">
<title>user</title>
<path fill="#f8fafc" stroke="#344054" d="M42,-249C42,-249 12,-249 12,-249 6,-249 0,-243 0,-237 0,-237 0,-225 0,-225 0,-219 6,-213 12,-213 12,-213 42,-213 42,-213 48,-213 54,-219 54,-225 54,-225 54,-237 54,-237 54,-243 48,-249 42,-249"/>
<text xml:space="preserve" text-anchor="middle" x="27" y="-227.07" font-family="Microsoft YaHei" font-size="14.00">用户</text>
</g>
<!-- wx -->
<g id="node2" class="node">
<title>wx</title>
<path fill="#f8fafc" stroke="#344054" d="M277,-249C277,-249 213.75,-249 213.75,-249 207.75,-249 201.75,-243 201.75,-237 201.75,-237 201.75,-225 201.75,-225 201.75,-219 207.75,-213 213.75,-213 213.75,-213 277,-213 277,-213 283,-213 289,-219 289,-225 289,-225 289,-237 289,-237 289,-243 283,-249 277,-249"/>
<text xml:space="preserve" text-anchor="middle" x="245.38" y="-227.07" font-family="Microsoft YaHei" font-size="14.00">微信小程序</text>
</g>
<!-- user&#45;&gt;wx -->
<g id="edge1" class="edge">
<title>user&#45;&gt;wx</title>
<path fill="none" stroke="#475467" d="M54.22,-231C54.22,-231 192.04,-231 192.04,-231"/>
<polygon fill="#475467" stroke="#475467" points="192.04,-233.8 200.04,-231 192.04,-228.2 192.04,-233.8"/>
<text xml:space="preserve" text-anchor="middle" x="127.88" y="-236.45" font-family="Microsoft YaHei" font-size="14.00">选择商品和地址</text>
</g>
<!-- order_ctl -->
<g id="node3" class="node">
<title>order_ctl</title>
<path fill="#f8fafc" stroke="#344054" d="M616.25,-253.75C616.25,-253.75 482.5,-253.75 482.5,-253.75 476.5,-253.75 470.5,-247.75 470.5,-241.75 470.5,-241.75 470.5,-220.25 470.5,-220.25 470.5,-214.25 476.5,-208.25 482.5,-208.25 482.5,-208.25 616.25,-208.25 616.25,-208.25 622.25,-208.25 628.25,-214.25 628.25,-220.25 628.25,-220.25 628.25,-241.75 628.25,-241.75 628.25,-247.75 622.25,-253.75 616.25,-253.75"/>
<text xml:space="preserve" text-anchor="middle" x="549.38" y="-236.45" font-family="Microsoft YaHei" font-size="14.00">User OrderController</text>
<text xml:space="preserve" text-anchor="middle" x="549.38" y="-217.7" font-family="Microsoft YaHei" font-size="14.00">/user/order</text>
</g>
<!-- wx&#45;&gt;order_ctl -->
<g id="edge2" class="edge">
<title>wx&#45;&gt;order_ctl</title>
<path fill="none" stroke="#475467" d="M289.25,-234.6C289.25,-234.6 460.65,-234.6 460.65,-234.6"/>
<polygon fill="#475467" stroke="#475467" points="460.65,-237.4 468.65,-234.6 460.65,-231.8 460.65,-237.4"/>
<text xml:space="preserve" text-anchor="middle" x="379.75" y="-354.2" font-family="Microsoft YaHei" font-size="14.00">POST /submit</text>
<text xml:space="preserve" text-anchor="middle" x="379.75" y="-335.45" font-family="Microsoft YaHei" font-size="14.00">OrdersSubmitDTO</text>
</g>
<!-- wx&#45;&gt;order_ctl -->
<g id="edge12" class="edge">
<title>wx&#45;&gt;order_ctl</title>
<path fill="none" stroke="#475467" d="M289.25,-241.8C289.25,-241.8 460.65,-241.8 460.65,-241.8"/>
<polygon fill="#475467" stroke="#475467" points="460.65,-244.6 468.65,-241.8 460.65,-239 460.65,-244.6"/>
<text xml:space="preserve" text-anchor="middle" x="379.75" y="-282.2" font-family="Microsoft YaHei" font-size="14.00">PUT /payment</text>
<text xml:space="preserve" text-anchor="middle" x="379.75" y="-263.45" font-family="Microsoft YaHei" font-size="14.00">OrdersPaymentDTO</text>
</g>
<!-- order_ctl&#45;&gt;wx -->
<g id="edge11" class="edge">
<title>order_ctl&#45;&gt;wx</title>
<path fill="none" stroke="#475467" d="M470.3,-220.2C470.3,-220.2 298.8,-220.2 298.8,-220.2"/>
<polygon fill="#475467" stroke="#475467" points="298.8,-217.4 290.8,-220.2 298.8,-223 298.8,-217.4"/>
<text xml:space="preserve" text-anchor="middle" x="379.75" y="-210.45" font-family="Microsoft YaHei" font-size="14.00">Result.success</text>
</g>
<!-- order_ctl&#45;&gt;wx -->
<g id="edge18" class="edge">
<title>order_ctl&#45;&gt;wx</title>
<path fill="none" stroke="#475467" d="M470.3,-227.4C470.3,-227.4 298.8,-227.4 298.8,-227.4"/>
<polygon fill="#475467" stroke="#475467" points="298.8,-224.6 290.8,-227.4 298.8,-230.2 298.8,-224.6"/>
<text xml:space="preserve" text-anchor="middle" x="379.75" y="-157.45" font-family="Microsoft YaHei" font-size="14.00">支付结果</text>
</g>
<!-- order_svc -->
<g id="node4" class="node">
<title>order_svc</title>
<path fill="#f8fafc" stroke="#344054" d="M951.75,-249C951.75,-249 842.75,-249 842.75,-249 836.75,-249 830.75,-243 830.75,-237 830.75,-237 830.75,-225 830.75,-225 830.75,-219 836.75,-213 842.75,-213 842.75,-213 951.75,-213 951.75,-213 957.75,-213 963.75,-219 963.75,-225 963.75,-225 963.75,-237 963.75,-237 963.75,-243 957.75,-249 951.75,-249"/>
<text xml:space="preserve" text-anchor="middle" x="897.25" y="-227.07" font-family="Microsoft YaHei" font-size="14.00">OrderServiceImpl</text>
</g>
<!-- order_ctl&#45;&gt;order_svc -->
<g id="edge3" class="edge">
<title>order_ctl&#45;&gt;order_svc</title>
<path fill="none" stroke="#475467" d="M628.75,-241.8C628.75,-241.8 820.98,-241.8 820.98,-241.8"/>
<polygon fill="#475467" stroke="#475467" points="820.98,-244.6 828.98,-241.8 820.98,-239 820.98,-244.6"/>
<text xml:space="preserve" text-anchor="middle" x="729.5" y="-316.45" font-family="Microsoft YaHei" font-size="14.00">submitOrder(dto)</text>
</g>
<!-- order_ctl&#45;&gt;order_svc -->
<g id="edge13" class="edge">
<title>order_ctl&#45;&gt;order_svc</title>
<path fill="none" stroke="#475467" d="M628.75,-234.6C628.75,-234.6 820.98,-234.6 820.98,-234.6"/>
<polygon fill="#475467" stroke="#475467" points="820.98,-237.4 828.98,-234.6 820.98,-231.8 820.98,-237.4"/>
<text xml:space="preserve" text-anchor="middle" x="729.5" y="-263.45" font-family="Microsoft YaHei" font-size="14.00">payment(dto)</text>
</g>
<!-- order_svc&#45;&gt;order_ctl -->
<g id="edge10" class="edge">
<title>order_svc&#45;&gt;order_ctl</title>
<path fill="none" stroke="#475467" d="M830.59,-220.2C830.59,-220.2 638.12,-220.2 638.12,-220.2"/>
<polygon fill="#475467" stroke="#475467" points="638.12,-217.4 630.12,-220.2 638.12,-223 638.12,-217.4"/>
<text xml:space="preserve" text-anchor="middle" x="729.5" y="-210.45" font-family="Microsoft YaHei" font-size="14.00">OrderSubmitVO</text>
</g>
<!-- order_svc&#45;&gt;order_ctl -->
<g id="edge17" class="edge">
<title>order_svc&#45;&gt;order_ctl</title>
<path fill="none" stroke="#475467" d="M830.59,-227.4C830.59,-227.4 638.12,-227.4 638.12,-227.4"/>
<polygon fill="#475467" stroke="#475467" points="638.12,-224.6 630.12,-227.4 638.12,-230.2 638.12,-224.6"/>
<text xml:space="preserve" text-anchor="middle" x="729.5" y="-157.45" font-family="Microsoft YaHei" font-size="14.00">OrderPaymentVO(fake)</text>
</g>
<!-- address -->
<g id="node5" class="node">
<title>address</title>
<path fill="#f8fafc" stroke="#344054" d="M1318.38,-463C1318.38,-463 1185.38,-463 1185.38,-463 1179.38,-463 1173.38,-457 1173.38,-451 1173.38,-451 1173.38,-439 1173.38,-439 1173.38,-433 1179.38,-427 1185.38,-427 1185.38,-427 1318.38,-427 1318.38,-427 1324.38,-427 1330.38,-433 1330.38,-439 1330.38,-439 1330.38,-451 1330.38,-451 1330.38,-457 1324.38,-463 1318.38,-463"/>
<text xml:space="preserve" text-anchor="middle" x="1251.88" y="-441.07" font-family="Microsoft YaHei" font-size="14.00">AddressBookMapper</text>
</g>
<!-- order_svc&#45;&gt;address -->
<g id="edge4" class="edge">
<title>order_svc&#45;&gt;address</title>
<path fill="none" stroke="#475467" d="M897.5,-249.25C897.5,-301 897.5,-445 897.5,-445 897.5,-445 1163.71,-445 1163.71,-445"/>
<polygon fill="#475467" stroke="#475467" points="1163.71,-447.8 1171.71,-445 1163.71,-442.2 1163.71,-447.8"/>
<text xml:space="preserve" text-anchor="middle" x="1067.62" y="-450.45" font-family="Microsoft YaHei" font-size="14.00">getById(addressBookId)</text>
</g>
<!-- cart -->
<g id="node6" class="node">
<title>cart</title>
<path fill="#f8fafc" stroke="#344054" d="M1320.25,-377C1320.25,-377 1183.5,-377 1183.5,-377 1177.5,-377 1171.5,-371 1171.5,-365 1171.5,-365 1171.5,-353 1171.5,-353 1171.5,-347 1177.5,-341 1183.5,-341 1183.5,-341 1320.25,-341 1320.25,-341 1326.25,-341 1332.25,-347 1332.25,-353 1332.25,-353 1332.25,-365 1332.25,-365 1332.25,-371 1326.25,-377 1320.25,-377"/>
<text xml:space="preserve" text-anchor="middle" x="1251.88" y="-355.07" font-family="Microsoft YaHei" font-size="14.00">ShoppingCartMapper</text>
</g>
<!-- order_svc&#45;&gt;cart -->
<g id="edge6" class="edge">
<title>order_svc&#45;&gt;cart</title>
<path fill="none" stroke="#475467" d="M964.1,-239.4C1049.26,-239.4 1185.5,-239.4 1185.5,-239.4 1185.5,-239.4 1185.5,-331.06 1185.5,-331.06"/>
<polygon fill="#475467" stroke="#475467" points="1182.7,-331.06 1185.5,-339.06 1188.3,-331.06 1182.7,-331.06"/>
<text xml:space="preserve" text-anchor="middle" x="1067.62" y="-397.45" font-family="Microsoft YaHei" font-size="14.00">list(currentUser)</text>
</g>
<!-- order_svc&#45;&gt;cart -->
<g id="edge9" class="edge">
<title>order_svc&#45;&gt;cart</title>
<path fill="none" stroke="#475467" d="M963.9,-244.2C1046.22,-244.2 1175.5,-244.2 1175.5,-244.2 1175.5,-244.2 1175.5,-331.04 1175.5,-331.04"/>
<polygon fill="#475467" stroke="#475467" points="1172.7,-331.04 1175.5,-339.04 1178.3,-331.04 1172.7,-331.04"/>
<text xml:space="preserve" text-anchor="middle" x="1067.62" y="-344.45" font-family="Microsoft YaHei" font-size="14.00">deleteByUserId</text>
</g>
<!-- order_mapper -->
<g id="node7" class="node">
<title>order_mapper</title>
<path fill="#f8fafc" stroke="#344054" d="M1293.62,-261C1293.62,-261 1210.12,-261 1210.12,-261 1204.12,-261 1198.12,-255 1198.12,-249 1198.12,-249 1198.12,-237 1198.12,-237 1198.12,-231 1204.12,-225 1210.12,-225 1210.12,-225 1293.62,-225 1293.62,-225 1299.62,-225 1305.62,-231 1305.62,-237 1305.62,-237 1305.62,-249 1305.62,-249 1305.62,-255 1299.62,-261 1293.62,-261"/>
<text xml:space="preserve" text-anchor="middle" x="1251.88" y="-239.07" font-family="Microsoft YaHei" font-size="14.00">OrderMapper</text>
</g>
<!-- order_svc&#45;&gt;order_mapper -->
<g id="edge7" class="edge">
<title>order_svc&#45;&gt;order_mapper</title>
<path fill="none" stroke="#475467" d="M963.95,-234.6C963.95,-234.6 1188.14,-234.6 1188.14,-234.6"/>
<polygon fill="#475467" stroke="#475467" points="1188.14,-237.4 1196.14,-234.6 1188.14,-231.8 1188.14,-237.4"/>
<text xml:space="preserve" text-anchor="middle" x="1067.62" y="-291.2" font-family="Microsoft YaHei" font-size="14.00">insert(orders)</text>
<text xml:space="preserve" text-anchor="middle" x="1067.62" y="-272.45" font-family="Microsoft YaHei" font-size="14.00">状态=待付款</text>
</g>
<!-- order_svc&#45;&gt;order_mapper -->
<g id="edge14" class="edge">
<title>order_svc&#45;&gt;order_mapper</title>
<path fill="none" stroke="#475467" d="M963.95,-229.8C963.95,-229.8 1188.14,-229.8 1188.14,-229.8"/>
<polygon fill="#475467" stroke="#475467" points="1188.14,-232.6 1196.14,-229.8 1188.14,-227 1188.14,-232.6"/>
<text xml:space="preserve" text-anchor="middle" x="1067.62" y="-219.2" font-family="Microsoft YaHei" font-size="14.00">update</text>
<text xml:space="preserve" text-anchor="middle" x="1067.62" y="-200.45" font-family="Microsoft YaHei" font-size="14.00">状态=待接单, 已支付</text>
</g>
<!-- detail_mapper -->
<g id="node8" class="node">
<title>detail_mapper</title>
<path fill="#f8fafc" stroke="#344054" d="M1313.12,-166C1313.12,-166 1190.62,-166 1190.62,-166 1184.62,-166 1178.62,-160 1178.62,-154 1178.62,-154 1178.62,-142 1178.62,-142 1178.62,-136 1184.62,-130 1190.62,-130 1190.62,-130 1313.12,-130 1313.12,-130 1319.12,-130 1325.12,-136 1325.12,-142 1325.12,-142 1325.12,-154 1325.12,-154 1325.12,-160 1319.12,-166 1313.12,-166"/>
<text xml:space="preserve" text-anchor="middle" x="1251.88" y="-144.07" font-family="Microsoft YaHei" font-size="14.00">OrderDetailMapper</text>
</g>
<!-- order_svc&#45;&gt;detail_mapper -->
<g id="edge8" class="edge">
<title>order_svc&#45;&gt;detail_mapper</title>
<path fill="none" stroke="#475467" d="M964.02,-219C1050.84,-219 1191.5,-219 1191.5,-219 1191.5,-219 1191.5,-175.8 1191.5,-175.8"/>
<polygon fill="#475467" stroke="#475467" points="1194.3,-175.8 1191.5,-167.8 1188.7,-175.8 1194.3,-175.8"/>
<text xml:space="preserve" text-anchor="middle" x="1067.62" y="-147.45" font-family="Microsoft YaHei" font-size="14.00">insertBatch(details)</text>
</g>
<!-- map_api -->
<g id="node9" class="node">
<title>map_api</title>
<path fill="#f8fafc" stroke="#344054" d="M1289.5,-101C1289.5,-101 1214.25,-101 1214.25,-101 1208.25,-101 1202.25,-95 1202.25,-89 1202.25,-89 1202.25,-77 1202.25,-77 1202.25,-71 1208.25,-65 1214.25,-65 1214.25,-65 1289.5,-65 1289.5,-65 1295.5,-65 1301.5,-71 1301.5,-77 1301.5,-77 1301.5,-89 1301.5,-89 1301.5,-95 1295.5,-101 1289.5,-101"/>
<text xml:space="preserve" text-anchor="middle" x="1251.88" y="-79.08" font-family="Microsoft YaHei" font-size="14.00">百度地图 API</text>
</g>
<!-- order_svc&#45;&gt;map_api -->
<g id="edge5" class="edge">
<title>order_svc&#45;&gt;map_api</title>
<path fill="none" stroke="#475467" d="M919.5,-212.55C919.5,-172.88 919.5,-83 919.5,-83 919.5,-83 1192.24,-83 1192.24,-83"/>
<polygon fill="#475467" stroke="#475467" points="1192.24,-85.8 1200.24,-83 1192.24,-80.2 1192.24,-85.8"/>
<text xml:space="preserve" text-anchor="middle" x="1067.62" y="-88.45" font-family="Microsoft YaHei" font-size="14.00">校验配送范围</text>
</g>
<!-- ws -->
<g id="node10" class="node">
<title>ws</title>
<path fill="#f8fafc" stroke="#344054" d="M1307.12,-36C1307.12,-36 1196.62,-36 1196.62,-36 1190.62,-36 1184.62,-30 1184.62,-24 1184.62,-24 1184.62,-12 1184.62,-12 1184.62,-6 1190.62,0 1196.62,0 1196.62,0 1307.12,0 1307.12,0 1313.12,0 1319.12,-6 1319.12,-12 1319.12,-12 1319.12,-24 1319.12,-24 1319.12,-30 1313.12,-36 1307.12,-36"/>
<text xml:space="preserve" text-anchor="middle" x="1251.88" y="-14.07" font-family="Microsoft YaHei" font-size="14.00">WebSocketServer</text>
</g>
<!-- order_svc&#45;&gt;ws -->
<g id="edge15" class="edge">
<title>order_svc&#45;&gt;ws</title>
<path fill="none" stroke="#475467" d="M875.5,-212.84C875.5,-161.33 875.5,-18 875.5,-18 875.5,-18 1174.64,-18 1174.64,-18"/>
<polygon fill="#475467" stroke="#475467" points="1174.64,-20.8 1182.64,-18 1174.64,-15.2 1174.64,-20.8"/>
<text xml:space="preserve" text-anchor="middle" x="1067.62" y="-29.45" font-family="Microsoft YaHei" font-size="14.00">type=1 新订单</text>
</g>
<!-- admin -->
<g id="node11" class="node">
<title>admin</title>
<path fill="#f8fafc" stroke="#344054" d="M1512.5,-36C1512.5,-36 1477.75,-36 1477.75,-36 1471.75,-36 1465.75,-30 1465.75,-24 1465.75,-24 1465.75,-12 1465.75,-12 1465.75,-6 1471.75,0 1477.75,0 1477.75,0 1512.5,0 1512.5,0 1518.5,0 1524.5,-6 1524.5,-12 1524.5,-12 1524.5,-24 1524.5,-24 1524.5,-30 1518.5,-36 1512.5,-36"/>
<text xml:space="preserve" text-anchor="middle" x="1495.12" y="-14.07" font-family="Microsoft YaHei" font-size="14.00">管理端</text>
</g>
<!-- ws&#45;&gt;admin -->
<g id="edge16" class="edge">
<title>ws&#45;&gt;admin</title>
<path fill="none" stroke="#475467" d="M1319.31,-18C1319.31,-18 1455.92,-18 1455.92,-18"/>
<polygon fill="#475467" stroke="#475467" points="1455.92,-20.8 1463.92,-18 1455.92,-15.2 1455.92,-20.8"/>
<text xml:space="preserve" text-anchor="middle" x="1399" y="-23.45" font-family="Microsoft YaHei" font-size="14.00">/ws 推送提醒</text>
</g>
</g>
</svg>
