<?xml version="1.0" encoding="UTF-8" standalone="no"?>
<!DOCTYPE svg PUBLIC "-//W3C//DTD SVG 1.1//EN"
 "http://www.w3.org/Graphics/SVG/1.1/DTD/svg11.dtd">
<!-- Generated by graphviz version 15.0.0 (20260523.1842)
 -->
<!-- Title: G Pages: 1 -->
<svg width="1714pt" height="505pt"
 viewBox="0.00 0.00 1714.00 505.00" xmlns="http://www.w3.org/2000/svg" xmlns:xlink="http://www.w3.org/1999/xlink">
<g id="graph0" class="graph" transform="scale(1 1) rotate(0) translate(18 487)">
<title>G</title>
<polygon fill="white" stroke="none" points="-18,18 -18,-487 1695.75,-487 1695.75,18 -18,18"/>
<!-- staff -->
<g id="node1" class="node">
<title>staff</title>
<path fill="#f8fafc" stroke="#344054" d="M61,-249C61,-249 12,-249 12,-249 6,-249 0,-243 0,-237 0,-237 0,-225 0,-225 0,-219 6,-213 12,-213 12,-213 61,-213 61,-213 67,-213 73,-219 73,-225 73,-225 73,-237 73,-237 73,-243 67,-249 61,-249"/>
<text xml:space="preserve" text-anchor="middle" x="36.5" y="-227.07" font-family="Microsoft YaHei" font-size="14.00">商家员工</text>
</g>
<!-- admin -->
<g id="node2" class="node">
<title>admin</title>
<path fill="#f8fafc" stroke="#344054" d="M317.75,-249C317.75,-249 253,-249 253,-249 247,-249 241,-243 241,-237 241,-237 241,-225 241,-225 241,-219 247,-213 253,-213 253,-213 317.75,-213 317.75,-213 323.75,-213 329.75,-219 329.75,-225 329.75,-225 329.75,-237 329.75,-237 329.75,-243 323.75,-249 317.75,-249"/>
<text xml:space="preserve" text-anchor="middle" x="285.38" y="-227.07" font-family="Microsoft YaHei" font-size="14.00">Vue 管理端</text>
</g>
<!-- staff&#45;&gt;admin -->
<g id="edge1" class="edge">
<title>staff&#45;&gt;admin</title>
<path fill="none" stroke="#475467" d="M73.49,-231C73.49,-231 231.08,-231 231.08,-231"/>
<polygon fill="#475467" stroke="#475467" points="231.08,-233.8 239.08,-231 231.08,-228.2 231.08,-233.8"/>
<text xml:space="preserve" text-anchor="middle" x="157" y="-236.45" font-family="Microsoft YaHei" font-size="14.00">查看订单/处理订单</text>
</g>
<!-- interceptor -->
<g id="node3" class="node">
<title>interceptor</title>
<path fill="#f8fafc" stroke="#344054" d="M609,-469C609,-469 461,-469 461,-469 455,-469 449,-463 449,-457 449,-457 449,-445 449,-445 449,-439 455,-433 461,-433 461,-433 609,-433 609,-433 615,-433 621,-439 621,-445 621,-445 621,-457 621,-457 621,-463 615,-469 609,-469"/>
<text xml:space="preserve" text-anchor="middle" x="535" y="-447.07" font-family="Microsoft YaHei" font-size="14.00">JWT Admin Interceptor</text>
</g>
<!-- admin&#45;&gt;interceptor -->
<g id="edge2" class="edge">
<title>admin&#45;&gt;interceptor</title>
<path fill="none" stroke="#475467" d="M285.75,-249.38C285.75,-302.25 285.75,-451 285.75,-451 285.75,-451 439.01,-451 439.01,-451"/>
<polygon fill="#475467" stroke="#475467" points="439.01,-453.8 447.01,-451 439.01,-448.2 439.01,-453.8"/>
<text xml:space="preserve" text-anchor="middle" x="389.38" y="-447.45" font-family="Microsoft YaHei" font-size="14.00">携带 token</text>
</g>
<!-- ctl -->
<g id="node4" class="node">
<title>ctl</title>
<path fill="#f8fafc" stroke="#344054" d="M988,-253.75C988,-253.75 840.75,-253.75 840.75,-253.75 834.75,-253.75 828.75,-247.75 828.75,-241.75 828.75,-241.75 828.75,-220.25 828.75,-220.25 828.75,-214.25 834.75,-208.25 840.75,-208.25 840.75,-208.25 988,-208.25 988,-208.25 994,-208.25 1000,-214.25 1000,-220.25 1000,-220.25 1000,-241.75 1000,-241.75 1000,-247.75 994,-253.75 988,-253.75"/>
<text xml:space="preserve" text-anchor="middle" x="914.38" y="-236.45" font-family="Microsoft YaHei" font-size="14.00">Admin OrderController</text>
<text xml:space="preserve" text-anchor="middle" x="914.38" y="-217.7" font-family="Microsoft YaHei" font-size="14.00">/admin/order</text>
</g>
<!-- admin&#45;&gt;ctl -->
<g id="edge4" class="edge">
<title>admin&#45;&gt;ctl</title>
<path fill="none" stroke="#475467" d="M330.11,-228.43C330.11,-228.43 818.93,-228.43 818.93,-228.43"/>
<polygon fill="#475467" stroke="#475467" points="818.93,-231.23 826.93,-228.43 818.93,-225.63 818.93,-231.23"/>
<text xml:space="preserve" text-anchor="middle" x="535" y="-390.45" font-family="Microsoft YaHei" font-size="14.00">GET /conditionSearch</text>
</g>
<!-- admin&#45;&gt;ctl -->
<g id="edge10" class="edge">
<title>admin&#45;&gt;ctl</title>
<path fill="none" stroke="#475467" d="M330.11,-223.29C330.11,-223.29 818.93,-223.29 818.93,-223.29"/>
<polygon fill="#475467" stroke="#475467" points="818.93,-226.09 826.93,-223.29 818.93,-220.49 818.93,-226.09"/>
<text xml:space="preserve" text-anchor="middle" x="535" y="-313.45" font-family="Microsoft YaHei" font-size="14.00">PUT /confirm</text>
</g>
<!-- admin&#45;&gt;ctl -->
<g id="edge13" class="edge">
<title>admin&#45;&gt;ctl</title>
<path fill="none" stroke="#475467" d="M330.11,-218.14C330.11,-218.14 818.93,-218.14 818.93,-218.14"/>
<polygon fill="#475467" stroke="#475467" points="818.93,-220.94 826.93,-218.14 818.93,-215.34 818.93,-220.94"/>
<text xml:space="preserve" text-anchor="middle" x="535" y="-236.45" font-family="Microsoft YaHei" font-size="14.00">PUT /delivery/{id}</text>
</g>
<!-- admin&#45;&gt;ctl -->
<g id="edge16" class="edge">
<title>admin&#45;&gt;ctl</title>
<path fill="none" stroke="#475467" d="M330.11,-233.57C330.11,-233.57 818.93,-233.57 818.93,-233.57"/>
<polygon fill="#475467" stroke="#475467" points="818.93,-236.37 826.93,-233.57 818.93,-230.77 818.93,-236.37"/>
<text xml:space="preserve" text-anchor="middle" x="535" y="-159.45" font-family="Microsoft YaHei" font-size="14.00">PUT /complete/{id}</text>
</g>
<!-- admin&#45;&gt;ctl -->
<g id="edge19" class="edge">
<title>admin&#45;&gt;ctl</title>
<path fill="none" stroke="#475467" d="M330.11,-238.71C330.11,-238.71 818.93,-238.71 818.93,-238.71"/>
<polygon fill="#475467" stroke="#475467" points="818.93,-241.51 826.93,-238.71 818.93,-235.91 818.93,-241.51"/>
<text xml:space="preserve" text-anchor="middle" x="535" y="-82.45" font-family="Microsoft YaHei" font-size="14.00">PUT /rejection 或 /cancel</text>
</g>
<!-- interceptor&#45;&gt;ctl -->
<g id="edge3" class="edge">
<title>interceptor&#45;&gt;ctl</title>
<path fill="none" stroke="#475467" d="M621.17,-451C733.21,-451 914.75,-451 914.75,-451 914.75,-451 914.75,-263.64 914.75,-263.64"/>
<polygon fill="#475467" stroke="#475467" points="917.55,-263.64 914.75,-255.64 911.95,-263.64 917.55,-263.64"/>
<text xml:space="preserve" text-anchor="middle" x="724.88" y="-447.45" font-family="Microsoft YaHei" font-size="14.00">放行并写入 BaseContext</text>
</g>
<!-- ctl&#45;&gt;admin -->
<g id="edge9" class="edge">
<title>ctl&#45;&gt;admin</title>
<path fill="none" stroke="#475467" d="M828.56,-243.86C828.56,-243.86 339.45,-243.86 339.45,-243.86"/>
<polygon fill="#475467" stroke="#475467" points="339.45,-241.06 331.45,-243.86 339.45,-246.66 339.45,-241.06"/>
<text xml:space="preserve" text-anchor="middle" x="535" y="-5.45" font-family="Microsoft YaHei" font-size="14.00">订单列表</text>
</g>
<!-- svc -->
<g id="node5" class="node">
<title>svc</title>
<path fill="#f8fafc" stroke="#344054" d="M1324.25,-249C1324.25,-249 1215.25,-249 1215.25,-249 1209.25,-249 1203.25,-243 1203.25,-237 1203.25,-237 1203.25,-225 1203.25,-225 1203.25,-219 1209.25,-213 1215.25,-213 1215.25,-213 1324.25,-213 1324.25,-213 1330.25,-213 1336.25,-219 1336.25,-225 1336.25,-225 1336.25,-237 1336.25,-237 1336.25,-243 1330.25,-249 1324.25,-249"/>
<text xml:space="preserve" text-anchor="middle" x="1269.75" y="-227.07" font-family="Microsoft YaHei" font-size="14.00">OrderServiceImpl</text>
</g>
<!-- ctl&#45;&gt;svc -->
<g id="edge5" class="edge">
<title>ctl&#45;&gt;svc</title>
<path fill="none" stroke="#475467" d="M1000.4,-228.43C1000.4,-228.43 1193.35,-228.43 1193.35,-228.43"/>
<polygon fill="#475467" stroke="#475467" points="1193.35,-231.23 1201.35,-228.43 1193.35,-225.63 1193.35,-231.23"/>
<text xml:space="preserve" text-anchor="middle" x="1101.62" y="-369.45" font-family="Microsoft YaHei" font-size="14.00">conditionSearch(dto)</text>
</g>
<!-- ctl&#45;&gt;svc -->
<g id="edge11" class="edge">
<title>ctl&#45;&gt;svc</title>
<path fill="none" stroke="#475467" d="M1000.4,-233.57C1000.4,-233.57 1193.35,-233.57 1193.35,-233.57"/>
<polygon fill="#475467" stroke="#475467" points="1193.35,-236.37 1201.35,-233.57 1193.35,-230.77 1193.35,-236.37"/>
<text xml:space="preserve" text-anchor="middle" x="1101.62" y="-316.45" font-family="Microsoft YaHei" font-size="14.00">confirm(id)</text>
</g>
<!-- ctl&#45;&gt;svc -->
<g id="edge14" class="edge">
<title>ctl&#45;&gt;svc</title>
<path fill="none" stroke="#475467" d="M1000.4,-238.71C1000.4,-238.71 1193.35,-238.71 1193.35,-238.71"/>
<polygon fill="#475467" stroke="#475467" points="1193.35,-241.51 1201.35,-238.71 1193.35,-235.91 1193.35,-241.51"/>
<text xml:space="preserve" text-anchor="middle" x="1101.62" y="-263.45" font-family="Microsoft YaHei" font-size="14.00">delivery(id)</text>
</g>
<!-- ctl&#45;&gt;svc -->
<g id="edge17" class="edge">
<title>ctl&#45;&gt;svc</title>
<path fill="none" stroke="#475467" d="M1000.4,-243.86C1000.4,-243.86 1193.35,-243.86 1193.35,-243.86"/>
<polygon fill="#475467" stroke="#475467" points="1193.35,-246.66 1201.35,-243.86 1193.35,-241.06 1193.35,-246.66"/>
<text xml:space="preserve" text-anchor="middle" x="1101.62" y="-210.45" font-family="Microsoft YaHei" font-size="14.00">complete(id)</text>
</g>
<!-- ctl&#45;&gt;svc -->
<g id="edge20" class="edge">
<title>ctl&#45;&gt;svc</title>
<path fill="none" stroke="#475467" d="M1000.4,-223.29C1000.4,-223.29 1193.35,-223.29 1193.35,-223.29"/>
<polygon fill="#475467" stroke="#475467" points="1193.35,-226.09 1201.35,-223.29 1193.35,-220.49 1193.35,-226.09"/>
<text xml:space="preserve" text-anchor="middle" x="1101.62" y="-157.45" font-family="Microsoft YaHei" font-size="14.00">rejection/cancel</text>
</g>
<!-- svc&#45;&gt;ctl -->
<g id="edge8" class="edge">
<title>svc&#45;&gt;ctl</title>
<path fill="none" stroke="#475467" d="M1202.91,-218.14C1202.91,-218.14 1009.95,-218.14 1009.95,-218.14"/>
<polygon fill="#475467" stroke="#475467" points="1009.95,-215.34 1001.95,-218.14 1009.95,-220.94 1009.95,-215.34"/>
<text xml:space="preserve" text-anchor="middle" x="1101.62" y="-104.45" font-family="Microsoft YaHei" font-size="14.00">PageResult&lt;OrderVO&gt;</text>
</g>
<!-- mapper -->
<g id="node6" class="node">
<title>mapper</title>
<path fill="#f8fafc" stroke="#344054" d="M1646.25,-302C1646.25,-302 1562.75,-302 1562.75,-302 1556.75,-302 1550.75,-296 1550.75,-290 1550.75,-290 1550.75,-278 1550.75,-278 1550.75,-272 1556.75,-266 1562.75,-266 1562.75,-266 1646.25,-266 1646.25,-266 1652.25,-266 1658.25,-272 1658.25,-278 1658.25,-278 1658.25,-290 1658.25,-290 1658.25,-296 1652.25,-302 1646.25,-302"/>
<text xml:space="preserve" text-anchor="middle" x="1604.5" y="-280.07" font-family="Microsoft YaHei" font-size="14.00">OrderMapper</text>
</g>
<!-- svc&#45;&gt;mapper -->
<g id="edge6" class="edge">
<title>svc&#45;&gt;mapper</title>
<path fill="none" stroke="#475467" d="M1336.56,-228.43C1438.9,-228.43 1622.75,-228.43 1622.75,-228.43 1622.75,-228.43 1622.75,-256.29 1622.75,-256.29"/>
<polygon fill="#475467" stroke="#475467" points="1619.95,-256.29 1622.75,-264.29 1625.55,-256.29 1619.95,-256.29"/>
<text xml:space="preserve" text-anchor="middle" x="1433.75" y="-395.45" font-family="Microsoft YaHei" font-size="14.00">pageQuery</text>
</g>
<!-- svc&#45;&gt;mapper -->
<g id="edge12" class="edge">
<title>svc&#45;&gt;mapper</title>
<path fill="none" stroke="#475467" d="M1336.74,-233.57C1434.5,-233.57 1604.75,-233.57 1604.75,-233.57 1604.75,-233.57 1604.75,-256 1604.75,-256"/>
<polygon fill="#475467" stroke="#475467" points="1601.95,-256 1604.75,-264 1607.55,-256 1601.95,-256"/>
<text xml:space="preserve" text-anchor="middle" x="1433.75" y="-342.45" font-family="Microsoft YaHei" font-size="14.00">状态: 待接单 &#45;&gt; 已接单</text>
</g>
<!-- svc&#45;&gt;mapper -->
<g id="edge15" class="edge">
<title>svc&#45;&gt;mapper</title>
<path fill="none" stroke="#475467" d="M1336.59,-238.71C1429.59,-238.71 1586.75,-238.71 1586.75,-238.71 1586.75,-238.71 1586.75,-256.07 1586.75,-256.07"/>
<polygon fill="#475467" stroke="#475467" points="1583.95,-256.07 1586.75,-264.07 1589.55,-256.07 1583.95,-256.07"/>
<text xml:space="preserve" text-anchor="middle" x="1433.75" y="-289.45" font-family="Microsoft YaHei" font-size="14.00">状态: 已接单 &#45;&gt; 派送中</text>
</g>
<!-- svc&#45;&gt;mapper -->
<g id="edge18" class="edge">
<title>svc&#45;&gt;mapper</title>
<path fill="none" stroke="#475467" d="M1336.48,-243.86C1424.6,-243.86 1568.75,-243.86 1568.75,-243.86 1568.75,-243.86 1568.75,-256.29 1568.75,-256.29"/>
<polygon fill="#475467" stroke="#475467" points="1565.95,-256.29 1568.75,-264.29 1571.55,-256.29 1565.95,-256.29"/>
<text xml:space="preserve" text-anchor="middle" x="1433.75" y="-236.45" font-family="Microsoft YaHei" font-size="14.00">状态: 派送中 &#45;&gt; 已完成</text>
</g>
<!-- svc&#45;&gt;mapper -->
<g id="edge22" class="edge">
<title>svc&#45;&gt;mapper</title>
<path fill="none" stroke="#475467" d="M1336.51,-223.29C1443.32,-223.29 1640.75,-223.29 1640.75,-223.29 1640.75,-223.29 1640.75,-256.27 1640.75,-256.27"/>
<polygon fill="#475467" stroke="#475467" points="1637.95,-256.27 1640.75,-264.27 1643.55,-256.27 1637.95,-256.27"/>
<text xml:space="preserve" text-anchor="middle" x="1433.75" y="-183.2" font-family="Microsoft YaHei" font-size="14.00">状态 &#45;&gt; 已取消</text>
<text xml:space="preserve" text-anchor="middle" x="1433.75" y="-164.45" font-family="Microsoft YaHei" font-size="14.00">记录原因/时间</text>
</g>
<!-- detail -->
<g id="node7" class="node">
<title>detail</title>
<path fill="#f8fafc" stroke="#344054" d="M1665.75,-124C1665.75,-124 1543.25,-124 1543.25,-124 1537.25,-124 1531.25,-118 1531.25,-112 1531.25,-112 1531.25,-100 1531.25,-100 1531.25,-94 1537.25,-88 1543.25,-88 1543.25,-88 1665.75,-88 1665.75,-88 1671.75,-88 1677.75,-94 1677.75,-100 1677.75,-100 1677.75,-112 1677.75,-112 1677.75,-118 1671.75,-124 1665.75,-124"/>
<text xml:space="preserve" text-anchor="middle" x="1604.5" y="-102.08" font-family="Microsoft YaHei" font-size="14.00">OrderDetailMapper</text>
</g>
<!-- svc&#45;&gt;detail -->
<g id="edge7" class="edge">
<title>svc&#45;&gt;detail</title>
<path fill="none" stroke="#475467" d="M1336.74,-218.14C1416.99,-218.14 1540.75,-218.14 1540.75,-218.14 1540.75,-218.14 1540.75,-133.78 1540.75,-133.78"/>
<polygon fill="#475467" stroke="#475467" points="1543.55,-133.78 1540.75,-125.78 1537.95,-133.78 1543.55,-133.78"/>
<text xml:space="preserve" text-anchor="middle" x="1433.75" y="-111.45" font-family="Microsoft YaHei" font-size="14.00">按需查询订单菜品</text>
</g>
<!-- pay -->
<g id="node8" class="node">
<title>pay</title>
<path fill="#f8fafc" stroke="#344054" d="M1649.62,-58.75C1649.62,-58.75 1559.38,-58.75 1559.38,-58.75 1553.38,-58.75 1547.38,-52.75 1547.38,-46.75 1547.38,-46.75 1547.38,-25.25 1547.38,-25.25 1547.38,-19.25 1553.38,-13.25 1559.38,-13.25 1559.38,-13.25 1649.62,-13.25 1649.62,-13.25 1655.62,-13.25 1661.62,-19.25 1661.62,-25.25 1661.62,-25.25 1661.62,-46.75 1661.62,-46.75 1661.62,-52.75 1655.62,-58.75 1649.62,-58.75"/>
<text xml:space="preserve" text-anchor="middle" x="1604.5" y="-41.45" font-family="Microsoft YaHei" font-size="14.00">WeChatPayUtil</text>
<text xml:space="preserve" text-anchor="middle" x="1604.5" y="-22.7" font-family="Microsoft YaHei" font-size="14.00">退款扩展</text>
</g>
<!-- svc&#45;&gt;pay -->
<g id="edge21" class="edge">
<title>svc&#45;&gt;pay</title>
<path fill="none" stroke="#475467" d="M1269.75,-212.65C1269.75,-164.11 1269.75,-36 1269.75,-36 1269.75,-36 1537.44,-36 1537.44,-36"/>
<polygon fill="#475467" stroke="#475467" points="1537.44,-38.8 1545.44,-36 1537.44,-33.2 1537.44,-38.8"/>
<text xml:space="preserve" text-anchor="middle" x="1433.75" y="-41.45" font-family="Microsoft YaHei" font-size="14.00">已支付订单退款</text>
</g>
</g>
</svg>
