<?xml version="1.0" encoding="UTF-8" standalone="no"?>
<!DOCTYPE svg PUBLIC "-//W3C//DTD SVG 1.1//EN"
 "http://www.w3.org/Graphics/SVG/1.1/DTD/svg11.dtd">
<!-- Generated by graphviz version 15.0.0 (20260523.1842)
 -->
<!-- Title: G Pages: 1 -->
<svg width="1220pt" height="737pt"
 viewBox="0.00 0.00 1220.00 737.00" xmlns="http://www.w3.org/2000/svg" xmlns:xlink="http://www.w3.org/1999/xlink">
<g id="graph0" class="graph" transform="scale(1 1) rotate(0) translate(18 718.75)">
<title>G</title>
<polygon fill="white" stroke="none" points="-18,18 -18,-718.75 1202,-718.75 1202,18 -18,18"/>
<!-- employee -->
<g id="node1" class="node">
<title>employee</title>
<path fill="#f8fafc" stroke="#344054" d="M12,-262.38C12,-262.38 170.75,-262.38 170.75,-262.38 176.75,-262.38 182.75,-268.38 182.75,-274.38 182.75,-274.38 182.75,-389.62 182.75,-389.62 182.75,-395.62 176.75,-401.62 170.75,-401.62 170.75,-401.62 12,-401.62 12,-401.62 6,-401.62 0,-395.62 0,-389.62 0,-389.62 0,-274.38 0,-274.38 0,-268.38 6,-262.38 12,-262.38"/>
<text xml:space="preserve" text-anchor="middle" x="41.38" y="-328.07" font-family="Microsoft YaHei" font-size="14.00">employee</text>
<polyline fill="none" stroke="#344054" points="82.75,-262.38 82.75,-401.62"/>
<text xml:space="preserve" text-anchor="start" x="90.75" y="-384.32" font-family="Microsoft YaHei" font-size="14.00">id PK</text>
<text xml:space="preserve" text-anchor="start" x="90.75" y="-365.57" font-family="Microsoft YaHei" font-size="14.00">username</text>
<text xml:space="preserve" text-anchor="start" x="90.75" y="-346.82" font-family="Microsoft YaHei" font-size="14.00">name</text>
<text xml:space="preserve" text-anchor="start" x="90.75" y="-328.07" font-family="Microsoft YaHei" font-size="14.00">phone</text>
<text xml:space="preserve" text-anchor="start" x="90.75" y="-309.32" font-family="Microsoft YaHei" font-size="14.00">status</text>
<text xml:space="preserve" text-anchor="start" x="90.75" y="-290.57" font-family="Microsoft YaHei" font-size="14.00">create_time</text>
<text xml:space="preserve" text-anchor="start" x="90.75" y="-271.82" font-family="Microsoft YaHei" font-size="14.00">update_time</text>
</g>
<!-- user -->
<g id="node2" class="node">
<title>user</title>
<path fill="#f8fafc" stroke="#344054" d="M34.5,-435.12C34.5,-435.12 148.25,-435.12 148.25,-435.12 154.25,-435.12 160.25,-441.12 160.25,-447.12 160.25,-447.12 160.25,-524.88 160.25,-524.88 160.25,-530.88 154.25,-536.88 148.25,-536.88 148.25,-536.88 34.5,-536.88 34.5,-536.88 28.5,-536.88 22.5,-530.88 22.5,-524.88 22.5,-524.88 22.5,-447.12 22.5,-447.12 22.5,-441.12 28.5,-435.12 34.5,-435.12"/>
<text xml:space="preserve" text-anchor="middle" x="45.12" y="-482.07" font-family="Microsoft YaHei" font-size="14.00">user</text>
<polyline fill="none" stroke="#344054" points="67.75,-435.12 67.75,-536.88"/>
<text xml:space="preserve" text-anchor="start" x="75.75" y="-519.58" font-family="Microsoft YaHei" font-size="14.00">id PK</text>
<text xml:space="preserve" text-anchor="start" x="75.75" y="-500.82" font-family="Microsoft YaHei" font-size="14.00">openid</text>
<text xml:space="preserve" text-anchor="start" x="75.75" y="-482.07" font-family="Microsoft YaHei" font-size="14.00">name</text>
<text xml:space="preserve" text-anchor="start" x="75.75" y="-463.32" font-family="Microsoft YaHei" font-size="14.00">phone</text>
<text xml:space="preserve" text-anchor="start" x="75.75" y="-444.57" font-family="Microsoft YaHei" font-size="14.00">create_time</text>
</g>
<!-- address -->
<g id="node8" class="node">
<title>address</title>
<path fill="#f8fafc" stroke="#344054" d="M293.38,-579.75C293.38,-579.75 463.38,-579.75 463.38,-579.75 469.38,-579.75 475.38,-585.75 475.38,-591.75 475.38,-591.75 475.38,-688.25 475.38,-688.25 475.38,-694.25 469.38,-700.25 463.38,-700.25 463.38,-700.25 293.38,-700.25 293.38,-700.25 287.38,-700.25 281.38,-694.25 281.38,-688.25 281.38,-688.25 281.38,-591.75 281.38,-591.75 281.38,-585.75 287.38,-579.75 293.38,-579.75"/>
<text xml:space="preserve" text-anchor="middle" x="335.5" y="-636.08" font-family="Microsoft YaHei" font-size="14.00">address_book</text>
<polyline fill="none" stroke="#344054" points="389.62,-579.75 389.62,-700.25"/>
<text xml:space="preserve" text-anchor="start" x="397.62" y="-682.95" font-family="Microsoft YaHei" font-size="14.00">id PK</text>
<text xml:space="preserve" text-anchor="start" x="397.62" y="-664.2" font-family="Microsoft YaHei" font-size="14.00">user_id FK</text>
<text xml:space="preserve" text-anchor="start" x="397.62" y="-645.45" font-family="Microsoft YaHei" font-size="14.00">consignee</text>
<text xml:space="preserve" text-anchor="start" x="397.62" y="-626.7" font-family="Microsoft YaHei" font-size="14.00">phone</text>
<text xml:space="preserve" text-anchor="start" x="397.62" y="-607.95" font-family="Microsoft YaHei" font-size="14.00">detail</text>
<text xml:space="preserve" text-anchor="start" x="397.62" y="-589.2" font-family="Microsoft YaHei" font-size="14.00">is_default</text>
</g>
<!-- user&#45;&gt;address -->
<g id="edge6" class="edge">
<title>user&#45;&gt;address</title>
<path fill="none" stroke="#475467" d="M91,-537.28C91,-582.08 91,-640 91,-640 91,-640 271.57,-640 271.57,-640"/>
<polygon fill="#475467" stroke="#475467" points="271.57,-642.8 279.57,-640 271.57,-637.2 271.57,-642.8"/>
<text xml:space="preserve" text-anchor="middle" x="218" y="-596.45" font-family="Microsoft YaHei" font-size="14.00">1:N</text>
</g>
<!-- cart -->
<g id="node9" class="node">
<title>cart</title>
<path fill="#f8fafc" stroke="#344054" d="M265.25,-425.75C265.25,-425.75 491.5,-425.75 491.5,-425.75 497.5,-425.75 503.5,-431.75 503.5,-437.75 503.5,-437.75 503.5,-534.25 503.5,-534.25 503.5,-540.25 497.5,-546.25 491.5,-546.25 491.5,-546.25 265.25,-546.25 265.25,-546.25 259.25,-546.25 253.25,-540.25 253.25,-534.25 253.25,-534.25 253.25,-437.75 253.25,-437.75 253.25,-431.75 259.25,-425.75 265.25,-425.75"/>
<text xml:space="preserve" text-anchor="middle" x="308.5" y="-482.07" font-family="Microsoft YaHei" font-size="14.00">shopping_cart</text>
<polyline fill="none" stroke="#344054" points="363.75,-425.75 363.75,-546.25"/>
<text xml:space="preserve" text-anchor="start" x="371.75" y="-528.95" font-family="Microsoft YaHei" font-size="14.00">id PK</text>
<text xml:space="preserve" text-anchor="start" x="371.75" y="-510.2" font-family="Microsoft YaHei" font-size="14.00">user_id FK</text>
<text xml:space="preserve" text-anchor="start" x="371.75" y="-491.45" font-family="Microsoft YaHei" font-size="14.00">dish_id/setmeal_id</text>
<text xml:space="preserve" text-anchor="start" x="371.75" y="-472.7" font-family="Microsoft YaHei" font-size="14.00">name</text>
<text xml:space="preserve" text-anchor="start" x="371.75" y="-453.95" font-family="Microsoft YaHei" font-size="14.00">number</text>
<text xml:space="preserve" text-anchor="start" x="371.75" y="-435.2" font-family="Microsoft YaHei" font-size="14.00">amount</text>
</g>
<!-- user&#45;&gt;cart -->
<g id="edge7" class="edge">
<title>user&#45;&gt;cart</title>
<path fill="none" stroke="#475467" d="M160.48,-486C160.48,-486 243.41,-486 243.41,-486"/>
<polygon fill="#475467" stroke="#475467" points="243.41,-488.8 251.41,-486 243.41,-483.2 243.41,-488.8"/>
<text xml:space="preserve" text-anchor="middle" x="218" y="-491.45" font-family="Microsoft YaHei" font-size="14.00">1:N</text>
</g>
<!-- orders -->
<g id="node10" class="node">
<title>orders</title>
<path fill="#f8fafc" stroke="#344054" d="M647.5,-342C647.5,-342 831,-342 831,-342 837,-342 843,-348 843,-354 843,-354 843,-488 843,-488 843,-494 837,-500 831,-500 831,-500 647.5,-500 647.5,-500 641.5,-500 635.5,-494 635.5,-488 635.5,-488 635.5,-354 635.5,-354 635.5,-348 641.5,-342 647.5,-342"/>
<text xml:space="preserve" text-anchor="middle" x="665.25" y="-417.07" font-family="Microsoft YaHei" font-size="14.00">orders</text>
<polyline fill="none" stroke="#344054" points="695,-342 695,-500"/>
<text xml:space="preserve" text-anchor="start" x="703" y="-482.7" font-family="Microsoft YaHei" font-size="14.00">id PK</text>
<text xml:space="preserve" text-anchor="start" x="703" y="-463.95" font-family="Microsoft YaHei" font-size="14.00">number</text>
<text xml:space="preserve" text-anchor="start" x="703" y="-445.2" font-family="Microsoft YaHei" font-size="14.00">user_id FK</text>
<text xml:space="preserve" text-anchor="start" x="703" y="-426.45" font-family="Microsoft YaHei" font-size="14.00">address_book_id FK</text>
<text xml:space="preserve" text-anchor="start" x="703" y="-407.7" font-family="Microsoft YaHei" font-size="14.00">status</text>
<text xml:space="preserve" text-anchor="start" x="703" y="-388.95" font-family="Microsoft YaHei" font-size="14.00">pay_status</text>
<text xml:space="preserve" text-anchor="start" x="703" y="-370.2" font-family="Microsoft YaHei" font-size="14.00">amount</text>
<text xml:space="preserve" text-anchor="start" x="703" y="-351.45" font-family="Microsoft YaHei" font-size="14.00">address snapshot</text>
</g>
<!-- user&#45;&gt;orders -->
<g id="edge8" class="edge">
<title>user&#45;&gt;orders</title>
<path fill="none" stroke="#475467" d="M91,-434.99C91,-423.03 91,-413.69 91,-413.69 91,-413.69 625.58,-413.69 625.58,-413.69"/>
<polygon fill="#475467" stroke="#475467" points="625.58,-416.49 633.58,-413.69 625.58,-410.89 625.58,-416.49"/>
<text xml:space="preserve" text-anchor="middle" x="378.38" y="-379.45" font-family="Microsoft YaHei" font-size="14.00">1:N</text>
</g>
<!-- category -->
<g id="node3" class="node">
<title>category</title>
<path fill="#f8fafc" stroke="#344054" d="M324.5,-121.12C324.5,-121.12 432.25,-121.12 432.25,-121.12 438.25,-121.12 444.25,-127.12 444.25,-133.12 444.25,-133.12 444.25,-210.88 444.25,-210.88 444.25,-216.88 438.25,-222.88 432.25,-222.88 432.25,-222.88 324.5,-222.88 324.5,-222.88 318.5,-222.88 312.5,-216.88 312.5,-210.88 312.5,-210.88 312.5,-133.12 312.5,-133.12 312.5,-127.12 318.5,-121.12 324.5,-121.12"/>
<text xml:space="preserve" text-anchor="middle" x="350.12" y="-168.07" font-family="Microsoft YaHei" font-size="14.00">category</text>
<polyline fill="none" stroke="#344054" points="387.75,-121.12 387.75,-222.88"/>
<text xml:space="preserve" text-anchor="start" x="395.75" y="-205.57" font-family="Microsoft YaHei" font-size="14.00">id PK</text>
<text xml:space="preserve" text-anchor="start" x="395.75" y="-186.82" font-family="Microsoft YaHei" font-size="14.00">name</text>
<text xml:space="preserve" text-anchor="start" x="395.75" y="-168.07" font-family="Microsoft YaHei" font-size="14.00">type</text>
<text xml:space="preserve" text-anchor="start" x="395.75" y="-149.32" font-family="Microsoft YaHei" font-size="14.00">sort</text>
<text xml:space="preserve" text-anchor="start" x="395.75" y="-130.57" font-family="Microsoft YaHei" font-size="14.00">status</text>
</g>
<!-- dish -->
<g id="node4" class="node">
<title>dish</title>
<path fill="#f8fafc" stroke="#344054" d="M671.88,-34.75C671.88,-34.75 806.62,-34.75 806.62,-34.75 812.62,-34.75 818.62,-40.75 818.62,-46.75 818.62,-46.75 818.62,-143.25 818.62,-143.25 818.62,-149.25 812.62,-155.25 806.62,-155.25 806.62,-155.25 671.88,-155.25 671.88,-155.25 665.88,-155.25 659.88,-149.25 659.88,-143.25 659.88,-143.25 659.88,-46.75 659.88,-46.75 659.88,-40.75 665.88,-34.75 671.88,-34.75"/>
<text xml:space="preserve" text-anchor="middle" x="681.75" y="-91.08" font-family="Microsoft YaHei" font-size="14.00">dish</text>
<polyline fill="none" stroke="#344054" points="703.62,-34.75 703.62,-155.25"/>
<text xml:space="preserve" text-anchor="start" x="711.62" y="-137.95" font-family="Microsoft YaHei" font-size="14.00">id PK</text>
<text xml:space="preserve" text-anchor="start" x="711.62" y="-119.2" font-family="Microsoft YaHei" font-size="14.00">name</text>
<text xml:space="preserve" text-anchor="start" x="711.62" y="-100.45" font-family="Microsoft YaHei" font-size="14.00">category_id FK</text>
<text xml:space="preserve" text-anchor="start" x="711.62" y="-81.7" font-family="Microsoft YaHei" font-size="14.00">price</text>
<text xml:space="preserve" text-anchor="start" x="711.62" y="-62.95" font-family="Microsoft YaHei" font-size="14.00">image</text>
<text xml:space="preserve" text-anchor="start" x="711.62" y="-44.2" font-family="Microsoft YaHei" font-size="14.00">status</text>
</g>
<!-- category&#45;&gt;dish -->
<g id="edge1" class="edge">
<title>category&#45;&gt;dish</title>
<path fill="none" stroke="#475467" d="M444.57,-138.19C444.57,-138.19 650.11,-138.19 650.11,-138.19"/>
<polygon fill="#475467" stroke="#475467" points="650.11,-140.99 658.11,-138.19 650.11,-135.39 650.11,-140.99"/>
<text xml:space="preserve" text-anchor="middle" x="569.5" y="-125.45" font-family="Microsoft YaHei" font-size="14.00">1:N 菜品分类</text>
</g>
<!-- setmeal -->
<g id="node6" class="node">
<title>setmeal</title>
<path fill="#f8fafc" stroke="#344054" d="M659.5,-188.75C659.5,-188.75 819,-188.75 819,-188.75 825,-188.75 831,-194.75 831,-200.75 831,-200.75 831,-297.25 831,-297.25 831,-303.25 825,-309.25 819,-309.25 819,-309.25 659.5,-309.25 659.5,-309.25 653.5,-309.25 647.5,-303.25 647.5,-297.25 647.5,-297.25 647.5,-200.75 647.5,-200.75 647.5,-194.75 653.5,-188.75 659.5,-188.75"/>
<text xml:space="preserve" text-anchor="middle" x="681.75" y="-245.07" font-family="Microsoft YaHei" font-size="14.00">setmeal</text>
<polyline fill="none" stroke="#344054" points="716,-188.75 716,-309.25"/>
<text xml:space="preserve" text-anchor="start" x="724" y="-291.95" font-family="Microsoft YaHei" font-size="14.00">id PK</text>
<text xml:space="preserve" text-anchor="start" x="724" y="-273.2" font-family="Microsoft YaHei" font-size="14.00">category_id FK</text>
<text xml:space="preserve" text-anchor="start" x="724" y="-254.45" font-family="Microsoft YaHei" font-size="14.00">name</text>
<text xml:space="preserve" text-anchor="start" x="724" y="-235.7" font-family="Microsoft YaHei" font-size="14.00">price</text>
<text xml:space="preserve" text-anchor="start" x="724" y="-216.95" font-family="Microsoft YaHei" font-size="14.00">status</text>
<text xml:space="preserve" text-anchor="start" x="724" y="-198.2" font-family="Microsoft YaHei" font-size="14.00">image</text>
</g>
<!-- category&#45;&gt;setmeal -->
<g id="edge2" class="edge">
<title>category&#45;&gt;setmeal</title>
<path fill="none" stroke="#475467" d="M444.57,-205.81C444.57,-205.81 637.81,-205.81 637.81,-205.81"/>
<polygon fill="#475467" stroke="#475467" points="637.81,-208.61 645.81,-205.81 637.81,-203.01 637.81,-208.61"/>
<text xml:space="preserve" text-anchor="middle" x="569.5" y="-205.45" font-family="Microsoft YaHei" font-size="14.00">1:N 套餐分类</text>
</g>
<!-- dish_flavor -->
<g id="node5" class="node">
<title>dish_flavor</title>
<path fill="#f8fafc" stroke="#344054" d="M992.62,-0.5C992.62,-0.5 1139.38,-0.5 1139.38,-0.5 1145.38,-0.5 1151.38,-6.5 1151.38,-12.5 1151.38,-12.5 1151.38,-71.5 1151.38,-71.5 1151.38,-77.5 1145.38,-83.5 1139.38,-83.5 1139.38,-83.5 992.62,-83.5 992.62,-83.5 986.62,-83.5 980.62,-77.5 980.62,-71.5 980.62,-71.5 980.62,-12.5 980.62,-12.5 980.62,-6.5 986.62,-0.5 992.62,-0.5"/>
<text xml:space="preserve" text-anchor="middle" x="1024.25" y="-38.08" font-family="Microsoft YaHei" font-size="14.00">dish_flavor</text>
<polyline fill="none" stroke="#344054" points="1067.88,-0.5 1067.88,-83.5"/>
<text xml:space="preserve" text-anchor="start" x="1075.88" y="-66.2" font-family="Microsoft YaHei" font-size="14.00">id PK</text>
<text xml:space="preserve" text-anchor="start" x="1075.88" y="-47.45" font-family="Microsoft YaHei" font-size="14.00">dish_id FK</text>
<text xml:space="preserve" text-anchor="start" x="1075.88" y="-28.7" font-family="Microsoft YaHei" font-size="14.00">name</text>
<text xml:space="preserve" text-anchor="start" x="1075.88" y="-9.95" font-family="Microsoft YaHei" font-size="14.00">value</text>
</g>
<!-- dish&#45;&gt;dish_flavor -->
<g id="edge3" class="edge">
<title>dish&#45;&gt;dish_flavor</title>
<path fill="none" stroke="#475467" d="M818.76,-59.12C818.76,-59.12 970.88,-59.12 970.88,-59.12"/>
<polygon fill="#475467" stroke="#475467" points="970.88,-61.93 978.88,-59.13 970.88,-56.33 970.88,-61.93"/>
<text xml:space="preserve" text-anchor="middle" x="895.5" y="-47.45" font-family="Microsoft YaHei" font-size="14.00">1:N 口味</text>
</g>
<!-- setmeal_dish -->
<g id="node7" class="node">
<title>setmeal_dish</title>
<path fill="#f8fafc" stroke="#344054" d="M972.75,-116.5C972.75,-116.5 1159.25,-116.5 1159.25,-116.5 1165.25,-116.5 1171.25,-122.5 1171.25,-128.5 1171.25,-128.5 1171.25,-187.5 1171.25,-187.5 1171.25,-193.5 1165.25,-199.5 1159.25,-199.5 1159.25,-199.5 972.75,-199.5 972.75,-199.5 966.75,-199.5 960.75,-193.5 960.75,-187.5 960.75,-187.5 960.75,-128.5 960.75,-128.5 960.75,-122.5 966.75,-116.5 972.75,-116.5"/>
<text xml:space="preserve" text-anchor="middle" x="1011.88" y="-154.07" font-family="Microsoft YaHei" font-size="14.00">setmeal_dish</text>
<polyline fill="none" stroke="#344054" points="1063,-116.5 1063,-199.5"/>
<text xml:space="preserve" text-anchor="start" x="1071" y="-182.2" font-family="Microsoft YaHei" font-size="14.00">id PK</text>
<text xml:space="preserve" text-anchor="start" x="1071" y="-163.45" font-family="Microsoft YaHei" font-size="14.00">setmeal_id FK</text>
<text xml:space="preserve" text-anchor="start" x="1071" y="-144.7" font-family="Microsoft YaHei" font-size="14.00">dish_id FK</text>
<text xml:space="preserve" text-anchor="start" x="1071" y="-125.95" font-family="Microsoft YaHei" font-size="14.00">copies</text>
</g>
<!-- dish&#45;&gt;setmeal_dish -->
<g id="edge5" class="edge">
<title>dish&#45;&gt;setmeal_dish</title>
<path fill="none" stroke="#475467" d="M818.76,-129.25C818.76,-129.25 950.9,-129.25 950.9,-129.25"/>
<polygon fill="#475467" stroke="#475467" points="950.9,-132.05 958.9,-129.25 950.9,-126.45 950.9,-132.05"/>
<text xml:space="preserve" text-anchor="middle" x="895.5" y="-116.45" font-family="Microsoft YaHei" font-size="14.00">1:N</text>
</g>
<!-- detail -->
<g id="node11" class="node">
<title>detail</title>
<path fill="#f8fafc" stroke="#344054" d="M960,-232.75C960,-232.75 1172,-232.75 1172,-232.75 1178,-232.75 1184,-238.75 1184,-244.75 1184,-244.75 1184,-341.25 1184,-341.25 1184,-347.25 1178,-353.25 1172,-353.25 1172,-353.25 960,-353.25 960,-353.25 954,-353.25 948,-347.25 948,-341.25 948,-341.25 948,-244.75 948,-244.75 948,-238.75 954,-232.75 960,-232.75"/>
<text xml:space="preserve" text-anchor="middle" x="996.12" y="-289.07" font-family="Microsoft YaHei" font-size="14.00">order_detail</text>
<polyline fill="none" stroke="#344054" points="1044.25,-232.75 1044.25,-353.25"/>
<text xml:space="preserve" text-anchor="start" x="1052.25" y="-335.95" font-family="Microsoft YaHei" font-size="14.00">id PK</text>
<text xml:space="preserve" text-anchor="start" x="1052.25" y="-317.2" font-family="Microsoft YaHei" font-size="14.00">order_id FK</text>
<text xml:space="preserve" text-anchor="start" x="1052.25" y="-298.45" font-family="Microsoft YaHei" font-size="14.00">dish_id/setmeal_id</text>
<text xml:space="preserve" text-anchor="start" x="1052.25" y="-279.7" font-family="Microsoft YaHei" font-size="14.00">name</text>
<text xml:space="preserve" text-anchor="start" x="1052.25" y="-260.95" font-family="Microsoft YaHei" font-size="14.00">number</text>
<text xml:space="preserve" text-anchor="start" x="1052.25" y="-242.2" font-family="Microsoft YaHei" font-size="14.00">amount</text>
</g>
<!-- dish&#45;&gt;detail -->
<g id="edge11" class="edge">
<title>dish&#45;&gt;detail</title>
<path fill="none" stroke="#475467" d="M818.91,-142.5C880.03,-142.5 954,-142.5 954,-142.5 954,-142.5 954,-223.14 954,-223.14"/>
<polygon fill="#475467" stroke="#475467" points="951.2,-223.14 954,-231.14 956.8,-223.14 951.2,-223.14"/>
<text xml:space="preserve" text-anchor="middle" x="895.5" y="-179.45" font-family="Microsoft YaHei" font-size="14.00">历史冗余</text>
</g>
<!-- setmeal&#45;&gt;setmeal_dish -->
<g id="edge4" class="edge">
<title>setmeal&#45;&gt;setmeal_dish</title>
<path fill="none" stroke="#475467" d="M831.14,-194.12C831.14,-194.12 950.88,-194.12 950.88,-194.12"/>
<polygon fill="#475467" stroke="#475467" points="950.88,-196.93 958.88,-194.13 950.88,-191.33 950.88,-196.93"/>
<text xml:space="preserve" text-anchor="middle" x="895.5" y="-238.45" font-family="Microsoft YaHei" font-size="14.00">1:N</text>
</g>
<!-- setmeal&#45;&gt;detail -->
<g id="edge12" class="edge">
<title>setmeal&#45;&gt;detail</title>
<path fill="none" stroke="#475467" d="M831.14,-271C831.14,-271 938.11,-271 938.11,-271"/>
<polygon fill="#475467" stroke="#475467" points="938.11,-273.8 946.11,-271 938.11,-268.2 938.11,-273.8"/>
<text xml:space="preserve" text-anchor="middle" x="895.5" y="-296.45" font-family="Microsoft YaHei" font-size="14.00">历史冗余</text>
</g>
<!-- address&#45;&gt;orders -->
<g id="edge9" class="edge">
<title>address&#45;&gt;orders</title>
<path fill="none" stroke="#475467" d="M475.49,-640C582.3,-640 739,-640 739,-640 739,-640 739,-509.89 739,-509.89"/>
<polygon fill="#475467" stroke="#475467" points="741.8,-509.89 739,-501.89 736.2,-509.89 741.8,-509.89"/>
<text xml:space="preserve" text-anchor="middle" x="569.5" y="-473.45" font-family="Microsoft YaHei" font-size="14.00">1:N 地址快照</text>
</g>
<!-- orders&#45;&gt;detail -->
<g id="edge10" class="edge">
<title>orders&#45;&gt;detail</title>
<path fill="none" stroke="#475467" d="M843.08,-347.62C843.08,-347.62 938.13,-347.62 938.13,-347.62"/>
<polygon fill="#475467" stroke="#475467" points="938.13,-350.43 946.13,-347.63 938.13,-344.83 938.13,-350.43"/>
<text xml:space="preserve" text-anchor="middle" x="895.5" y="-381.45" font-family="Microsoft YaHei" font-size="14.00">1:N</text>
</g>
</g>
</svg>
