<?xml version="1.0" encoding="UTF-8" standalone="no"?>
<!DOCTYPE svg PUBLIC "-//W3C//DTD SVG 1.1//EN"
 "http://www.w3.org/Graphics/SVG/1.1/DTD/svg11.dtd">
<!-- Generated by graphviz version 15.0.0 (20260523.1842)
 -->
<!-- Title: G Pages: 1 -->
<svg width="1244pt" height="386pt"
 viewBox="0.00 0.00 1244.00 386.00" xmlns="http://www.w3.org/2000/svg" xmlns:xlink="http://www.w3.org/1999/xlink">
<g id="graph0" class="graph" transform="scale(1 1) rotate(0) translate(18 368)">
<title>G</title>
<polygon fill="white" stroke="none" points="-18,18 -18,-368 1226,-368 1226,18 -18,18"/>
<g id="clust1" class="cluster">
<title>cluster_server</title>
<polygon fill="white" stroke="#98a2b3" points="52.38,-91 52.38,-342 1200,-342 1200,-91 52.38,-91"/>
<text xml:space="preserve" text-anchor="middle" x="626.19" y="-324.7" font-family="Microsoft YaHei" font-size="14.00">运行时拓扑</text>
</g>
<!-- dev -->
<g id="node1" class="node">
<title>dev</title>
<path fill="#eff8ff" stroke="#344054" d="M273.25,-52.75C273.25,-52.75 12,-52.75 12,-52.75 6,-52.75 0,-46.75 0,-40.75 0,-40.75 0,-19.25 0,-19.25 0,-13.25 6,-7.25 12,-7.25 12,-7.25 273.25,-7.25 273.25,-7.25 279.25,-7.25 285.25,-13.25 285.25,-19.25 285.25,-19.25 285.25,-40.75 285.25,-40.75 285.25,-46.75 279.25,-52.75 273.25,-52.75"/>
<text xml:space="preserve" text-anchor="middle" x="142.62" y="-35.45" font-family="Microsoft YaHei" font-size="14.00">开发成员本机</text>
<text xml:space="preserve" text-anchor="middle" x="142.62" y="-16.7" font-family="Microsoft YaHei" font-size="14.00">JDK17 / Maven / Node / 微信开发者工具</text>
</g>
<!-- github -->
<g id="node2" class="node">
<title>github</title>
<path fill="#f4f4f4" stroke="#344054" d="M592.25,-52.75C592.25,-52.75 468.25,-52.75 468.25,-52.75 462.25,-52.75 456.25,-46.75 456.25,-40.75 456.25,-40.75 456.25,-19.25 456.25,-19.25 456.25,-13.25 462.25,-7.25 468.25,-7.25 468.25,-7.25 592.25,-7.25 592.25,-7.25 598.25,-7.25 604.25,-13.25 604.25,-19.25 604.25,-19.25 604.25,-40.75 604.25,-40.75 604.25,-46.75 598.25,-52.75 592.25,-52.75"/>
<text xml:space="preserve" text-anchor="middle" x="530.25" y="-35.45" font-family="Microsoft YaHei" font-size="14.00">GitHub 仓库</text>
<text xml:space="preserve" text-anchor="middle" x="530.25" y="-16.7" font-family="Microsoft YaHei" font-size="14.00">Issue / PR / Actions</text>
</g>
<!-- dev&#45;&gt;github -->
<g id="edge1" class="edge">
<title>dev&#45;&gt;github</title>
<path fill="none" stroke="#475467" d="M285.59,-22.42C285.59,-22.42 446.4,-22.42 446.4,-22.42"/>
<polygon fill="#475467" stroke="#475467" points="446.4,-25.22 454.4,-22.42 446.4,-19.62 446.4,-25.22"/>
<text xml:space="preserve" text-anchor="middle" x="370.75" y="-69.45" font-family="Microsoft YaHei" font-size="14.00">push feature / PR</text>
</g>
<!-- github&#45;&gt;dev -->
<g id="edge2" class="edge">
<title>github&#45;&gt;dev</title>
<path fill="none" stroke="#475467" d="M455.97,-37.58C455.97,-37.58 295.24,-37.58 295.24,-37.58"/>
<polygon fill="#475467" stroke="#475467" points="295.24,-34.78 287.24,-37.58 295.24,-40.38 295.24,-34.78"/>
<text xml:space="preserve" text-anchor="middle" x="370.75" y="-5.45" font-family="Microsoft YaHei" font-size="14.00">review / CI 反馈</text>
</g>
<!-- server -->
<g id="node3" class="node">
<title>server</title>
<path fill="#ecfdf3" stroke="#344054" d="M942.75,-52.75C942.75,-52.75 836.75,-52.75 836.75,-52.75 830.75,-52.75 824.75,-46.75 824.75,-40.75 824.75,-40.75 824.75,-19.25 824.75,-19.25 824.75,-13.25 830.75,-7.25 836.75,-7.25 836.75,-7.25 942.75,-7.25 942.75,-7.25 948.75,-7.25 954.75,-13.25 954.75,-19.25 954.75,-19.25 954.75,-40.75 954.75,-40.75 954.75,-46.75 948.75,-52.75 942.75,-52.75"/>
<text xml:space="preserve" text-anchor="middle" x="889.75" y="-35.45" font-family="Microsoft YaHei" font-size="14.00">演示服务器或本机</text>
<text xml:space="preserve" text-anchor="middle" x="889.75" y="-16.7" font-family="Microsoft YaHei" font-size="14.00">Windows/Linux</text>
</g>
<!-- github&#45;&gt;server -->
<g id="edge3" class="edge">
<title>github&#45;&gt;server</title>
<path fill="none" stroke="#475467" d="M604.74,-30C604.74,-30 814.9,-30 814.9,-30"/>
<polygon fill="#475467" stroke="#475467" points="814.9,-32.8 822.9,-30 814.9,-27.2 814.9,-32.8"/>
<text xml:space="preserve" text-anchor="middle" x="714.5" y="-35.45" font-family="Microsoft YaHei" font-size="14.00">发布版本 tag / 源码</text>
</g>
<!-- browser -->
<g id="node4" class="node">
<title>browser</title>
<path fill="#f8fafc" stroke="#344054" d="M174.25,-183.75C174.25,-183.75 111,-183.75 111,-183.75 105,-183.75 99,-177.75 99,-171.75 99,-171.75 99,-150.25 99,-150.25 99,-144.25 105,-138.25 111,-138.25 111,-138.25 174.25,-138.25 174.25,-138.25 180.25,-138.25 186.25,-144.25 186.25,-150.25 186.25,-150.25 186.25,-171.75 186.25,-171.75 186.25,-177.75 180.25,-183.75 174.25,-183.75"/>
<text xml:space="preserve" text-anchor="middle" x="142.62" y="-166.45" font-family="Microsoft YaHei" font-size="14.00">浏览器</text>
<text xml:space="preserve" text-anchor="middle" x="142.62" y="-147.7" font-family="Microsoft YaHei" font-size="14.00">管理端访问</text>
</g>
<!-- nginx -->
<g id="node6" class="node">
<title>nginx</title>
<path fill="#f8fafc" stroke="#344054" d="M590.75,-230.75C590.75,-230.75 469.75,-230.75 469.75,-230.75 463.75,-230.75 457.75,-224.75 457.75,-218.75 457.75,-218.75 457.75,-197.25 457.75,-197.25 457.75,-191.25 463.75,-185.25 469.75,-185.25 469.75,-185.25 590.75,-185.25 590.75,-185.25 596.75,-185.25 602.75,-191.25 602.75,-197.25 602.75,-197.25 602.75,-218.75 602.75,-218.75 602.75,-224.75 596.75,-230.75 590.75,-230.75"/>
<text xml:space="preserve" text-anchor="middle" x="530.25" y="-213.45" font-family="Microsoft YaHei" font-size="14.00">Nginx</text>
<text xml:space="preserve" text-anchor="middle" x="530.25" y="-194.7" font-family="Microsoft YaHei" font-size="14.00">80: 静态资源 + 反代</text>
</g>
<!-- browser&#45;&gt;nginx -->
<g id="edge4" class="edge">
<title>browser&#45;&gt;nginx</title>
<path fill="none" stroke="#475467" d="M143,-183.95C143,-191.62 143,-198.25 143,-198.25 143,-198.25 447.9,-198.25 447.9,-198.25"/>
<polygon fill="#475467" stroke="#475467" points="447.9,-201.05 455.9,-198.25 447.9,-195.45 447.9,-201.05"/>
<text xml:space="preserve" text-anchor="middle" x="370.75" y="-179.45" font-family="Microsoft YaHei" font-size="14.00">HTTP</text>
</g>
<!-- wx -->
<g id="node5" class="node">
<title>wx</title>
<path fill="#f8fafc" stroke="#344054" d="M212.88,-269.75C212.88,-269.75 72.38,-269.75 72.38,-269.75 66.38,-269.75 60.38,-263.75 60.38,-257.75 60.38,-257.75 60.38,-236.25 60.38,-236.25 60.38,-230.25 66.38,-224.25 72.38,-224.25 72.38,-224.25 212.88,-224.25 212.88,-224.25 218.88,-224.25 224.88,-230.25 224.88,-236.25 224.88,-236.25 224.88,-257.75 224.88,-257.75 224.88,-263.75 218.88,-269.75 212.88,-269.75"/>
<text xml:space="preserve" text-anchor="middle" x="142.62" y="-252.45" font-family="Microsoft YaHei" font-size="14.00">微信客户端/开发者工具</text>
<text xml:space="preserve" text-anchor="middle" x="142.62" y="-233.7" font-family="Microsoft YaHei" font-size="14.00">小程序访问</text>
</g>
<!-- wx&#45;&gt;nginx -->
<g id="edge5" class="edge">
<title>wx&#45;&gt;nginx</title>
<path fill="none" stroke="#475467" d="M206,-223.75C206,-216.93 206,-211.25 206,-211.25 206,-211.25 447.97,-211.25 447.97,-211.25"/>
<polygon fill="#475467" stroke="#475467" points="447.97,-214.05 455.97,-211.25 447.97,-208.45 447.97,-214.05"/>
<text xml:space="preserve" text-anchor="middle" x="370.75" y="-249.45" font-family="Microsoft YaHei" font-size="14.00">HTTP</text>
</g>
<!-- app -->
<g id="node7" class="node">
<title>app</title>
<path fill="#f8fafc" stroke="#344054" d="M930,-240.12C930,-240.12 849.5,-240.12 849.5,-240.12 843.5,-240.12 837.5,-234.12 837.5,-228.12 837.5,-228.12 837.5,-187.88 837.5,-187.88 837.5,-181.88 843.5,-175.88 849.5,-175.88 849.5,-175.88 930,-175.88 930,-175.88 936,-175.88 942,-181.88 942,-187.88 942,-187.88 942,-228.12 942,-228.12 942,-234.12 936,-240.12 930,-240.12"/>
<text xml:space="preserve" text-anchor="middle" x="889.75" y="-222.82" font-family="Microsoft YaHei" font-size="14.00">Java 进程</text>
<text xml:space="preserve" text-anchor="middle" x="889.75" y="-204.07" font-family="Microsoft YaHei" font-size="14.00">sky&#45;server.jar</text>
<text xml:space="preserve" text-anchor="middle" x="889.75" y="-185.32" font-family="Microsoft YaHei" font-size="14.00">8080</text>
</g>
<!-- nginx&#45;&gt;app -->
<g id="edge6" class="edge">
<title>nginx&#45;&gt;app</title>
<path fill="none" stroke="#475467" d="M603,-208C603,-208 827.69,-208 827.69,-208"/>
<polygon fill="#475467" stroke="#475467" points="827.69,-210.8 835.69,-208 827.69,-205.2 827.69,-210.8"/>
<text xml:space="preserve" text-anchor="middle" x="714.5" y="-213.45" font-family="Microsoft YaHei" font-size="14.00">/admin /user /notify /ws</text>
</g>
<!-- mysql -->
<g id="node8" class="node">
<title>mysql</title>
<path fill="#f8fafc" stroke="#344054" d="M1172.5,-144.75C1172.5,-144.75 1095.75,-144.75 1095.75,-144.75 1089.75,-144.75 1083.75,-138.75 1083.75,-132.75 1083.75,-132.75 1083.75,-111.25 1083.75,-111.25 1083.75,-105.25 1089.75,-99.25 1095.75,-99.25 1095.75,-99.25 1172.5,-99.25 1172.5,-99.25 1178.5,-99.25 1184.5,-105.25 1184.5,-111.25 1184.5,-111.25 1184.5,-132.75 1184.5,-132.75 1184.5,-138.75 1178.5,-144.75 1172.5,-144.75"/>
<text xml:space="preserve" text-anchor="middle" x="1134.12" y="-127.45" font-family="Microsoft YaHei" font-size="14.00">MySQL 8.0</text>
<text xml:space="preserve" text-anchor="middle" x="1134.12" y="-108.7" font-family="Microsoft YaHei" font-size="14.00">sky_take_out</text>
</g>
<!-- app&#45;&gt;mysql -->
<g id="edge7" class="edge">
<title>app&#45;&gt;mysql</title>
<path fill="none" stroke="#475467" d="M942.45,-180.56C1014.25,-180.56 1134,-180.56 1134,-180.56 1134,-180.56 1134,-154.66 1134,-154.66"/>
<polygon fill="#475467" stroke="#475467" points="1136.8,-154.66 1134,-146.66 1131.2,-154.66 1136.8,-154.66"/>
<text xml:space="preserve" text-anchor="middle" x="1015.5" y="-147.45" font-family="Microsoft YaHei" font-size="14.00">JDBC</text>
</g>
<!-- redis -->
<g id="node9" class="node">
<title>redis</title>
<path fill="#f8fafc" stroke="#344054" d="M1171,-230.75C1171,-230.75 1097.25,-230.75 1097.25,-230.75 1091.25,-230.75 1085.25,-224.75 1085.25,-218.75 1085.25,-218.75 1085.25,-197.25 1085.25,-197.25 1085.25,-191.25 1091.25,-185.25 1097.25,-185.25 1097.25,-185.25 1171,-185.25 1171,-185.25 1177,-185.25 1183,-191.25 1183,-197.25 1183,-197.25 1183,-218.75 1183,-218.75 1183,-224.75 1177,-230.75 1171,-230.75"/>
<text xml:space="preserve" text-anchor="middle" x="1134.12" y="-213.45" font-family="Microsoft YaHei" font-size="14.00">Redis 6+</text>
<text xml:space="preserve" text-anchor="middle" x="1134.12" y="-194.7" font-family="Microsoft YaHei" font-size="14.00">database 10</text>
</g>
<!-- app&#45;&gt;redis -->
<g id="edge8" class="edge">
<title>app&#45;&gt;redis</title>
<path fill="none" stroke="#475467" d="M942.47,-208C942.47,-208 1075.31,-208 1075.31,-208"/>
<polygon fill="#475467" stroke="#475467" points="1075.31,-210.8 1083.31,-208 1075.31,-205.2 1075.31,-210.8"/>
<text xml:space="preserve" text-anchor="middle" x="1015.5" y="-213.45" font-family="Microsoft YaHei" font-size="14.00">Redis</text>
</g>
<!-- oss -->
<g id="node10" class="node">
<title>oss</title>
<path fill="#f8fafc" stroke="#344054" d="M1180,-307C1180,-307 1088.25,-307 1088.25,-307 1082.25,-307 1076.25,-301 1076.25,-295 1076.25,-295 1076.25,-283 1076.25,-283 1076.25,-277 1082.25,-271 1088.25,-271 1088.25,-271 1180,-271 1180,-271 1186,-271 1192,-277 1192,-283 1192,-283 1192,-295 1192,-295 1192,-301 1186,-307 1180,-307"/>
<text xml:space="preserve" text-anchor="middle" x="1134.12" y="-285.07" font-family="Microsoft YaHei" font-size="14.00">OSS / 图片服务</text>
</g>
<!-- app&#45;&gt;oss -->
<g id="edge9" class="edge">
<title>app&#45;&gt;oss</title>
<path fill="none" stroke="#475467" d="M942.49,-235.44C998.8,-235.44 1080,-235.44 1080,-235.44 1080,-235.44 1080,-261.05 1080,-261.05"/>
<polygon fill="#475467" stroke="#475467" points="1077.2,-261.05 1080,-269.05 1082.8,-261.05 1077.2,-261.05"/>
<text xml:space="preserve" text-anchor="middle" x="1015.5" y="-285.45" font-family="Microsoft YaHei" font-size="14.00">HTTP SDK</text>
</g>
</g>
</svg>
