<?xml version="1.0" encoding="UTF-8" standalone="no"?>
<!DOCTYPE svg PUBLIC "-//W3C//DTD SVG 1.1//EN"
 "http://www.w3.org/Graphics/SVG/1.1/DTD/svg11.dtd">
<!-- Generated by graphviz version 15.0.0 (20260523.1842)
 -->
<!-- Title: G Pages: 1 -->
<svg width="2096pt" height="218pt"
 viewBox="0.00 0.00 2096.00 218.00" xmlns="http://www.w3.org/2000/svg" xmlns:xlink="http://www.w3.org/1999/xlink">
<g id="graph0" class="graph" transform="scale(1 1) rotate(0) translate(18 199.5)">
<title>G</title>
<polygon fill="white" stroke="none" points="-18,18 -18,-199.5 2077.5,-199.5 2077.5,18 -18,18"/>
<!-- milestone -->
<g id="node1" class="node">
<title>milestone</title>
<path fill="#fff7ed" stroke="#344054" d="M135.25,-107.5C135.25,-107.5 12,-107.5 12,-107.5 6,-107.5 0,-101.5 0,-95.5 0,-95.5 0,-74 0,-74 0,-68 6,-62 12,-62 12,-62 135.25,-62 135.25,-62 141.25,-62 147.25,-68 147.25,-74 147.25,-74 147.25,-95.5 147.25,-95.5 147.25,-101.5 141.25,-107.5 135.25,-107.5"/>
<text xml:space="preserve" text-anchor="middle" x="73.62" y="-90.2" font-family="Microsoft YaHei" font-size="14.00">PM 创建 Milestone</text>
<text xml:space="preserve" text-anchor="middle" x="73.62" y="-71.45" font-family="Microsoft YaHei" font-size="14.00">按 4 周实训阶段拆分</text>
</g>
<!-- issue -->
<g id="node2" class="node">
<title>issue</title>
<path fill="#f8fafc" stroke="#344054" d="M399.75,-107.5C399.75,-107.5 208.25,-107.5 208.25,-107.5 202.25,-107.5 196.25,-101.5 196.25,-95.5 196.25,-95.5 196.25,-74 196.25,-74 196.25,-68 202.25,-62 208.25,-62 208.25,-62 399.75,-62 399.75,-62 405.75,-62 411.75,-68 411.75,-74 411.75,-74 411.75,-95.5 411.75,-95.5 411.75,-101.5 405.75,-107.5 399.75,-107.5"/>
<text xml:space="preserve" text-anchor="middle" x="304" y="-90.2" font-family="Microsoft YaHei" font-size="14.00">创建 Issue</text>
<text xml:space="preserve" text-anchor="middle" x="304" y="-71.45" font-family="Microsoft YaHei" font-size="14.00">目标、验收、负责人、截止时间</text>
</g>
<!-- milestone&#45;&gt;issue -->
<g id="edge1" class="edge">
<title>milestone&#45;&gt;issue</title>
<path fill="none" stroke="#475467" d="M147.51,-84.75C160.03,-84.75 173.31,-84.75 186.63,-84.75"/>
<polygon fill="#475467" stroke="#475467" points="186.33,-87.55 194.33,-84.75 186.33,-81.95 186.33,-87.55"/>
</g>
<!-- design -->
<g id="node3" class="node">
<title>design</title>
<path fill="#f8fafc" stroke="#344054" d="M605,-107.5C605,-107.5 472.75,-107.5 472.75,-107.5 466.75,-107.5 460.75,-101.5 460.75,-95.5 460.75,-95.5 460.75,-74 460.75,-74 460.75,-68 466.75,-62 472.75,-62 472.75,-62 605,-62 605,-62 611,-62 617,-68 617,-74 617,-74 617,-95.5 617,-95.5 617,-101.5 611,-107.5 605,-107.5"/>
<text xml:space="preserve" text-anchor="middle" x="538.88" y="-90.2" font-family="Microsoft YaHei" font-size="14.00">需求/接口/表结构确认</text>
<text xml:space="preserve" text-anchor="middle" x="538.88" y="-71.45" font-family="Microsoft YaHei" font-size="14.00">PM + 系统分析师</text>
</g>
<!-- issue&#45;&gt;design -->
<g id="edge2" class="edge">
<title>issue&#45;&gt;design</title>
<path fill="none" stroke="#475467" d="M412.24,-84.75C425.3,-84.75 438.52,-84.75 451.23,-84.75"/>
<polygon fill="#475467" stroke="#475467" points="450.87,-87.55 458.87,-84.75 450.87,-81.95 450.87,-87.55"/>
</g>
<!-- branch -->
<g id="node4" class="node">
<title>branch</title>
<path fill="#f8fafc" stroke="#344054" d="M817,-102.75C817,-102.75 678,-102.75 678,-102.75 672,-102.75 666,-96.75 666,-90.75 666,-90.75 666,-78.75 666,-78.75 666,-72.75 672,-66.75 678,-66.75 678,-66.75 817,-66.75 817,-66.75 823,-66.75 829,-72.75 829,-78.75 829,-78.75 829,-90.75 829,-90.75 829,-96.75 823,-102.75 817,-102.75"/>
<text xml:space="preserve" text-anchor="middle" x="747.5" y="-80.83" font-family="Microsoft YaHei" font-size="14.00">从 dev 拉 feature 分支</text>
</g>
<!-- design&#45;&gt;branch -->
<g id="edge3" class="edge">
<title>design&#45;&gt;branch</title>
<path fill="none" stroke="#475467" d="M617.4,-84.75C630.12,-84.75 643.39,-84.75 656.38,-84.75"/>
<polygon fill="#475467" stroke="#475467" points="656.27,-87.55 664.27,-84.75 656.27,-81.95 656.27,-87.55"/>
</g>
<!-- code -->
<g id="node5" class="node">
<title>code</title>
<path fill="#f8fafc" stroke="#344054" d="M1065,-107.5C1065,-107.5 890,-107.5 890,-107.5 884,-107.5 878,-101.5 878,-95.5 878,-95.5 878,-74 878,-74 878,-68 884,-62 890,-62 890,-62 1065,-62 1065,-62 1071,-62 1077,-68 1077,-74 1077,-74 1077,-95.5 1077,-95.5 1077,-101.5 1071,-107.5 1065,-107.5"/>
<text xml:space="preserve" text-anchor="middle" x="977.5" y="-90.2" font-family="Microsoft YaHei" font-size="14.00">开发与本地自测</text>
<text xml:space="preserve" text-anchor="middle" x="977.5" y="-71.45" font-family="Microsoft YaHei" font-size="14.00">mvn clean verify / 前端检查</text>
</g>
<!-- branch&#45;&gt;code -->
<g id="edge4" class="edge">
<title>branch&#45;&gt;code</title>
<path fill="none" stroke="#475467" d="M829.21,-84.75C841.78,-84.75 854.95,-84.75 868.02,-84.75"/>
<polygon fill="#475467" stroke="#475467" points="868,-87.55 876,-84.75 868,-81.95 868,-87.55"/>
</g>
<!-- pr -->
<g id="node6" class="node">
<title>pr</title>
<path fill="#f8fafc" stroke="#344054" d="M1228.25,-181.5C1228.25,-181.5 1138,-181.5 1138,-181.5 1132,-181.5 1126,-175.5 1126,-169.5 1126,-169.5 1126,-148 1126,-148 1126,-142 1132,-136 1138,-136 1138,-136 1228.25,-136 1228.25,-136 1234.25,-136 1240.25,-142 1240.25,-148 1240.25,-148 1240.25,-169.5 1240.25,-169.5 1240.25,-175.5 1234.25,-181.5 1228.25,-181.5"/>
<text xml:space="preserve" text-anchor="middle" x="1183.12" y="-164.2" font-family="Microsoft YaHei" font-size="14.00">提交 PR 到 dev</text>
<text xml:space="preserve" text-anchor="middle" x="1183.12" y="-145.45" font-family="Microsoft YaHei" font-size="14.00">关联 Issue</text>
</g>
<!-- code&#45;&gt;pr -->
<g id="edge5" class="edge">
<title>code&#45;&gt;pr</title>
<path fill="none" stroke="#475467" d="M1042.37,-107.96C1066.16,-116.61 1093.17,-126.42 1117.06,-135.11"/>
<polygon fill="#475467" stroke="#475467" points="1115.82,-137.63 1124.29,-137.73 1117.73,-132.37 1115.82,-137.63"/>
</g>
<!-- ci -->
<g id="node7" class="node">
<title>ci</title>
<path fill="#f8fafc" stroke="#344054" d="M1437.75,-107.5C1437.75,-107.5 1343,-107.5 1343,-107.5 1337,-107.5 1331,-101.5 1331,-95.5 1331,-95.5 1331,-74 1331,-74 1331,-68 1337,-62 1343,-62 1343,-62 1437.75,-62 1437.75,-62 1443.75,-62 1449.75,-68 1449.75,-74 1449.75,-74 1449.75,-95.5 1449.75,-95.5 1449.75,-101.5 1443.75,-107.5 1437.75,-107.5"/>
<text xml:space="preserve" text-anchor="middle" x="1390.38" y="-90.2" font-family="Microsoft YaHei" font-size="14.00">GitHub Actions</text>
<text xml:space="preserve" text-anchor="middle" x="1390.38" y="-71.45" font-family="Microsoft YaHei" font-size="14.00">构建与测试</text>
</g>
<!-- pr&#45;&gt;ci -->
<g id="edge6" class="edge">
<title>pr&#45;&gt;ci</title>
<path fill="none" stroke="#475467" d="M1240.48,-138.43C1265.64,-129.36 1295.5,-118.59 1321.85,-109.1"/>
<polygon fill="#475467" stroke="#475467" points="1322.64,-111.79 1329.21,-106.44 1320.74,-106.52 1322.64,-111.79"/>
</g>
<!-- ci&#45;&gt;code -->
<g id="edge10" class="edge">
<title>ci&#45;&gt;code</title>
<path fill="none" stroke="#d92d20" d="M1330.65,-84.75C1267.26,-84.75 1164.9,-84.75 1086.83,-84.75"/>
<polygon fill="#d92d20" stroke="#d92d20" points="1086.95,-81.95 1078.95,-84.75 1086.95,-87.55 1086.95,-81.95"/>
<text xml:space="preserve" text-anchor="middle" x="1183.12" y="-90.2" font-family="Microsoft YaHei" font-size="14.00">失败修复</text>
</g>
<!-- review -->
<g id="node8" class="node">
<title>review</title>
<path fill="#f8fafc" stroke="#344054" d="M1625,-45.5C1625,-45.5 1510.75,-45.5 1510.75,-45.5 1504.75,-45.5 1498.75,-39.5 1498.75,-33.5 1498.75,-33.5 1498.75,-12 1498.75,-12 1498.75,-6 1504.75,0 1510.75,0 1510.75,0 1625,0 1625,0 1631,0 1637,-6 1637,-12 1637,-12 1637,-33.5 1637,-33.5 1637,-39.5 1631,-45.5 1625,-45.5"/>
<text xml:space="preserve" text-anchor="middle" x="1567.88" y="-28.2" font-family="Microsoft YaHei" font-size="14.00">Code Review</text>
<text xml:space="preserve" text-anchor="middle" x="1567.88" y="-9.45" font-family="Microsoft YaHei" font-size="14.00">至少 1 人 Approve</text>
</g>
<!-- ci&#45;&gt;review -->
<g id="edge7" class="edge">
<title>ci&#45;&gt;review</title>
<path fill="none" stroke="#475467" d="M1449.81,-64.1C1463.44,-59.29 1478.13,-54.1 1492.34,-49.08"/>
<polygon fill="#475467" stroke="#475467" points="1493.08,-51.79 1499.69,-46.48 1491.22,-46.51 1493.08,-51.79"/>
</g>
<!-- review&#45;&gt;code -->
<g id="edge11" class="edge">
<title>review&#45;&gt;code</title>
<path fill="none" stroke="#d92d20" d="M1498.47,-29.18C1451.37,-33.67 1387.37,-39.88 1331,-45.75 1248.95,-54.29 1156.23,-64.57 1086.48,-72.44"/>
<polygon fill="#d92d20" stroke="#d92d20" points="1086.37,-69.63 1078.73,-73.31 1086.99,-75.2 1086.37,-69.63"/>
<text xml:space="preserve" text-anchor="middle" x="1285.62" y="-58.27" font-family="Microsoft YaHei" font-size="14.00">需修改</text>
</g>
<!-- merge -->
<g id="node9" class="node">
<title>merge</title>
<path fill="#f8fafc" stroke="#344054" d="M1816.75,-45.5C1816.75,-45.5 1698,-45.5 1698,-45.5 1692,-45.5 1686,-39.5 1686,-33.5 1686,-33.5 1686,-12 1686,-12 1686,-6 1692,0 1698,0 1698,0 1816.75,0 1816.75,0 1822.75,0 1828.75,-6 1828.75,-12 1828.75,-12 1828.75,-33.5 1828.75,-33.5 1828.75,-39.5 1822.75,-45.5 1816.75,-45.5"/>
<text xml:space="preserve" text-anchor="middle" x="1757.38" y="-28.2" font-family="Microsoft YaHei" font-size="14.00">Squash and merge</text>
<text xml:space="preserve" text-anchor="middle" x="1757.38" y="-9.45" font-family="Microsoft YaHei" font-size="14.00">删除 feature 分支</text>
</g>
<!-- review&#45;&gt;merge -->
<g id="edge8" class="edge">
<title>review&#45;&gt;merge</title>
<path fill="none" stroke="#475467" d="M1637.36,-22.75C1649.99,-22.75 1663.28,-22.75 1676.21,-22.75"/>
<polygon fill="#475467" stroke="#475467" points="1676.04,-25.55 1684.04,-22.75 1676.04,-19.95 1676.04,-25.55"/>
</g>
<!-- release -->
<g id="node10" class="node">
<title>release</title>
<path fill="#f8fafc" stroke="#344054" d="M2047.5,-45.5C2047.5,-45.5 1889.75,-45.5 1889.75,-45.5 1883.75,-45.5 1877.75,-39.5 1877.75,-33.5 1877.75,-33.5 1877.75,-12 1877.75,-12 1877.75,-6 1883.75,0 1889.75,0 1889.75,0 2047.5,0 2047.5,0 2053.5,0 2059.5,-6 2059.5,-12 2059.5,-12 2059.5,-33.5 2059.5,-33.5 2059.5,-39.5 2053.5,-45.5 2047.5,-45.5"/>
<text xml:space="preserve" text-anchor="middle" x="1968.62" y="-28.2" font-family="Microsoft YaHei" font-size="14.00">dev &#45;&gt; main</text>
<text xml:space="preserve" text-anchor="middle" x="1968.62" y="-9.45" font-family="Microsoft YaHei" font-size="14.00">阶段发布 / tag / 答辩版本</text>
</g>
<!-- merge&#45;&gt;release -->
<g id="edge9" class="edge">
<title>merge&#45;&gt;release</title>
<path fill="none" stroke="#475467" d="M1829.22,-22.75C1841.84,-22.75 1855.19,-22.75 1868.43,-22.75"/>
<polygon fill="#475467" stroke="#475467" points="1868.05,-25.55 1876.05,-22.75 1868.05,-19.95 1868.05,-25.55"/>
</g>
</g>
</svg>
